<svg id="Layer_1" data-name="Layer 1" xmlns="http://www.w3.org/2000/svg" viewBox="0 0 66.55 14.18"><defs><style>.cls-1{fill:#333;}.cls-2{fill:#f3603c;}</style></defs><path class="cls-1" d="M44.27,10.25v.54h2.17v2.56H44.27v6.78H41.73V13.35H40.09V10.79h1.64v-.67a3.84,3.84,0,0,1,1-2.79,3.37,3.37,0,0,1,2.56-1,2.86,2.86,0,0,1,1.3.29L46.43,9a2.81,2.81,0,0,0-.8-.14,1.28,1.28,0,0,0-1,.4A1.37,1.37,0,0,0,44.27,10.25Z" transform="translate(-40.09 -6.13)"/><path class="cls-1" d="M47.84,6.75a1.48,1.48,0,0,1,1.09-.47A1.49,1.49,0,0,1,50,6.75,1.66,1.66,0,0,1,50,9a1.47,1.47,0,0,1-1.09.48A1.45,1.45,0,0,1,47.84,9a1.66,1.66,0,0,1,0-2.29Zm-.18,4H50.2v9.34H47.66Z" transform="translate(-40.09 -6.13)"/><path class="cls-1" d="M56.49,10.61a2.91,2.91,0,0,1,1.08.17l-.15,2.51a3.28,3.28,0,0,0-1.14-.21,2,2,0,0,0-1.05.38,2.5,2.5,0,0,0-.87,1v5.64H51.82V10.79h2.54V11.9a2.25,2.25,0,0,1,.93-.93A2.37,2.37,0,0,1,56.49,10.61Z" transform="translate(-40.09 -6.13)"/><path class="cls-1" d="M66.44,15.05a8.4,8.4,0,0,1-.07,1.05H60a2.34,2.34,0,0,0,.76,1.44,2.24,2.24,0,0,0,1.51.5,2.52,2.52,0,0,0,1.14-.27,1.67,1.67,0,0,0,.78-.69l2,1.29a3.28,3.28,0,0,1-1.53,1.43,5.5,5.5,0,0,1-2.43.51,4.39,4.39,0,0,1-3.3-1.41,4.86,4.86,0,0,1-1.35-3.48A4.76,4.76,0,0,1,58.9,12a4.35,4.35,0,0,1,3.27-1.39,4,4,0,0,1,3,1.29A4.4,4.4,0,0,1,66.44,15.05ZM60,14.39h3.85a1.73,1.73,0,0,0-.61-1.16A1.88,1.88,0,0,0,62,12.77a1.92,1.92,0,0,0-1.3.43A2.19,2.19,0,0,0,60,14.39Z" transform="translate(-40.09 -6.13)"/><path class="cls-1" d="M69.66,20.13l-3.19-9.34h2.72l1.48,5.12,1.74-5.12h2l1.77,5.12,1.46-5.12h2.74L77.2,20.13h-2L73.42,15l-1.8,5.11Z" transform="translate(-40.09 -6.13)"/><path class="cls-1" d="M85,10.61A4.48,4.48,0,0,1,88.28,12a4.69,4.69,0,0,1,1,1.55,5.12,5.12,0,0,1,.36,1.92A5,5,0,0,1,89,18a4.46,4.46,0,0,1-1.65,1.74,4.54,4.54,0,0,1-2.33.62,4.35,4.35,0,0,1-3.28-1.38,4.8,4.8,0,0,1-1.32-3.46A4.86,4.86,0,0,1,81.74,12,4.32,4.32,0,0,1,85,10.61Zm0,2.56a2,2,0,0,0-1.51.65,2.36,2.36,0,0,0-.6,1.65,2.3,2.3,0,0,0,.6,1.62,2,2,0,0,0,3,0,2.27,2.27,0,0,0,.61-1.62,2.36,2.36,0,0,0-.6-1.65A2,2,0,0,0,85,13.17Z" transform="translate(-40.09 -6.13)"/><path class="cls-1" d="M95.51,10.61a2.91,2.91,0,0,1,1.08.17l-.15,2.51a3.18,3.18,0,0,0-1.13-.21,2,2,0,0,0-1,.38,2.52,2.52,0,0,0-.88,1v5.64H90.84V10.79h2.54V11.9a2.38,2.38,0,0,1,.93-.93A2.43,2.43,0,0,1,95.51,10.61Z" transform="translate(-40.09 -6.13)"/><path class="cls-1" d="M106.63,20.13h-3.25l-3.21-4.19v4.19H97.63V6.82h2.54v7.83l3.06-3.86h3.12l-3.68,4.51Z" transform="translate(-40.09 -6.13)"/><path class="cls-2" d="M48.92,9.7a1.79,1.79,0,0,1-1.3-.52,1.73,1.73,0,0,1-.53-1.27,1.69,1.69,0,0,1,.53-1.26,1.9,1.9,0,0,1,2.6,0,1.68,1.68,0,0,1,.53,1.27,1.69,1.69,0,0,1-.53,1.27A1.77,1.77,0,0,1,48.92,9.7Z" transform="translate(-40.09 -6.13)"/></svg>