<svg id="Layer_1" data-name="Layer 1" xmlns="http://www.w3.org/2000/svg" viewBox="0 0 69.21 14.64"><defs><style>.cls-1{fill:#1473e6;}</style></defs><path class="cls-1" d="M50.52,9.43v.78h2.57v2.12H50.52V20H48.3V12.33H46.43V10.21H48.3V9.32a3.75,3.75,0,0,1,1-2.78,3.64,3.64,0,0,1,2.67-1,3.11,3.11,0,0,1,1.21.22l-.13,2a2.28,2.28,0,0,0-.75-.13,1.73,1.73,0,0,0-1.79,1.81Z" transform="translate(-46.43 -5.54)"/><path class="cls-1" d="M54.32,6.09a1.42,1.42,0,0,1,2,0,1.35,1.35,0,0,1,.42,1,1.43,1.43,0,1,1-2.86,0A1.35,1.35,0,0,1,54.32,6.09Zm-.12,4.12h2.22V20H54.2Z" transform="translate(-46.43 -5.54)"/><path class="cls-1" d="M62.83,10a3.34,3.34,0,0,1,1.13.16l-.14,2.1a3.58,3.58,0,0,0-1.16-.2,2.26,2.26,0,0,0-1.28.46,3,3,0,0,0-1.05,1.22V20H58.12V10.21h2.21v1.34A3.05,3.05,0,0,1,62.83,10Z" transform="translate(-46.43 -5.54)"/><path class="cls-1" d="M73.36,14.66a5.43,5.43,0,0,1-.07,1H65.84a3,3,0,0,0,1,1.86,2.83,2.83,0,0,0,1.94.68,3.51,3.51,0,0,0,1.53-.34,2.47,2.47,0,0,0,1-.9l1.78,1.13a3.76,3.76,0,0,1-1.7,1.56,6.16,6.16,0,0,1-2.67.56,5,5,0,0,1-2.56-.67,4.88,4.88,0,0,1-1.84-1.85A5.1,5.1,0,0,1,63.63,15a5,5,0,0,1,.67-2.55,4.82,4.82,0,0,1,1.82-1.82A5,5,0,0,1,68.67,10a4.71,4.71,0,0,1,2.37.62,4.5,4.5,0,0,1,1.7,1.68A4.57,4.57,0,0,1,73.36,14.66Zm-7.44-.74H71a2.17,2.17,0,0,0-.78-1.5,2.8,2.8,0,0,0-3.37,0A2.87,2.87,0,0,0,65.92,13.92Z" transform="translate(-46.43 -5.54)"/><path class="cls-1" d="M76.72,20l-3.54-9.77h2.37l2.06,6.33,2.29-6.33h1.8L84,16.54l2-6.33h2.38L84.9,20H83.11L80.8,13.65,78.47,20Z" transform="translate(-46.43 -5.54)"/><path class="cls-1" d="M89.73,11.47A4.86,4.86,0,0,1,93.33,10a5,5,0,0,1,5.08,5.1,5.07,5.07,0,1,1-10.14,0A4.93,4.93,0,0,1,89.73,11.47ZM95.38,13a2.89,2.89,0,0,0-4.09,0,2.91,2.91,0,0,0-.82,2.11,2.87,2.87,0,0,0,.83,2.09,2.7,2.7,0,0,0,2,.85,2.72,2.72,0,0,0,2-.85,2.85,2.85,0,0,0,.83-2.09A2.88,2.88,0,0,0,95.38,13Z" transform="translate(-46.43 -5.54)"/><path class="cls-1" d="M104.32,10a3.34,3.34,0,0,1,1.13.16l-.14,2.1a3.58,3.58,0,0,0-1.16-.2,2.26,2.26,0,0,0-1.28.46,3,3,0,0,0-1.05,1.22V20H99.61V10.21h2.21v1.34a3.05,3.05,0,0,1,2.5-1.55Z" transform="translate(-46.43 -5.54)"/><path class="cls-1" d="M115.63,20h-2.88l-4.16-4.62V20h-2.21V6h2.21v8.45l4-4.22h2.77l-4.49,4.69Z" transform="translate(-46.43 -5.54)"/></svg>