<svg id="Layer_1" data-name="Layer 1" xmlns="http://www.w3.org/2000/svg" viewBox="0 0 66.51 14.03"><defs><style>.cls-1{fill:#333;}</style></defs><path class="cls-1" d="M44.27,10.25v.55h2.17v2.55H44.27v6.78H41.73V13.35H40.09V10.8h1.64v-.68a3.87,3.87,0,0,1,1-2.79,3.4,3.4,0,0,1,2.55-1,2.8,2.8,0,0,1,1.3.29L46.42,9a2.69,2.69,0,0,0-.79-.14,1.35,1.35,0,0,0-1,.4A1.42,1.42,0,0,0,44.27,10.25Z" transform="translate(-40.09 -6.28)"/><path class="cls-1" d="M47.83,6.76a1.47,1.47,0,0,1,1.09-.48A1.45,1.45,0,0,1,50,6.76a1.58,1.58,0,0,1,.46,1.14A1.6,1.6,0,0,1,50,9.05a1.45,1.45,0,0,1-1.09.48,1.47,1.47,0,0,1-1.09-.48,1.63,1.63,0,0,1-.45-1.15A1.61,1.61,0,0,1,47.83,6.76Zm-.17,4H50.2v9.33H47.66Z" transform="translate(-40.09 -6.28)"/><path class="cls-1" d="M56.48,10.61a2.91,2.91,0,0,1,1.08.17l-.15,2.51a3.22,3.22,0,0,0-1.13-.21,1.9,1.9,0,0,0-1.05.39,2.36,2.36,0,0,0-.88,1v5.64H51.81V10.8h2.54v1.1a2.63,2.63,0,0,1,2.13-1.29Z" transform="translate(-40.09 -6.28)"/><path class="cls-1" d="M66.42,15.06a6.8,6.8,0,0,1-.07,1H60a2.4,2.4,0,0,0,.76,1.45,2.27,2.27,0,0,0,1.51.49,2.55,2.55,0,0,0,1.14-.27,1.71,1.71,0,0,0,.78-.68l2,1.28a3.28,3.28,0,0,1-1.53,1.43,5.5,5.5,0,0,1-2.43.51,4.39,4.39,0,0,1-3.3-1.41,4.84,4.84,0,0,1-1.35-3.48A4.76,4.76,0,0,1,58.89,12a4.38,4.38,0,0,1,3.27-1.39,4.05,4.05,0,0,1,3,1.29A4.4,4.4,0,0,1,66.42,15.06ZM60,14.4h3.85a1.75,1.75,0,0,0-.61-1.16A1.84,1.84,0,0,0,62,12.77a2,2,0,0,0-1.3.43A2.21,2.21,0,0,0,60,14.4Z" transform="translate(-40.09 -6.28)"/><path class="cls-1" d="M69.64,20.13,66.45,10.8h2.73l1.47,5.11,1.74-5.11h2l1.77,5.11,1.46-5.11h2.74l-3.19,9.33h-2L73.41,15,71.6,20.13Z" transform="translate(-40.09 -6.28)"/><path class="cls-1" d="M85,10.61A4.45,4.45,0,0,1,86.8,11a4.29,4.29,0,0,1,1.46,1,4.8,4.8,0,0,1,1,1.55,5.32,5.32,0,0,1,.35,1.92A5.14,5.14,0,0,1,89,18a4.46,4.46,0,0,1-1.65,1.74,4.55,4.55,0,0,1-2.34.62,4.33,4.33,0,0,1-3.27-1.38,4.8,4.8,0,0,1-1.32-3.46A4.82,4.82,0,0,1,81.72,12,4.31,4.31,0,0,1,85,10.61Zm0,2.56a1.94,1.94,0,0,0-1.5.66,2.28,2.28,0,0,0-.61,1.64,2.29,2.29,0,0,0,.61,1.63,2.06,2.06,0,0,0,3,0,2.53,2.53,0,0,0,0-3.27A1.94,1.94,0,0,0,85,13.17Z" transform="translate(-40.09 -6.28)"/><path class="cls-1" d="M95.48,10.61a2.93,2.93,0,0,1,1.09.17l-.15,2.51a3.28,3.28,0,0,0-1.14-.21,2,2,0,0,0-1,.39,2.41,2.41,0,0,0-.87,1v5.64H90.82V10.8h2.54v1.1a2.35,2.35,0,0,1,.92-.93A2.43,2.43,0,0,1,95.48,10.61Z" transform="translate(-40.09 -6.28)"/><path class="cls-1" d="M106.6,20.13h-3.25L100.14,16v4.18H97.6V6.83h2.54v7.83l3.06-3.86h3.12l-3.68,4.51Z" transform="translate(-40.09 -6.28)"/></svg>