<?xml version="1.0" encoding="utf-8"?>
<!-- Generator: Adobe Illustrator 16.0.0, SVG Export Plug-In . SVG Version: 6.00 Build 0)  -->
<!DOCTYPE svg PUBLIC "-//W3C//DTD SVG 1.1//EN" "http://www.w3.org/Graphics/SVG/1.1/DTD/svg11.dtd">
<svg version="1.1" xmlns="http://www.w3.org/2000/svg" xmlns:xlink="http://www.w3.org/1999/xlink" x="0px" y="0px" width="750px"
	 height="500px" viewBox="0 0 750 500" enable-background="new 0 0 750 500" xml:space="preserve">
<g id="BACKGROUND">
	<rect fill="#F8F9FA" width="750" height="500"/>
</g>
<g id="OBJECTS">
	<g>
		<g>
			<g>
				<path fill="none" stroke="#A9C6EA" stroke-miterlimit="10" d="M112.8,399.431c-0.807-0.197-1.613-0.405-2.42-0.626"/>
				<path fill="none" stroke="#A9C6EA" stroke-miterlimit="10" stroke-dasharray="4.9955,3.4968" d="M107.025,397.823
					c-15.054-4.706-29.622-13.339-39.698-25.309c-35.489-42.162,6.098-96.202,47.476-113.218
					c20.178-8.298,38.364-18.213,44.295-41.221c5.674-22.01-9.862-45.014-13.872-66.016c-8.073-42.283,29.95-74.989,70.064-74.994
					c36.975-0.004,53.619,14.09,90.307,38.669c27.733,18.58,79.81,29.474,119.816,25.547c47.646-4.677,65.612-25.547,103.588-42.537
					c26.136-11.692,62.569-14.193,87.02,3.137c26.116,18.512,16.192,54.762,19.165,81.83c0.747,6.807,2.52,13.459,5.913,19.447
					c21.397,37.758,65.228,39.701,65.228,95.613c0,40.34-64.365,56.323-99.121,61.575"/>
				<path fill="none" stroke="#A9C6EA" stroke-miterlimit="10" d="M605.474,360.604c-0.844,0.123-1.669,0.239-2.472,0.349"/>
			</g>
		</g>
		<line fill="none" stroke="#A9C6EA" stroke-miterlimit="10" x1="102.802" y1="188.689" x2="117.065" y2="188.689"/>
		<line fill="none" stroke="#A9C6EA" stroke-miterlimit="10" x1="117.065" y1="196.623" x2="131.328" y2="196.623"/>
		<line fill="none" stroke="#A9C6EA" stroke-miterlimit="10" x1="538.056" y1="126.382" x2="552.318" y2="126.382"/>
		<line fill="none" stroke="#A9C6EA" stroke-miterlimit="10" x1="529.003" y1="134.315" x2="543.266" y2="134.315"/>
		<line fill="none" stroke="#A9C6EA" stroke-miterlimit="10" x1="550.738" y1="130.531" x2="570.121" y2="130.531"/>
		<line fill="none" stroke="#A9C6EA" stroke-miterlimit="10" x1="675.125" y1="295.451" x2="685.388" y2="295.451"/>
		<line fill="none" stroke="#A9C6EA" stroke-miterlimit="10" x1="665.819" y1="287.608" x2="680.082" y2="287.608"/>
		<line fill="none" stroke="#A9C6EA" stroke-miterlimit="10" x1="203.537" y1="87.877" x2="217.799" y2="87.877"/>
		<line fill="none" stroke="#A9C6EA" stroke-miterlimit="10" x1="180.303" y1="259.756" x2="203.755" y2="259.756"/>
		<line fill="none" stroke="#A9C6EA" stroke-miterlimit="10" x1="208.71" y1="259.756" x2="220.884" y2="259.756"/>
		<circle fill="none" stroke="#A9C6EA" stroke-miterlimit="10" cx="478.101" cy="229.846" r="4.604"/>
		<circle fill="none" stroke="#A9C6EA" stroke-miterlimit="10" cx="659.026" cy="197.991" r="4.604"/>
		<circle fill="none" stroke="#A9C6EA" stroke-miterlimit="10" cx="488.124" cy="98.746" r="4.604"/>
		<circle fill="none" stroke="#A9C6EA" stroke-miterlimit="10" cx="580.385" cy="105.639" r="2.291"/>
		<circle fill="none" stroke="#A9C6EA" stroke-miterlimit="10" cx="440.365" cy="277.712" r="2.29"/>
		<circle fill="none" stroke="#A9C6EA" stroke-miterlimit="10" cx="174.252" cy="113.445" r="2.29"/>
		<circle fill="none" stroke="#A9C6EA" stroke-miterlimit="10" cx="70.744" cy="256.553" r="2.29"/>
		<circle fill="none" stroke="#A9C6EA" stroke-miterlimit="10" cx="183.552" cy="209.636" r="2.29"/>
		<g>
			<line fill="none" stroke="#A9C6EA" stroke-miterlimit="10" x1="115.174" y1="138.573" x2="115.174" y2="143.993"/>
			<line fill="none" stroke="#A9C6EA" stroke-miterlimit="10" x1="117.884" y1="141.283" x2="112.464" y2="141.283"/>
		</g>
		<g>
			<line fill="none" stroke="#A9C6EA" stroke-miterlimit="10" x1="432.253" y1="66.267" x2="432.253" y2="71.687"/>
			<line fill="none" stroke="#A9C6EA" stroke-miterlimit="10" x1="434.963" y1="68.977" x2="429.543" y2="68.977"/>
		</g>
		<g>
			<line fill="none" stroke="#A9C6EA" stroke-miterlimit="10" x1="602.837" y1="150.088" x2="602.837" y2="155.508"/>
			<line fill="none" stroke="#A9C6EA" stroke-miterlimit="10" x1="605.547" y1="152.798" x2="600.127" y2="152.798"/>
		</g>
		<g>
			<line fill="none" stroke="#A9C6EA" stroke-miterlimit="10" x1="691.452" y1="222.533" x2="691.452" y2="227.953"/>
			<line fill="none" stroke="#A9C6EA" stroke-miterlimit="10" x1="694.162" y1="225.243" x2="688.742" y2="225.243"/>
		</g>
		<g>
			<line fill="none" stroke="#A9C6EA" stroke-miterlimit="10" x1="665.819" y1="317.671" x2="665.819" y2="323.091"/>
			<line fill="none" stroke="#A9C6EA" stroke-miterlimit="10" x1="668.529" y1="320.381" x2="663.109" y2="320.381"/>
		</g>
		<g>
			<path fill="#E4ECF9" d="M510.681,257.605c1.731-3.047,3.147-6.336,4.169-9.849c1.021-3.513,1.587-7.048,1.758-10.549
				l-9.632-1.333c0.079-3.25-0.291-6.451-1.06-9.531l9.121-3.406c-1.905-6.914-5.416-13.302-10.232-18.615l-7.765,5.875
				c-2.188-2.3-4.692-4.328-7.479-6.002l4.036-8.848c-3.047-1.731-6.335-3.148-9.849-4.168c-3.513-1.021-7.048-1.587-10.549-1.758
				l-1.334,9.632c-3.249-0.08-6.45,0.291-9.53,1.059l-3.406-9.121c-6.914,1.904-13.302,5.416-18.615,10.232l5.875,7.764
				c-2.3,2.189-4.327,4.693-6.002,7.479l-8.848-4.036c-1.731,3.047-3.147,6.335-4.169,9.848c-1.021,3.513-1.587,7.049-1.758,10.549
				l9.632,1.334c-0.079,3.249,0.291,6.45,1.061,9.53l-9.121,3.406c1.904,6.914,5.416,13.302,10.232,18.615l7.764-5.875
				c2.188,2.3,4.692,4.328,7.479,6.002l-4.036,8.848c3.047,1.731,6.336,3.148,9.849,4.169s7.048,1.587,10.549,1.758l1.334-9.633
				c3.249,0.08,6.45-0.29,9.53-1.059l3.406,9.12c6.914-1.903,13.302-5.415,18.615-10.232l-5.875-7.764
				c2.3-2.188,4.328-4.692,6.002-7.479L510.681,257.605z M464.582,257.141c-12.219-3.55-19.245-16.333-15.694-28.551
				c3.55-12.218,16.333-19.245,28.552-15.694c12.218,3.55,19.244,16.333,15.693,28.552
				C489.583,253.665,476.8,260.691,464.582,257.141z M466.27,251.332c-9.01-2.618-14.191-12.044-11.573-21.055
				s12.045-14.191,21.055-11.573s14.191,12.044,11.573,21.055C484.706,248.769,475.279,253.95,466.27,251.332z"/>
		</g>
		<g>
			<path fill="#E4ECF9" d="M520.43,163.741c-0.15-1.724-0.497-3.458-1.067-5.171s-1.331-3.31-2.244-4.78l-4.288,2.159
				c-0.879-1.343-1.927-2.54-3.104-3.576l2.752-3.942c-2.713-2.275-5.932-3.887-9.379-4.696l-1.508,4.565
				c-1.534-0.321-3.121-0.443-4.723-0.342l-0.841-4.728c-1.724,0.151-3.457,0.498-5.171,1.068c-1.714,0.57-3.31,1.332-4.78,2.244
				l2.159,4.289c-1.343,0.879-2.54,1.927-3.576,3.103l-3.942-2.751c-2.275,2.713-3.887,5.932-4.695,9.379l4.564,1.507
				c-0.32,1.535-0.442,3.121-0.342,4.723l-4.728,0.841c0.151,1.724,0.497,3.458,1.067,5.171s1.332,3.31,2.244,4.78l4.289-2.159
				c0.879,1.343,1.927,2.54,3.103,3.576l-2.751,3.942c2.713,2.276,5.931,3.887,9.379,4.696l1.507-4.565
				c1.535,0.321,3.121,0.443,4.723,0.342l0.841,4.727c1.724-0.151,3.458-0.497,5.172-1.067s3.31-1.332,4.78-2.244l-2.159-4.289
				c1.343-0.879,2.539-1.927,3.576-3.103l3.941,2.751c2.276-2.713,3.888-5.931,4.696-9.379l-4.565-1.507
				c0.321-1.535,0.443-3.121,0.342-4.723L520.43,163.741z M500.996,174.769c-5.017,1.669-10.437-1.044-12.105-6.061
				c-1.669-5.017,1.045-10.436,6.061-12.105c5.017-1.669,10.437,1.044,12.105,6.061C508.726,167.68,506.013,173.1,500.996,174.769z"
				/>
		</g>
		<g>
			<path fill="#E4ECF9" d="M284.241,131.338c-0.231-2.639-0.761-5.292-1.634-7.915c-0.873-2.623-2.038-5.065-3.434-7.316
				l-6.563,3.305c-1.345-2.055-2.949-3.887-4.75-5.474l4.211-6.033c-4.152-3.483-9.078-5.949-14.354-7.187l-2.307,6.986
				c-2.349-0.491-4.776-0.678-7.228-0.523l-1.287-7.235c-2.639,0.231-5.292,0.761-7.915,1.634c-2.623,0.873-5.065,2.038-7.316,3.434
				l3.304,6.564c-2.055,1.345-3.887,2.949-5.473,4.75l-6.033-4.211c-3.483,4.152-5.949,9.078-7.187,14.354l6.986,2.307
				c-0.491,2.349-0.678,4.776-0.523,7.228l-7.235,1.287c0.23,2.639,0.761,5.292,1.634,7.915c0.873,2.623,2.038,5.065,3.434,7.316
				l6.563-3.304c1.345,2.055,2.949,3.887,4.75,5.473l-4.211,6.033c4.152,3.483,9.078,5.95,14.354,7.187l2.307-6.986
				c2.349,0.491,4.776,0.678,7.228,0.523l1.287,7.235c2.639-0.23,5.292-0.761,7.915-1.634c2.623-0.873,5.065-2.038,7.316-3.434
				l-3.305-6.564c2.056-1.345,3.888-2.949,5.474-4.75l6.033,4.211c3.483-4.152,5.949-9.078,7.187-14.354l-6.986-2.307
				c0.491-2.349,0.678-4.776,0.523-7.228L284.241,131.338z M254.497,148.217c-7.677,2.555-15.972-1.599-18.527-9.276
				c-2.555-7.678,1.598-15.973,9.276-18.527c7.678-2.555,15.972,1.598,18.527,9.276S262.175,145.662,254.497,148.217z"/>
		</g>
		<g>
			<path fill="#E4ECF9" d="M218.483,186.003c0.981-1.726,1.783-3.589,2.361-5.579c0.579-1.99,0.899-3.993,0.996-5.976l-5.457-0.756
				c0.045-1.84-0.165-3.654-0.6-5.399l5.167-1.929c-1.079-3.917-3.068-7.536-5.797-10.545l-4.398,3.328
				c-1.24-1.303-2.658-2.452-4.236-3.4l2.287-5.012c-1.727-0.981-3.589-1.784-5.579-2.362c-1.99-0.578-3.993-0.899-5.976-0.996
				l-0.755,5.457c-1.841-0.045-3.654,0.165-5.399,0.6l-1.93-5.167c-3.917,1.079-7.535,3.068-10.545,5.796l3.328,4.398
				c-1.303,1.24-2.452,2.659-3.4,4.237l-5.012-2.287c-0.981,1.726-1.783,3.589-2.361,5.579c-0.578,1.99-0.899,3.993-0.996,5.976
				l5.457,0.756c-0.045,1.84,0.165,3.654,0.6,5.399l-5.167,1.929c1.079,3.917,3.068,7.536,5.796,10.545l4.398-3.328
				c1.24,1.303,2.658,2.452,4.236,3.4l-2.286,5.012c1.726,0.981,3.589,1.784,5.579,2.362c1.99,0.578,3.992,0.899,5.976,0.996
				l0.755-5.457c1.841,0.045,3.654-0.165,5.399-0.6l1.93,5.167c3.917-1.079,7.535-3.068,10.545-5.796l-3.328-4.398
				c1.302-1.24,2.451-2.658,3.4-4.236L218.483,186.003z M192.37,185.74c-6.921-2.011-10.902-9.252-8.891-16.174
				s9.252-10.902,16.174-8.891s10.902,9.252,8.89,16.174C206.532,183.771,199.291,187.751,192.37,185.74z M193.326,182.45
				c-5.104-1.483-8.04-6.823-6.556-11.927c1.483-5.104,6.823-8.039,11.927-6.556c5.104,1.483,8.04,6.823,6.556,11.927
				C203.77,180.998,198.43,183.933,193.326,182.45z"/>
		</g>
	</g>
	<g>
		<g>
			<g>
				<path fill="#D7E3F4" d="M344.312,460.203c3.045-6.284,18.922-33.785,35.661-42.871c2.127-1.154,4.371-2.225,6.781-2.451
					s5.039,0.537,6.498,2.469c1.33,1.763,1.478,4.168,1.094,6.343c-3.04,17.203-22.634,23.791-32.204,36.511"/>
			</g>
			<path fill="#D7E3F4" d="M344.312,460.101c0,0,15.75-31.092,31.129-49.614c7.279-8.768,12.28-25.009,4.626-29.876
				c-11.077-7.04-21.96,8.644-26.946,16.431c-7.542,11.777-13.089,24.81-17.367,38.087c-0.62,1.923-6.269,24.973-6.381,24.973
				c0.005,0,3.819,0,3.819,0H344.312z"/>
			<path fill="none" stroke="#FFFFFF" stroke-miterlimit="10" d="M374.432,389.515c-14.524,18.363-26.572,45.549-34.577,70.586"/>
			<path fill="#B2CDED" d="M311.284,460.101c0,0-1.829-47.841-22.997-69.958c-5.719-5.976-15.096-12.187-22.79-13.888
				c-9.972-2.205-9.701,9.522-7.896,17.121c2.34,9.847,10.387,15.986,16.19,23.32c10.678,13.495,17.051,22.403,24.848,43.404"/>
			<path fill="#D7E3F4" d="M317.647,460.101c5.715-10.457,3.705-55.165,0.839-69.169c-1.992-9.733-6.078-19.23-11.667-27.003
				c-5.065-7.043-20.202-22.567-29.11-16.259c-5.152,3.649,2.651,16.791,4.71,20.737c6.676,12.795,11.968,26.474,16.104,40.544
				c4.785,16.275,8.404,33.381,9.698,50.498c0.017,0.217,0.031,0.435,0.046,0.651"/>
			<path fill="#B2CDED" d="M318.692,460.101c-1.883-25.034-0.678-63.453,10.607-85.155c12.797-24.608,29.479-35.971,31.9-26.38
				c7.023,27.817-21.158,102.633-29.094,111.535"/>
			<path fill="none" stroke="#FFFFFF" stroke-miterlimit="10" d="M262.701,384.243c22.777,15.879,38.499,45.954,41.425,75.857"/>
			<path fill="none" stroke="#FFFFFF" stroke-miterlimit="10" d="M286.007,355.654c11.192,9.994,16.882,25.627,20.322,40.764
				c4.738,20.847,7.017,42.212,7.765,63.683"/>
			<path fill="none" stroke="#FFFFFF" stroke-miterlimit="10" d="M354.011,359.094c-13.777,31.652-25.396,65.851-27.34,101.007"/>
			<path fill="none" stroke="#FFFFFF" stroke-miterlimit="10" d="M386.518,420.885c0,0-20.135,13.375-34.188,39.216"/>
		</g>
		<g>
			<path fill="#B2CDED" d="M592.55,460.021c2.99-39.539-0.342-78.318,14.721-115.786c4.274-10.635,14.016-27.409,27.487-27.982
				c20.808-0.886,8.067,40.917,4.298,56.561c-2.424,10.059-6.038,20.065-9.794,29.686c-6.657,17.056-16.67,40.903-24.236,57.522"/>
			<path fill="#D7E3F4" d="M581.747,460.021c-6.552-16.762-12.961-33.579-19.441-50.368c-5.747-14.891-12.435-29.451-17.078-44.748
				c-3.535-11.644-12.67-38.327,0.703-46.529c23.814-14.605,42.846,41.911,45.358,61.983c3.311,26.456,2.596,53.067,2.993,79.662"/>
			<path fill="#B2CDED" d="M562.823,460.021c0,0-13.916-17.777-20.192-26.115c-14.021-18.622-31.308-38.849-28.728-59.782
				c0.594-4.818,2.359-10.182,7.2-13.031c2.96-1.742,6.636-2.226,9.997-1.905c11.394,1.085,21.601,17.631,26.726,26.112
				c10.038,16.611,25.582,74.722,25.582,74.722"/>
			<path fill="none" stroke="#FFFFFF" stroke-miterlimit="10" d="M552.178,330.093c16.987,34.354,33.566,97.971,33.975,129.928"/>
			<path fill="none" stroke="#FFFFFF" stroke-miterlimit="10" d="M525.771,369.547c14.946,28.713,45.345,90.474,45.345,90.474"/>
			<path fill="none" stroke="#FFFFFF" stroke-miterlimit="10" d="M633.894,325.345c-12.197,27.199-28.912,86.156-35.644,134.756"/>
			<path fill="#D7E3F4" d="M605.613,460.021c0,0,6.954-30.986,11.769-48.576c5.235-19.127,22.361-48.402,40.363-56.721
				c4.144-1.915,9.139-3.229,13.146-1.045c2.45,1.336,4.119,3.815,5.023,6.455c3.063,8.948-11.926,37.205-17.08,45.135
				c-10.095,15.529-24.552,40.202-36.014,54.752"/>
			<path fill="none" stroke="#FFFFFF" stroke-miterlimit="10" d="M667.552,360.953c-21.283,18.479-49.755,77.398-57.715,99.067"/>
		</g>
		<g>
			<path fill="#B2CDED" d="M143.762,440.742c-2.726-14.451-7.196-43.105-10.587-60.689c-1.641-8.51-6.391-18.903-9.405-26.976
				c-5.5-14.73-18.79-40.326-35.27-38.958c-20.448,1.698-3.923,38.459,1.285,52.337c3.348,8.922,7.857,17.654,12.466,26.015
				c8.171,14.822,20.285,35.463,29.303,49.775"/>
			<path fill="#B2CDED" d="M155.566,425.147c-4.99-13.052-3.642-29.651-3.625-43.465c0.03-24.86,8.663-59.812,24.852-76.125
				c6.673-6.726,17.715-14.204,24.888-3.923c6.793,9.735-1.061,36.196-3.535,47.565c-4.846,22.265-28.053,63.502-34.757,85.06"/>
			<path fill="none" stroke="#FFFFFF" stroke-miterlimit="10" d="M189.792,313.002c-11.502,29.836-26.965,84.274-30.911,116.007"/>
			<path fill="none" stroke="#FFFFFF" stroke-miterlimit="10" d="M90.229,322.346c14.577,23.447,35.943,73.672,47.249,117.385"/>
			<path fill="#D7E3F4" d="M144.344,409.146c6.133-10.037,13.408-42.618,15.067-54.264c2.333-16.374,2.584-33.673-1.469-49.803
				c-2.735-10.883-15.253-43.438-30.96-28.756c-7.376,6.895-6.199,44.47-5.32,54.528c1.721,19.697,11.924,54.97,15.425,74.43"/>
			<path fill="none" stroke="#FFFFFF" stroke-miterlimit="10" d="M135.681,284.72c10.785,28.091,8.054,97.896,4.684,122.308"/>
		</g>
	</g>
	<line fill="none" stroke="#648ACC" stroke-miterlimit="10" x1="48.498" y1="460.101" x2="676.324" y2="460.101"/>
	<g>
		<g>
			<g>
				<path fill="#FFBC96" d="M301.888,177.425c3.068-3.027,10.516-13.259,11.362-13.007c0.846,0.252-1.727,3.885-0.994,3.962
					c0.733,0.077,5.07-5.245,5.848-4.768c1.054,0.647-3.68,5.86-3.68,5.86s5.469-5.452,6.221-4.626
					c0.533,0.585-3.45,4.938-4.763,6.792c1.679-1.829,4.751-4.468,5.292-3.85c0.536,0.614-2.112,3.634-4.018,6.058
					c1.331-1.401,3.889-3.819,4.416-3.271c0.524,0.546-5.883,10.303-11.752,17.421"/>
			</g>
			<path fill="#FFBC96" d="M262.821,214.795c26.108-22.307,43.625-42.703,43.625-42.703l9.805,6.548
				c0,0-16.456,25.513-37.996,47.468"/>
			<path fill="#F7471E" d="M255.023,222.253c5.393-6.773,14.3-13.324,14.3-13.324l15.814,12.786l-13.879,16.282"/>
		</g>
		<g>
			<g>
				<path fill="#F886BC" d="M282.268,338.241l-8.372,110.248l9.906,6.307c0,0-27.223,1.416-28.108,0.525
					c-0.885-0.893,1.117-6.998,1.117-6.998l-4.545-110.345L282.268,338.241z"/>
				<path fill="#28364C" d="M260.029,455.244l-4.054-3.986l0.573-2.094l6.23,6.09l2.999,0.011l10.566-5.216l11.471,7.181
					c1.325,0.829,0.733,2.877-0.831,2.871l-15.418-0.056l-4.921-3.424l-1.397-0.005l-0.012,3.405l-10.041-0.037l0.018-4.758
					L260.029,455.244z"/>
			</g>
			<g>
				<path fill="#F886BC" d="M260.28,337.653l-24.693,110.836l9.905,6.307c0,0-27.223,1.416-28.108,0.525
					c-0.885-0.893,1.117-6.998,1.117-6.998l7.217-110.67H260.28z"/>
				<path fill="#28364C" d="M221.721,455.244l-4.053-3.986l0.573-2.094l6.229,6.09l3,0.011l10.566-5.216l11.471,7.181
					c1.326,0.829,0.733,2.877-0.83,2.871l-15.418-0.056l-4.92-3.424l-1.397-0.005l-0.012,3.405l-10.041-0.037l0.017-4.758
					L221.721,455.244z"/>
			</g>
			<path fill="#101D54" d="M234.319,280.479c-13.584,23.906-13.559,68.384-13.559,68.384h62.971c0,0-0.868-39.065-7.9-61.076
				L234.319,280.479z"/>
			
				<line fill="none" stroke="#273B7A" stroke-width="0.75" stroke-miterlimit="10" x1="255.361" y1="282.628" x2="256.931" y2="348.863"/>
			<path fill="none" stroke="#273B7A" stroke-width="0.75" stroke-miterlimit="10" d="M269.295,285.413
				c0,0-3.184,8.067-13.934,10.858"/>
		</g>
		<g>
			<g>
				<path fill="#FFBC96" d="M324.974,257.233c4.138,1.205,16.702,2.728,16.894,3.589c0.191,0.861-4.235,0.384-3.945,1.063
					c0.29,0.678,7.05,1.873,7.012,2.785c-0.051,1.235-6.91-0.359-6.91-0.359s7.425,2.122,7.07,3.181
					c-0.251,0.75-5.993-0.608-8.251-0.853c2.415,0.575,6.216,1.973,5.939,2.746c-0.275,0.767-4.203-0.075-7.248-0.56
					c1.872,0.48,5.23,1.537,5.007,2.264c-0.222,0.725-9.917-0.656-18.993-2.315"/>
			</g>
			<path fill="#F7471E" d="M250.895,215.863c0,0,1.037,2.661,6.69,2.661c3.949,0,5.437-2.07,5.437-2.07s1.455,1.304,17.011,21.721
				c3.293,4.323,2.583,13.649-2.923,21.715c-1.303,8.096-1.789,17.531-1.278,27.896h-45.024c0,0-0.786-32.349,2.328-49.991
				C234.978,227.361,242.803,219.064,250.895,215.863z"/>
			<path fill="#FFBC96" d="M280.637,229.846c30,23.539,50.804,28.647,50.804,28.647l-2.447,11.533c0,0-36.032-4.57-59.699-24.462"/>
			<path fill-rule="evenodd" clip-rule="evenodd" fill="#F7471E" d="M263.214,217.233c7.697,1.294,19.509,12.624,19.509,12.624
				l-12.536,18.401c0,0-5.322-3.685-12.536-9.884"/>
			<path fill="none" stroke="#A31D4A" stroke-width="0.75" stroke-miterlimit="10" d="M270.187,247.566
				c-9.39-5.717-13.613-9.91-13.613-9.91"/>
		</g>
		<g>
			<path fill-rule="evenodd" clip-rule="evenodd" fill="#FFBC96" d="M266.575,195.923c3.13,5.174,4.425,10.348,0.04,13.001
				c-4.386,2.653-11.437,3.973-15.921-3.394c-3.144-5.165-2.112-11.519,2.273-14.171
				C257.352,188.706,263.445,190.749,266.575,195.923z"/>
			<g>
				<path fill="#0B0B3A" d="M262.93,197.247c0.145,0.525,0.559,1.143,1.078,1.125c0.147-0.005,0.256-0.095,0.303-0.231
					C264.614,197.246,262.627,196.15,262.93,197.247z"/>
			</g>
			<path fill="none" stroke="#0B0B3A" stroke-width="0.5" stroke-linecap="round" stroke-miterlimit="10" d="M260.854,196.801
				c0.808-1.14,1.882-1.605,2.973-1.736"/>
			<path fill="#FFFFFF" d="M267.767,201.821l-2.902,1.45c0,0,1.024,2.503,2.592,2.035
				C268.767,204.915,267.767,201.821,267.767,201.821z"/>
			<path fill-rule="evenodd" clip-rule="evenodd" fill="#FFBC96" d="M263.214,217.233c0,0-2.506,1.37-5.629,1.292
				c-4.53-0.113-6.69-1.925-6.69-1.925l2.987-12.763l10.983,0.802L263.214,217.233z"/>
			<path fill-rule="evenodd" clip-rule="evenodd" fill="#FFBC96" d="M265.517,196.159c0,0,3.751,2.508,3.884,3.175
				c0.133,0.668-1.454,1.633-1.454,1.633"/>
			<g>
				<path fill="#0B0B3A" d="M255.023,187.796c-0.405,0.205-1.804-0.173-2.312-0.173c-0.713,0-1.427,0.052-2.129,0.181
					c-4.182,0.763-7.305,4.224-9.274,7.784c-1.292,2.338-2.379,4.935-4.732,6.419c-5.172,3.261-11.961,2.094-17.756,4.045
					c-5.897,1.985-10.414,7.97-8.833,14.354c0.518,2.091,1.615,3.992,2.261,6.047c1.379,4.383,0.734,9.485,3.367,13.251
					c0.707,1.01,1.618,1.865,2.6,2.61c4.403,3.344,10.393,4.496,15.723,3.021c5.329-1.474,9.876-5.54,11.934-10.672
					c2.34-5.834,1.609-12.785,5.023-18.064c1.595-2.465,3.976-4.346,5.56-6.819c1.447-2.26,2.208-6.511,2.382-9.231
					c0.04-0.628-1.085-5.854-0.748-5.854c2.708,0,6.177-1.685,7.777-3.286C263.827,186.932,258.618,185.974,255.023,187.796z"/>
			</g>
			<path fill="#FFBC96" d="M257.947,201.231c0,0-1.573-1.09-2.607,0.455c-1.336,1.997,1.881,4.521,3.43,4.637
				c1.549,0.117,1.51-1.565,1.51-1.565"/>
		</g>
	</g>
	<g>
		<g>
			<g>
				<rect x="497.179" y="169.538" fill="#D9E4F4" stroke="#648ACC" stroke-miterlimit="10" width="97.91" height="130.753"/>
			</g>
			<g>
				<rect x="511.803" y="169.538" fill="#FFFFFF" stroke="#648ACC" stroke-miterlimit="10" width="97.91" height="130.753"/>
			</g>
			<path opacity="0.45" fill="#D7E3F4" d="M593.504,196.803h-64.7c-1.985,0-3.595-1.609-3.595-3.595v-9.902
				c0-1.985,1.609-3.595,3.595-3.595h64.7c1.985,0,3.595,1.609,3.595,3.595v9.902C597.099,195.194,595.489,196.803,593.504,196.803z
				"/>
			<path opacity="0.45" fill="#D7E3F4" d="M562.989,289.506h-34.186c-1.985,0-3.595-1.609-3.595-3.595v-40.862
				c0-1.986,1.609-3.595,3.595-3.595h34.186c1.985,0,3.595,1.609,3.595,3.595v40.862
				C566.584,287.896,564.975,289.506,562.989,289.506z"/>
			<g>
				<path fill="#B2CDED" d="M530.571,213.809c0,0-0.424,0-2.182,0c-1.757,0-3.181-1.868-3.181-4.172s1.424-4.172,3.181-4.172
					c0.333,0,2.182,0,2.182,0V213.809z"/>
				<ellipse fill="#D7E3F4" cx="530.571" cy="209.636" rx="3.182" ry="4.172"/>
			</g>
			<g>
				<path fill="#B2CDED" d="M551.687,213.809c0,0-0.424,0-2.181,0c-1.758,0-3.182-1.868-3.182-4.172s1.424-4.172,3.182-4.172
					c0.332,0,2.181,0,2.181,0V213.809z"/>
				<ellipse fill="#D7E3F4" cx="551.687" cy="209.636" rx="3.181" ry="4.172"/>
			</g>
			<g>
				<path fill="#B2CDED" d="M572.803,213.809c0,0-0.425,0-2.182,0s-3.182-1.868-3.182-4.172s1.425-4.172,3.182-4.172
					c0.333,0,2.182,0,2.182,0V213.809z"/>
				<ellipse fill="#D7E3F4" cx="572.802" cy="209.636" rx="3.181" ry="4.172"/>
			</g>
			<g>
				<path fill="#B2CDED" d="M593.918,213.809c0,0-0.425,0-2.182,0s-3.182-1.868-3.182-4.172s1.425-4.172,3.182-4.172
					c0.333,0,2.182,0,2.182,0V213.809z"/>
				<ellipse fill="#D7E3F4" cx="593.917" cy="209.636" rx="3.181" ry="4.172"/>
			</g>
			<g>
				<path fill="#B2CDED" d="M530.571,234.019c0,0-0.424,0-2.182,0c-1.757,0-3.181-1.868-3.181-4.172s1.424-4.172,3.181-4.172
					c0.333,0,2.182,0,2.182,0V234.019z"/>
				<ellipse fill="#D7E3F4" cx="530.571" cy="229.846" rx="3.182" ry="4.172"/>
			</g>
			<g>
				<path fill="#B2CDED" d="M551.687,234.019c0,0-0.424,0-2.181,0c-1.758,0-3.182-1.868-3.182-4.172s1.424-4.172,3.182-4.172
					c0.332,0,2.181,0,2.181,0V234.019z"/>
				<ellipse fill="#D7E3F4" cx="551.687" cy="229.846" rx="3.181" ry="4.172"/>
			</g>
			<g>
				<path fill="#B2CDED" d="M572.803,234.019c0,0-0.425,0-2.182,0s-3.182-1.868-3.182-4.172s1.425-4.172,3.182-4.172
					c0.333,0,2.182,0,2.182,0V234.019z"/>
				<ellipse fill="#D7E3F4" cx="572.802" cy="229.846" rx="3.181" ry="4.172"/>
			</g>
			<g>
				<path fill="#B2CDED" d="M593.918,234.019c0,0-0.425,0-2.182,0s-3.182-1.868-3.182-4.172s1.425-4.172,3.182-4.172
					c0.333,0,2.182,0,2.182,0V234.019z"/>
				<ellipse fill="#D7E3F4" cx="593.917" cy="229.846" rx="3.181" ry="4.172"/>
			</g>
		</g>
		<g>
			<polygon fill="#FFFFFF" stroke="#648ACC" stroke-miterlimit="10" points="125.38,460.101 291.542,460.101 291.542,332.776 
				167.191,332.776 125.38,381.67 			"/>
			<polygon fill="#D9E4F4" stroke="#648ACC" stroke-miterlimit="10" points="244.373,460.101 305.596,460.101 305.596,332.776 
				285.339,332.776 244.373,381.67 			"/>
			<rect x="125.38" y="381.67" fill="#D9E4F4" stroke="#648ACC" stroke-miterlimit="10" width="118.992" height="78.431"/>
			<g>
				<path fill="#B2CDED" d="M255.019,347.054c1.139,1.043,3.469,0.342,5.205-1.567c1.735-1.908,2.219-4.301,1.08-5.344
					c-0.773-0.707-2.36-2.16-2.36-2.16l-6.285,6.911C252.658,344.894,253.879,346.011,255.019,347.054z"/>
				<path fill="#D7E3F4" d="M252.807,345.03c1.139,1.042,3.469,0.341,5.205-1.568c1.736-1.908,2.219-4.301,1.08-5.344
					c-1.139-1.042-3.469-0.341-5.205,1.568C252.151,341.595,251.668,343.987,252.807,345.03z"/>
			</g>
			<g>
				<path fill="#B2CDED" d="M236.496,347.054c1.139,1.043,3.47,0.342,5.205-1.567c1.735-1.908,2.219-4.301,1.08-5.344
					c-0.773-0.707-2.36-2.16-2.36-2.16l-6.285,6.911C234.136,344.894,235.357,346.011,236.496,347.054z"/>
				<path fill="#D7E3F4" d="M234.285,345.03c1.139,1.042,3.469,0.341,5.205-1.568c1.735-1.908,2.219-4.301,1.08-5.344
					c-1.139-1.042-3.469-0.341-5.205,1.568C233.629,341.595,233.146,343.987,234.285,345.03z"/>
			</g>
			<g>
				<path fill="#B2CDED" d="M198.371,347.054c1.139,1.043,3.47,0.342,5.206-1.567c1.735-1.908,2.219-4.301,1.08-5.344
					c-0.773-0.707-2.36-2.16-2.36-2.16l-6.285,6.911C196.011,344.894,197.232,346.011,198.371,347.054z"/>
				<path fill="#D7E3F4" d="M196.16,345.03c1.139,1.042,3.469,0.341,5.205-1.568c1.736-1.908,2.219-4.301,1.08-5.344
					c-1.139-1.042-3.469-0.341-5.205,1.568C195.504,341.595,195.021,343.987,196.16,345.03z"/>
			</g>
			<g>
				<path fill="#B2CDED" d="M178.731,347.054c1.139,1.043,3.47,0.342,5.205-1.567c1.735-1.908,2.219-4.301,1.08-5.344
					c-0.773-0.707-2.361-2.16-2.361-2.16l-6.285,6.911C176.371,344.894,177.592,346.011,178.731,347.054z"/>
				<path fill="#D7E3F4" d="M176.52,345.03c1.138,1.042,3.469,0.341,5.205-1.568c1.735-1.908,2.219-4.301,1.08-5.344
					c-1.139-1.042-3.469-0.341-5.205,1.568C175.864,341.595,175.38,343.987,176.52,345.03z"/>
			</g>
			<polygon opacity="0.45" fill="#D7E3F4" points="242.955,372.759 249.558,364.204 149.015,364.204 141.46,372.759 			"/>
		</g>
		<path fill="none" stroke="#648ACC" stroke-miterlimit="10" d="M354.147,313.278v106.335c0,5.143-4.169,9.313-9.313,9.313H285.68
			c-5.143,0-9.313-4.17-9.313-9.313v-3.049"/>
		<path fill="none" stroke="#648ACC" stroke-miterlimit="10" d="M368.807,318.158v121.485c0,5.245-4.252,9.497-9.497,9.497h-94.048
			c-5.143,0-9.313-4.169-9.313-9.313v-23.264"/>
		<path fill="none" stroke="#648ACC" stroke-miterlimit="10" d="M395.419,316.124v70.479c0,5.144,4.169,9.313,9.313,9.313h73.46
			c5.143,0,9.313-4.169,9.313-9.313V265.865c0-5.144,4.169-9.313,9.313-9.313h30.289"/>
		<path fill="none" stroke="#648ACC" stroke-miterlimit="10" d="M383.609,318.158v98.782c0,5.143,4.17,9.313,9.313,9.313h134.871
			c5.144,0,9.313-4.17,9.313-9.313V279.608"/>
		<g>
			<g>
				<g>
					<path fill="#FDD305" d="M287.375,163.584c0-48.395,39.231-87.625,87.625-87.625c48.395,0,87.625,39.231,87.625,87.625
						c0,19.291-6.238,37.122-16.801,51.596l0,0c-12.508,18.848-45.007,40.127-45.007,52.876v14.565c0,2.907-2.357,5.264-5.265,5.264
						h-14.082H368.53h-14.083c-2.907,0-5.264-2.356-5.264-5.264v-14.565c0-12.749-32.5-34.029-45.007-52.876l0,0
						C293.613,200.706,287.375,182.875,287.375,163.584z"/>
				</g>
			</g>
			<g>
				<path fill="#FFFFFF" d="M384.95,286.434c-0.103-2.195-1.671-37.371,1.146-68.197c-3.451,0.409-7.146,0.626-11.096,0.626
					c-3.95,0-7.644-0.217-11.095-0.626c2.816,30.827,1.247,66.002,1.145,68.197l-1.545-0.072c0.025-0.541,1.649-36.924-1.229-68.335
					c-25.989-3.614-37.622-18.337-39.71-32.232c-1.221-8.121,1.553-16.204,6.595-19.219c3.059-1.829,6.755-2.2,10.689-1.071
					c6.189,1.775,12.071,7.108,15.735,14.266c4.23,8.266,6.731,21.99,8.173,36.889c3.485,0.429,7.229,0.657,11.244,0.657
					c4.016,0,7.759-0.229,11.243-0.657c1.442-14.899,3.943-28.623,8.175-36.889c3.663-7.157,9.545-12.49,15.734-14.266
					c3.934-1.128,7.631-0.758,10.689,1.071c5.041,3.015,7.815,11.098,6.594,19.219c-2.089,13.896-13.722,28.619-39.711,32.232
					c-2.879,31.411-1.254,67.794-1.229,68.335L384.95,286.434z M414.487,166.414c-1.255,0-2.564,0.192-3.908,0.578
					c-5.785,1.66-11.313,6.7-14.785,13.484c-4.068,7.949-6.5,21.337-7.92,35.966c24.896-3.589,36.04-17.625,38.032-30.877
					c1.113-7.406-1.405-14.999-5.858-17.662C418.392,166.913,416.511,166.414,414.487,166.414z M335.513,166.414
					c-2.023,0-3.905,0.499-5.561,1.489c-4.453,2.663-6.972,10.255-5.859,17.662c1.992,13.252,13.135,27.288,38.032,30.877
					c-1.42-14.629-3.851-28.017-7.92-35.966c-3.472-6.784-8.999-11.824-14.784-13.484
					C338.077,166.605,336.768,166.414,335.513,166.414z"/>
			</g>
			<g>
				<path fill="#FFEE99" d="M448.037,168.612c-2.776,0-5.027-2.251-5.027-5.028c0-31.179-21.08-58.292-51.262-65.933
					c-2.692-0.681-4.322-3.416-3.641-6.108c0.682-2.692,3.415-4.324,6.107-3.64c34.65,8.772,58.85,39.893,58.85,75.681
					C453.064,166.361,450.813,168.612,448.037,168.612z"/>
			</g>
			<g>
				<circle fill="#FFEE99" cx="378.339" cy="90.409" r="5.027"/>
			</g>
			<g opacity="0.55">
				<g>
					<g>
						<path fill="#FFC043" d="M462.457,168.766c-4.836,35.93-33.845,73.127-87.457,73.127c-53.612,0-81.538-38.938-87.457-73.127
							c1.01,17.296,7.024,33.247,16.633,46.415l0,0c12.507,18.848,45.007,40.127,45.007,52.876v14.565
							c0,2.907,2.356,5.264,5.264,5.264h14.083h12.941h14.082c2.907,0,5.265-2.356,5.265-5.264v-14.565
							c0-12.749,32.499-34.029,45.007-52.876l0,0C455.434,202.012,461.446,186.062,462.457,168.766z"/>
					</g>
				</g>
			</g>
			<g>
				<path fill="#28364C" d="M402.888,274.276h-55.775v26.582c0,4.341,1.235,8.592,3.562,12.257l0,0
					c4.397,6.928,12.032,11.124,20.237,11.124h8.177c8.205,0,15.84-4.196,20.237-11.124l0,0c2.326-3.665,3.562-7.916,3.562-12.257
					V274.276z"/>
			</g>
			<g>
				<g>
					<path fill="#475577" d="M347.108,292.202c0.16,0.005,0.32,0,0.483-0.018l55.774-5.781c1.904-0.197,3.233-1.909,2.97-3.822
						s-2.024-3.306-3.925-3.106l-55.776,5.782c-1.903,0.197-3.233,1.908-2.969,3.821
						C343.906,290.828,345.398,292.142,347.108,292.202z"/>
				</g>
			</g>
			<g>
				<g>
					<path fill="#475577" d="M347.108,304.368c0.16,0.005,0.32,0,0.483-0.018l55.774-5.781c1.904-0.197,3.233-1.908,2.97-3.822
						c-0.264-1.913-2.024-3.303-3.925-3.106l-55.776,5.782c-1.903,0.197-3.233,1.908-2.969,3.821
						C343.906,302.995,345.398,304.309,347.108,304.368z"/>
				</g>
			</g>
			<g>
				<g>
					<path fill="#475577" d="M349.336,316.41c0.159,0.006,0.32,0,0.482-0.017l52.867-5.481c1.904-0.197,3.233-1.908,2.97-3.821
						c-0.265-1.913-2.027-3.306-3.926-3.106l-52.867,5.48c-1.904,0.197-3.234,1.908-2.969,3.822
						C346.134,315.037,347.625,316.351,349.336,316.41z"/>
				</g>
			</g>
			<g>
				
					<line fill="#FFCD5C" stroke="#FFC043" stroke-width="3" stroke-linecap="round" stroke-linejoin="round" stroke-miterlimit="10" x1="375" y1="38.759" x2="375" y2="66.295"/>
				<g>
					
						<line fill="#FFCD5C" stroke="#FFC043" stroke-width="3" stroke-linecap="round" stroke-linejoin="round" stroke-miterlimit="10" x1="424.657" y1="49.727" x2="413.536" y2="74.917"/>
					
						<line fill="#FFCD5C" stroke="#FFC043" stroke-width="3" stroke-linecap="round" stroke-linejoin="round" stroke-miterlimit="10" x1="466.51" y1="80.193" x2="446.163" y2="98.746"/>
					
						<line fill="#FFCD5C" stroke="#FFC043" stroke-width="3" stroke-linecap="round" stroke-linejoin="round" stroke-miterlimit="10" x1="325.343" y1="49.727" x2="336.464" y2="74.917"/>
					
						<line fill="#FFCD5C" stroke="#FFC043" stroke-width="3" stroke-linecap="round" stroke-linejoin="round" stroke-miterlimit="10" x1="283.49" y1="80.193" x2="303.837" y2="98.746"/>
				</g>
			</g>
		</g>
		<circle fill="#648ACC" cx="255.949" cy="416.707" r="1.897"/>
		<circle fill="#648ACC" cx="276.368" cy="416.707" r="1.897"/>
		<circle fill="#648ACC" cx="537.106" cy="279.608" r="1.897"/>
		<circle fill="#648ACC" cx="547.793" cy="279.608" r="1.897"/>
		<circle fill="#648ACC" cx="558.481" cy="279.608" r="1.897"/>
		<circle fill="#648ACC" cx="527.106" cy="256.553" r="1.897"/>
	</g>
	<g>
		<circle fill="#F46072" cx="468.677" cy="367.604" r="39.134"/>
		<circle fill="#FFFFFF" cx="468.677" cy="367.604" r="28.312"/>
		<circle fill="#F46072" cx="468.677" cy="367.604" r="19.447"/>
		<circle fill="#FFFFFF" cx="468.677" cy="367.604" r="10.188"/>
		<g>
			<g>
				<polygon fill="#0C3656" points="467.101,369.18 473.497,369.18 467.101,362.783 				"/>
			</g>
			<g>
				<polygon fill="#0C3656" points="508.58,327.701 515.899,327.701 515.899,325.855 510.426,325.855 510.426,320.381 
					508.58,320.381 				"/>
			</g>
			<g>
				<polygon fill="#0C3656" points="511.93,324.351 519.25,324.351 519.25,322.505 513.775,322.505 513.775,317.031 511.93,317.031 
									"/>
			</g>
			<g>
				
					<rect x="459.729" y="344.331" transform="matrix(-0.7071 0.7071 -0.7071 -0.7071 1082.3661 242.184)" fill="#0C3656" width="62.593" height="1.845"/>
			</g>
		</g>
	</g>
	<g>
		<g>
			<path fill="#FFBC96" d="M167.706,297.777l-4.827,9.167c0,0-3.293,0-7.836-2.243c-4.511-2.227-5.825-5.294-5.825-5.294
				l8.161-10.796"/>
			<path fill="#FFBC96" d="M177.969,280.463c4.489,2.646-2.926,19.396-6.977,20.457c-4.051,1.06-12.095-6.855-14.492-13.562
				c-2.397-6.706,5.316-10.373,9.852-11.736C170.887,274.26,177.969,280.463,177.969,280.463z"/>
			<g>
				<g>
					<path fill="#00276F" d="M174.639,288.583c-0.153,0.267-0.295,0.541-0.426,0.819c-0.161,0.343,0.349,0.644,0.511,0.299
						c0.141-0.301,0.271-0.608,0.386-0.919C175.213,288.504,174.782,288.335,174.639,288.583L174.639,288.583z"/>
				</g>
			</g>
			
				<path fill="none" stroke="#00276F" stroke-width="0.75" stroke-linecap="round" stroke-linejoin="round" stroke-miterlimit="10" d="
				M177.125,286.95c0,0-0.985-1.477-3.577-0.96"/>
			<path fill="#FFFFFF" d="M170.692,295.102l2.856,2.039c0,0-1.117,2.159-2.136,1.319
				C170.392,297.621,170.692,295.102,170.692,295.102z"/>
			<g>
				<path fill="#212237" d="M182,284.133c-2.039-0.656-4.28-1.897-5.824-2.673c-2.063,0.427-4.207,2.362-4.262,4.554
					c-0.012,0.493-0.062,1.164-0.551,1.232c-0.337,0.048-0.616-0.282-0.71-0.609c-0.095-0.327-0.082-0.684-0.216-0.996
					c-0.272-0.635-1.108-0.89-1.762-0.665c-0.653,0.225-1.123,0.815-1.389,1.452c-0.682,1.629-1.291,3.6,0.265,4.967
					c0.242,0.212,0.525,0.396,0.681,0.678c0.338,0.611-0.061,1.356-0.46,1.93c-1.237,1.778-3.097,3.775-6.745,3.775
					c-2.565,0-6.826-3.383-7.107-5.072c-0.025-0.151-2.48-10.507,2.076-17.093c2.444-3.533,6.745-6.106,11.231-5.73
					c2.771,0.231,5.19,1.864,6.547,2.921C181.255,274.178,182.859,281.888,182,284.133z"/>
			</g>
			<path fill="#FFBC96" d="M177.679,290.248c0,0,0.662,5.022-0.328,5.571c-0.99,0.55-3.079-0.881-3.079-0.881"/>
		</g>
		<g>
			<g>
				<g>
					<g>
						<path fill="#FFBC96" d="M179.74,426.221l-3.662,23.644l-0.19,7.119l27.915-0.143c0.682-0.003,1.231-0.559,1.228-1.24l0,0
							c-0.003-0.511-0.319-0.967-0.797-1.147l-12.039-5.536l4.762-24.561"/>
						<path fill="#1473E6" d="M206.252,456.541c-0.285-0.895-0.809-1.898-1.337-2.126l-12.765-5.498
							c-7.037,2.853-16.145,0.672-16.145,0.672l-1.625,9.611c0.001,0.318,0.261,0.574,0.579,0.573l31.079-0.159
							C206.664,459.611,206.261,456.568,206.252,456.541z"/>
						<path fill="none" stroke="#273B7A" stroke-width="0.75" stroke-miterlimit="10" d="M194.913,449.468
							c-0.715,0.932-1.32,1.948-1.8,3.021"/>
						<path fill="none" stroke="#273B7A" stroke-width="0.75" stroke-miterlimit="10" d="M196.52,450.428
							c-0.741,1.026-1.037,1.619-1.479,2.57"/>
						<path fill="none" stroke="#273B7A" stroke-width="0.75" stroke-miterlimit="10" d="M197.878,451.13
							c-0.503,0.676-0.997,1.611-1.388,2.357"/>
					</g>
					
						<line fill="none" stroke="#273B7A" stroke-width="0.75" stroke-miterlimit="10" x1="174.545" y1="457.698" x2="206.383" y2="457.535"/>
					<path fill="none" stroke="#273B7A" stroke-width="0.75" stroke-miterlimit="10" d="M175.429,452.998
						c0,0,7.479,0.151,8.123,4.658"/>
					<path fill="none" stroke="#273B7A" stroke-width="0.75" stroke-miterlimit="10" d="M202.299,453.288
						c0,0-2.062,2.931-2.469,4.282"/>
				</g>
			</g>
			<g>
				<g>
					<g>
						<path fill="#FFBC96" d="M93.089,432.417l-23.292-2.774l-7.12-0.191l0.142,27.915c0.004,0.682,0.56,1.231,1.241,1.228l0,0
							c0.511-0.003,0.967-0.319,1.148-0.797l5.536-12.039l24.138,2.718"/>
						<path fill="#1473E6" d="M63.121,459.815c0.894-0.285,1.898-0.81,2.126-1.337l5.498-12.766
							c-2.852-7.036-0.672-16.145-0.672-16.145l-9.611-1.624c-0.318,0.001-0.574,0.261-0.573,0.579l0.159,31.078
							C60.05,460.227,63.092,459.824,63.121,459.815z"/>
						<path fill="none" stroke="#273B7A" stroke-width="0.75" stroke-miterlimit="10" d="M70.194,448.476
							c-0.932-0.715-1.949-1.32-3.022-1.799"/>
						<path fill="none" stroke="#273B7A" stroke-width="0.75" stroke-miterlimit="10" d="M69.233,450.083
							c-1.025-0.741-1.618-1.037-2.569-1.479"/>
						<path fill="none" stroke="#273B7A" stroke-width="0.75" stroke-miterlimit="10" d="M68.532,451.441
							c-0.676-0.503-1.611-0.996-2.358-1.387"/>
					</g>
					
						<line fill="none" stroke="#273B7A" stroke-width="0.75" stroke-miterlimit="10" x1="61.963" y1="428.108" x2="62.126" y2="459.947"/>
					<path fill="none" stroke="#273B7A" stroke-width="0.75" stroke-miterlimit="10" d="M66.664,428.992
						c0,0-0.152,7.479-4.658,8.123"/>
					<path fill="none" stroke="#273B7A" stroke-width="0.75" stroke-miterlimit="10" d="M66.373,455.862
						c0,0-2.931-2.063-4.282-2.469"/>
				</g>
			</g>
			<path fill="#22252D" d="M106.943,367.518c-5.005,13.383,3.165,32.81,3.165,32.81l4.305,31.292l-40.842-1.798l0.404,27.162
				c0,0,43.808,3.117,54.405,3.117c10.596,0,14.692-2.372,17.802-8.58c4.633-9.25-2.026-60.389-2.026-61.236l-7.271-32.849"/>
			
				<line fill="none" stroke="#474B51" stroke-width="0.75" stroke-miterlimit="10" x1="78.473" y1="430.037" x2="78.78" y2="457.319"/>
			<path fill="#22252D" d="M121.11,374.753c0,0-4.636,23.693,18.9,28.784c10.518,2.275,37.263,3.022,37.263,3.022l-4.567,36.604
				h26.707c0,0,5.533-27.579,7.198-46.026c1.108-12.272-4.17-17.761-14.093-18.991c-8.399-1.041-33.659-2.685-33.659-2.685
				l-4.246-5.33"/>
			<path fill="none" stroke="#474B51" stroke-width="0.75" stroke-miterlimit="10" d="M145.285,404.385
				c0,0-19.807,0.061-24.546-22.137"/>
			<path fill="none" stroke="#474B51" stroke-width="0.75" stroke-miterlimit="10" d="M131.191,380.155c0,0,5.36,1.026,12.341,0.568
				"/>
			<path fill="none" stroke="#474B51" stroke-width="0.75" stroke-miterlimit="10" d="M105.325,377.017c0,0,5.281,1.513,8.712,1.479
				"/>
			
				<line fill="none" stroke="#474B51" stroke-width="0.75" stroke-miterlimit="10" x1="174.47" y1="438.398" x2="200.399" y2="438.398"/>
		</g>
		<g>
			<g>
				<g>
					<rect x="227.792" y="337.361" fill="#648ACC" width="2.126" height="23.235"/>
				</g>
				<circle fill="#648ACC" cx="228.856" cy="335.009" r="3.919"/>
			</g>
			<path fill="#FFBC96" d="M209.188,341.68l7.884,0.582c0,0,6.061-2.045,8.474-2.097c1.48-0.032,2.246,0.749,2.246,0.749
				s0,0.796,0,2.382c0,1.587,2.126,2.286,2.126,1.209v-1.311c0.024,0.088,4.365,2.15,1.822,4.114
				c1.194,0.247,1.828,1.925-0.438,3.075c0.719,0.491,1.55,1.852-0.11,2.943c0.737,1.12-0.762,2.355-1.954,2.613
				c-2.254,0.487-20.291,0.109-20.291,0.109"/>
			<path fill="#1473E6" d="M163.182,306.084c12.951,17.915,5.995,23.722-3.313,69.423c-31.089,0-54.883-5.376-54.883-5.376
				s7.404-23.984,21.126-50.676c6.543-12.728,17.421-19.064,23.578-20.682"/>
			<path fill="#1473E6" d="M143.532,326.227c0,0,20.013,31.345,29.524,32.734c15.101,2.207,40.073,1.588,40.073,1.588l1.489-22.051
				c0,0-32.1-1.623-33.424-2.377c-4.3-2.444-18.013-30.037-18.013-30.037"/>
			<path fill="none" stroke="#273B7A" stroke-width="0.75" stroke-miterlimit="10" d="M164.842,353.242
				c0,0-11.741-9.746-19.557-24.88"/>
			
				<line fill="none" stroke="#273B7A" stroke-width="0.75" stroke-miterlimit="10" x1="209.99" y1="338.255" x2="208.099" y2="360.629"/>
		</g>
	</g>
	<g>
		<g>
			<g>
				<path fill="#FFBC96" d="M634.686,303.651c-0.485,4.283-3.926,16.462-3.205,16.971c0.721,0.51,1.987-3.758,2.502-3.229
					c0.513,0.529-0.991,7.228-0.136,7.544c1.16,0.43,2.334-6.514,2.334-6.514s-0.906,7.669,0.207,7.75
					c0.79,0.058,1.75-5.763,2.396-7.941c-0.4,2.449-0.577,6.496,0.243,6.539c0.813,0.042,1.552-3.907,2.279-6.902
					c-0.279,1.912-0.6,5.418,0.156,5.492c0.754,0.075,3.22-9.402,5.189-18.416"/>
			</g>
			<path fill="#FFBC96" d="M648.628,244.893c0,0,6.932,12.313,7.933,19.869c2.466,18.616-12.98,50.15-12.98,50.15
				s-11.225-3.062-11.225-4.471c0-1.408,7.823-34.543,7.823-34.543L628.959,250"/>
		</g>
		<g>
			<path fill="#FFBC96" d="M614.925,204.462l1.506,13.882c0,0-8.323,7.057-15.688-0.849l0.9-9.138L614.925,204.462z"/>
			<path fill="#FFBC96" d="M603.313,190.555c0,0-9.011,12.409-5.33,17.06c2.716,3.431,9.841,3.821,12.042,2.473
				c0.474-2.542,6.313-10.94,5.377-12.81C611.823,190.136,603.313,190.555,603.313,190.555z"/>
			<g>
				<path fill="#212237" d="M617.337,192.701c-0.291-4.691-4.917-6.064-13.795-5.535c-1.188,0.071-3.304-0.736-3.854,0.32
					c-0.722,1.389-0.85,4.198,0.545,5.462c0.931,0.844,1.554,1.027,2.777,1.313c1.609,0.376,3.248,1.908,2.393,3.593
					c-0.225,0.441-0.756,1.19-0.42,1.554c0.171,0.184,0.743,0.387,0.964,0.505c0.64,0.342,0.599,1.313,0.201,1.919
					c-0.398,0.605-0.22,1.277-0.621,1.881c-0.949,1.43,0.177,4.066,1.653,4.941c1.307,0.774,5.592,2.066,8.728,0.439
					c2.721-1.41,4.354-5.249,4.377-12.15C620.293,194.297,618.325,192.521,617.337,192.701z"/>
			</g>
			<path fill="#FFBC96" d="M604.293,199.788c1.464-1.855,2.648-1.56,3.295-0.542c0.862,1.358-0.867,4.182-1.672,4.664
				c-1.632,0.977-2.953,0.874-3.079-0.451"/>
			<g>
				<g>
					<path fill="#28364C" d="M600.684,196.947c-0.419,0.349-0.811,0.981-0.58,1.446c0.065,0.131,0.192,0.194,0.336,0.18
						C601.379,198.481,601.558,196.219,600.684,196.947z"/>
				</g>
			</g>
			<path fill="none" stroke="#28364C" stroke-width="0.75" stroke-miterlimit="10" d="M600.801,195.227
				c0.586,0.208,1.536,0.74,1.883,1.48"/>
			<path fill="#FFFFFF" d="M600.784,203.565l-2.058-1.101c0,0-1.352,2.527-0.394,3.061
				C599.393,206.115,600.784,203.565,600.784,203.565z"/>
		</g>
		<g>
			<g>
				
					<rect x="569.745" y="458.633" transform="matrix(-1 7.809718e-004 -7.809718e-004 -1 1172.3557 918.2629)" fill="#103BB2" width="32.507" height="1.455"/>
				<path fill="#22252D" d="M597.626,446.619l2.813,0.663c0,0,1.076,3.674,1.489,6.231c0.413,2.559,0.323,5.106,0.323,5.106
					l-32.506,0.024c0,0,0.85-2.817,8.605-7.36c3.057-1.791,4.612-3.839,4.612-3.839L597.626,446.619z"/>
				<path fill="#F2B18F" d="M600.973,434.923l-0.534,12.359c0,0-1.364,1.65-6.885,1.654s-10.591-1.491-10.591-1.491l-1.09-16.674"/>
			</g>
			<g>
				
					<rect x="616.044" y="458.633" transform="matrix(-1 7.809718e-004 -7.809718e-004 -1 1264.9543 918.2268)" fill="#103BB2" width="32.508" height="1.455"/>
				<path fill="#22252D" d="M643.926,446.619l2.813,0.663c0,0,1.076,3.674,1.489,6.231c0.413,2.559,0.323,5.106,0.323,5.106
					l-32.506,0.024c0,0,0.85-2.817,8.605-7.36c3.057-1.791,4.612-3.839,4.612-3.839L643.926,446.619z"/>
				<path fill="#F2B18F" d="M645.643,434.419l1.096,12.863c0,0-1.364,1.65-6.885,1.654s-10.591-1.491-10.591-1.491l-2.505-16.674"/>
			</g>
			<path fill="#1473E6" d="M640.399,306.524c0,0,5.07,10.558,0.996,30.76c2.073,45.104,7.467,105.741,7.467,105.741l-30.971-0.109
				c0,0-6.314-65.18-10.068-97.662c-4.183-36.182-6.798-80.492-6.798-80.492"/>
			<path fill="none" stroke="#0B2E6B" stroke-width="0.75" stroke-miterlimit="10" d="M622.892,442.916
				c0,0-6.314-65.18-10.068-97.662"/>
			<path fill="#1473E6" d="M581.26,308.545c0,0-3.291,47.551-3.291,70.37c0,22.821-1.466,64.11-1.466,64.11h31.306l11.647-107.933
				c9.539-11.426,8.843-36.22,6.544-45.874l-31.041-8.476L581.26,308.545z"/>
			<path fill="none" stroke="#0B2E6B" stroke-width="0.75" stroke-miterlimit="10" d="M613.06,394.36l6.396-59.268
				c8.001-8.92,8.001-20.181,8.001-20.181"/>
			
				<line fill="none" stroke="#0B2E6B" stroke-width="0.75" stroke-miterlimit="10" x1="587.794" y1="303.77" x2="580.385" y2="443.025"/>
			
				<line fill="none" stroke="#0B2E6B" stroke-width="0.75" stroke-miterlimit="10" x1="608.354" y1="316.317" x2="623.56" y2="316.622"/>
			
				<line fill="none" stroke="#0B2E6B" stroke-width="0.75" stroke-miterlimit="10" x1="634.397" y1="315.838" x2="640.179" y2="315.718"/>
		</g>
		<g>
			<g>
				<path fill="#FFBC96" d="M554.868,236.114c-4.244-4.802-15.634-23.061-16.914-22.773c-1.28,0.288,2.168,5.938,1.072,5.979
					c-1.095,0.04-6.989-8.294-8.192-7.666c-1.629,0.853,4.865,9.065,4.865,9.065s-2.543-3.489-3.742-2.34
					c-0.85,0.814-0.401,2.522,1.359,5.405c-1.181-1.476-2.296-1.737-3.16-0.874c-0.857,0.856-0.009,2.43,1.048,4.02
					c-0.833-1.042-2.05-1.566-2.362-0.48c-0.408,1.42,3.037,8.791,11.188,20.81"/>
			</g>
			<path fill="#D8CAC0" d="M616.277,216.931c0,0,17.937,0.752,23.316,21.167c2.425,9.204,3.986,72.321,3.986,72.321l-65.543-0.438
				c0,0,0.873-57.061,2.339-69.416c2.679-22.578,20.457-23.986,20.457-23.986s0.81,1.997,7.757,1.997
				C615.538,218.576,616.277,216.931,616.277,216.931z"/>
			<path fill="#D8CAC0" d="M616.277,216.931c21.289,0,34.397,29.244,34.397,29.244l-13.387,6.723"/>
			<path fill="#FFBC96" d="M588.154,258.424c0,0-11.361,16.348-20.533,17.235c-12.329,1.192-34.263-39.853-34.263-39.853
				l13.835-9.345l18.95,23.834l6.464-9.66"/>
			<path fill="#D8CAC0" d="M600.833,216.579c-18.33,1.008-31.746,28.313-31.746,28.313l21.463,15.405l12.182-15.89"/>
			
				<line fill="none" stroke="#846A6A" stroke-width="0.75" stroke-miterlimit="10" x1="589.794" y1="259.756" x2="600.176" y2="246.252"/>
			<path fill="none" stroke="#846A6A" stroke-width="0.75" stroke-miterlimit="10" d="M641.396,250.835
				c-1.189-8.59-4.107-15.92-4.107-15.92"/>
		</g>
		<path fill="#FFBC96" d="M599.908,197.991c0,0-2.951,1.418-2.804,1.959c0.147,0.542,1.033,1.851,1.033,1.851"/>
		
			<line fill="none" stroke="#0B2E6B" stroke-width="0.75" stroke-miterlimit="10" x1="576.503" y1="436.239" x2="608.354" y2="436.239"/>
		
			<line fill="none" stroke="#0B2E6B" stroke-width="0.75" stroke-miterlimit="10" x1="617.24" y1="436.509" x2="648.219" y2="436.509"/>
	</g>
</g>
</svg>
