<?xml version="1.0" encoding="utf-8"?>
<!-- Generator: Adobe Illustrator 16.0.0, SVG Export Plug-In . SVG Version: 6.00 Build 0)  -->
<!DOCTYPE svg PUBLIC "-//W3C//DTD SVG 1.1//EN" "http://www.w3.org/Graphics/SVG/1.1/DTD/svg11.dtd">
<svg version="1.1" xmlns="http://www.w3.org/2000/svg" xmlns:xlink="http://www.w3.org/1999/xlink" x="0px" y="0px" width="750px"
	 height="500px" viewBox="0 0 750 500" enable-background="new 0 0 750 500" xml:space="preserve">
<g id="BACKGROUND">
	<rect fill="#F8F9FA" width="750" height="500"/>
</g>
<g id="OBJECTS">
	<g>
		<path fill="none" stroke="#ADBBF9" stroke-linejoin="round" stroke-miterlimit="10" stroke-dasharray="3.5,3.5" d="
			M302.183,376.098c-5.762-19.901-22.244-35.205-43.502-35.719c-12.361-0.299-24.352,5.005-34.876,11.048
			c-14.211,8.16-30.965,18.013-47.967,15.536c-10.891-1.587-23.795-7.699-26.35-20.325c-2.705-13.363,8.093-22.528,19.634-27.903
			c9.888-4.605,23.762-15.619,28.205-26.162c17.621-41.81-31.652-89.53-17.746-137.181c14.553-49.868,81.939-58.299,115.813-24.438
			c3.248,3.247,6.284,6.71,9.046,10.379c6.913,9.18,10.98,21.682,20.589,28.571c12.444,8.916,28.564,6.063,41.966,0.768
			c25.612-10.12,32.386-16.797,57.427-27.696c18.012-7.839,40.196-14.833,60.433-7.867c14.501,4.992,30.518,13.966,38.627,26.959
			c15.081,24.162,8.31,50.191,32.15,84.55c10.802,15.567,27.971,19.932,41.649,31.18c35.463,29.162,23.606,90.638-15.069,111.675
			c-31.758,17.274-70.86,13.328-105.3,8.901c-2.64-0.339-5.276-0.703-7.91-1.09"/>
		<path fill="#E4E9F9" d="M553.606,149.469c2.981-3.399,5.626-7.185,7.83-11.357c2.203-4.172,3.839-8.491,4.966-12.87l-11.822-4.191
			c0.945-4.084,1.311-8.224,1.142-12.316l12.408-1.93c-0.606-9.23-3.381-18.214-8.084-26.18l-11.336,5.402
			c-2.167-3.475-4.803-6.688-7.887-9.528l7.4-10.126c-3.398-2.981-7.185-5.626-11.356-7.83c-4.173-2.204-8.492-3.839-12.87-4.966
			l-4.191,11.822c-4.084-0.946-8.224-1.311-12.315-1.142l-1.931-12.409c-9.229,0.607-18.214,3.381-26.179,8.083l5.401,11.337
			c-3.475,2.167-6.688,4.803-9.528,7.886l-10.127-7.4c-2.98,3.399-5.625,7.185-7.829,11.357c-2.203,4.172-3.839,8.492-4.966,12.87
			l11.822,4.191c-0.945,4.084-1.312,8.224-1.142,12.316l-12.409,1.93c0.607,9.23,3.382,18.214,8.084,26.18l11.337-5.402
			c2.167,3.475,4.803,6.688,7.887,9.528l-7.401,10.127c3.399,2.98,7.186,5.625,11.357,7.829c4.173,2.204,8.491,3.839,12.87,4.966
			l4.19-11.822c4.085,0.946,8.225,1.311,12.316,1.142l1.93,12.409c9.23-0.607,18.215-3.381,26.18-8.084l-5.402-11.336
			c3.476-2.167,6.688-4.802,9.528-7.886L553.606,149.469z M495.628,136.626c-14.367-7.588-19.863-25.386-12.275-39.754
			c7.588-14.367,25.387-19.863,39.754-12.275s19.863,25.386,12.275,39.754C527.794,138.718,509.995,144.214,495.628,136.626z
			 M499.604,129.097c-10.209-5.392-14.114-18.039-8.723-28.248s18.039-14.114,28.248-8.722c10.209,5.392,14.114,18.039,8.722,28.247
			C522.46,130.583,509.813,134.488,499.604,129.097z"/>
		<path fill="#E4E9F9" d="M285.004,177.928c1.627-2.278,3.023-4.774,4.124-7.48c1.1-2.707,1.842-5.468,2.266-8.235l-7.542-1.853
			c0.331-2.575,0.301-5.148-0.056-7.659l7.526-1.954c-0.943-5.649-3.206-11.014-6.595-15.631l-6.652,4.027
			c-1.549-2.007-3.371-3.824-5.446-5.384l3.935-6.695c-2.278-1.627-4.773-3.023-7.48-4.124c-2.707-1.101-5.468-1.842-8.235-2.266
			l-1.854,7.542c-2.575-0.331-5.148-0.301-7.658,0.056l-1.955-7.526c-5.649,0.943-11.014,3.206-15.631,6.595l4.027,6.651
			c-2.007,1.549-3.824,3.372-5.384,5.447l-6.695-3.936c-1.627,2.278-3.023,4.773-4.124,7.48c-1.101,2.707-1.842,5.468-2.266,8.235
			l7.542,1.854c-0.331,2.575-0.3,5.148,0.056,7.658l-7.526,1.955c0.943,5.649,3.206,11.013,6.595,15.631l6.651-4.027
			c1.549,2.007,3.372,3.825,5.447,5.384l-3.936,6.696c2.278,1.627,4.773,3.023,7.48,4.124c2.707,1.1,5.468,1.842,8.235,2.266
			l1.854-7.542c2.575,0.331,5.148,0.301,7.658-0.056l1.954,7.526c5.649-0.943,11.014-3.206,15.631-6.595l-4.027-6.652
			c2.007-1.549,3.825-3.371,5.384-5.446L285.004,177.928z M248.491,173.59c-9.32-3.789-13.803-14.416-10.014-23.736
			s14.416-13.803,23.736-10.014c9.32,3.79,13.804,14.416,10.014,23.736C268.438,172.896,257.811,177.379,248.491,173.59z
			 M250.477,168.706c-6.623-2.692-9.808-10.243-7.116-16.866s10.244-9.808,16.866-7.116c6.623,2.692,9.809,10.244,7.116,16.866
			C264.65,168.212,257.099,171.398,250.477,168.706z"/>
		<path fill="#E4E9F9" d="M314.944,108.57c1.292-1.474,2.438-3.115,3.394-4.923s1.664-3.681,2.153-5.579l-5.125-1.817
			c0.41-1.77,0.568-3.565,0.495-5.338l5.379-0.837c-0.263-4.001-1.466-7.895-3.504-11.348l-4.914,2.341
			c-0.939-1.506-2.082-2.899-3.418-4.13l3.208-4.39c-1.473-1.292-3.114-2.438-4.923-3.394s-3.681-1.664-5.579-2.152l-1.817,5.125
			c-1.771-0.41-3.565-0.568-5.338-0.495l-0.837-5.379c-4.001,0.263-7.896,1.466-11.348,3.504l2.342,4.914
			c-1.506,0.939-2.899,2.082-4.13,3.418l-4.39-3.208c-1.292,1.474-2.438,3.114-3.394,4.923c-0.956,1.809-1.664,3.681-2.153,5.579
			l5.125,1.817c-0.41,1.771-0.568,3.565-0.495,5.339l-5.379,0.836c0.263,4.001,1.466,7.896,3.504,11.348l4.914-2.342
			c0.939,1.506,2.082,2.899,3.418,4.13l-3.208,4.39c1.473,1.292,3.114,2.438,4.923,3.394c1.809,0.956,3.681,1.665,5.579,2.153
			l1.817-5.125c1.771,0.41,3.565,0.568,5.338,0.495l0.837,5.379c4-0.263,7.895-1.465,11.348-3.504l-2.342-4.914
			c1.506-0.939,2.899-2.082,4.13-3.419L314.944,108.57z M291.479,99.846c-4.484-2.368-6.199-7.923-3.831-12.407
			c2.368-4.484,7.923-6.199,12.407-3.831c4.484,2.368,6.199,7.923,3.831,12.407C301.518,100.499,295.963,102.214,291.479,99.846z"/>
		<path fill="#FFFFFF" stroke="#ADBBF9" stroke-linejoin="round" stroke-miterlimit="10" d="M194.108,188.326
			c-0.033-0.667-0.089-1.376-0.172-2.134c-0.686-6.209-4.94-5.639-7.587-5.45c-2.647,0.188-5.938,0.288-7.205-2.6
			c-0.551-1.257-0.527-2.774-0.889-4.132c-0.802-3.011-3.48-4.815-6.038-4.821c-2.558-0.006-4.979,1.461-7.075,3.278
			c-1.088,0.944-2.315,2.05-3.612,1.694c-0.831-0.228-1.48-1.025-1.997-1.863c-3.032-4.922-3.013-12.079-6.333-16.708
			c-3.665-5.109-10.51-5.213-15.144-1.504c-4.634,3.709-7.295,10.318-8.509,16.987c-0.395,2.168-0.735,4.545-2.073,6.025
			c-1.912,2.114-4.839,1.415-7.391,1.128c-2.961-0.332-6.12,0.151-8.523,2.321c-1.959,1.769-3.235,4.866-2.992,7.779H194.108z"/>
		<path fill="#FFFFFF" stroke="#ADBBF9" stroke-linejoin="round" stroke-miterlimit="10" d="M365.398,80.771h84.176
			c0,0-3.375-3.924-7.192-5.262c-4.806-1.684-6.805,3.045-9.837-3.07c-1.701-3.431-2.895-7.948-7.372-9.121
			c-7.002-1.834-8.782,3.953-12.118,2.389c-2.929-1.374-2.838-6.866-5.794-11.458c-2.89-4.488-9.932-7.25-14.735-4.909
			c-8.777,4.277-7.638,11.081-10.512,13.324c-2.837,2.214-9.345-5.58-16.616,2.847C360.385,71.321,365.398,80.771,365.398,80.771z"
			/>
		<circle fill="none" stroke="#ADBBF9" stroke-linejoin="round" stroke-miterlimit="10" cx="449.574" cy="51.849" r="3.695"/>
		<circle fill="none" stroke="#ADBBF9" stroke-linejoin="round" stroke-miterlimit="10" cx="693.002" cy="349.541" r="3.695"/>
		<circle fill="none" stroke="#ADBBF9" stroke-linejoin="round" stroke-miterlimit="10" cx="516.584" cy="196.485" r="3.694"/>
		<circle fill="none" stroke="#ADBBF9" stroke-linejoin="round" stroke-miterlimit="10" cx="59.727" cy="240.288" r="3.695"/>
		<circle fill="none" stroke="#ADBBF9" stroke-linejoin="round" stroke-miterlimit="10" cx="210.416" cy="101.814" r="3.695"/>
		<circle fill="none" stroke="#ADBBF9" stroke-linejoin="round" stroke-miterlimit="10" cx="255.352" cy="85.014" r="2.511"/>
		<circle fill="none" stroke="#ADBBF9" stroke-linejoin="round" stroke-miterlimit="10" cx="664.297" cy="262.763" r="2.511"/>
		<circle fill="none" stroke="#ADBBF9" stroke-linejoin="round" stroke-miterlimit="10" cx="484.382" cy="179.653" r="2.511"/>
		<circle fill="none" stroke="#ADBBF9" stroke-linejoin="round" stroke-miterlimit="10" cx="583.145" cy="116.475" r="2.511"/>
		<circle fill="none" stroke="#ADBBF9" stroke-linejoin="round" stroke-miterlimit="10" cx="577.799" cy="300.419" r="2.512"/>
		<circle fill="none" stroke="#ADBBF9" stroke-linejoin="round" stroke-miterlimit="10" cx="188.085" cy="324.459" r="2.512"/>
		<circle fill="none" stroke="#ADBBF9" stroke-linejoin="round" stroke-miterlimit="10" cx="195.62" cy="209.747" r="2.512"/>
		<path fill="#E4E9F9" d="M682.254,226.844h-3.364c-0.604,0-1.094-0.49-1.094-1.094v-3.365c0-0.604,0.489-1.094,1.094-1.094h3.364
			c0.604,0,1.094,0.49,1.094,1.094v3.365C683.348,226.354,682.858,226.844,682.254,226.844z"/>
		<path fill="#E4E9F9" d="M165.128,342.429h-3.365c-0.604,0-1.094-0.49-1.094-1.094v-3.365c0-0.604,0.49-1.094,1.094-1.094h3.365
			c0.604,0,1.094,0.49,1.094,1.094v3.365C166.222,341.938,165.732,342.429,165.128,342.429z"/>
		<path fill="#E4E9F9" d="M159.283,137.884h-3.364c-0.604,0-1.094-0.49-1.094-1.094v-3.365c0-0.604,0.49-1.094,1.094-1.094h3.364
			c0.604,0,1.094,0.49,1.094,1.094v3.365C160.377,137.395,159.888,137.884,159.283,137.884z"/>
		<path fill="#E4E9F9" d="M590.949,98.18h-6.456c-1.159,0-2.099-0.94-2.099-2.099v-6.457c0-1.159,0.939-2.099,2.099-2.099h6.456
			c1.16,0,2.1,0.94,2.1,2.099v6.457C593.049,97.24,592.109,98.18,590.949,98.18z"/>
		<path fill="#E4E9F9" d="M530.697,259.15h-3.365c-0.604,0-1.094-0.49-1.094-1.094v-3.365c0-0.604,0.49-1.094,1.094-1.094h3.365
			c0.604,0,1.094,0.49,1.094,1.094v3.365C531.791,258.66,531.301,259.15,530.697,259.15z"/>
		<path fill="#FFFFFF" stroke="#ADBBF9" stroke-linejoin="round" stroke-miterlimit="10" d="M454.169,219.313
			c0.028-0.479,0.073-0.988,0.143-1.531c0.563-4.456,4.055-4.046,6.228-3.911s4.875,0.207,5.914-1.865
			c0.452-0.902,0.433-1.99,0.729-2.965c0.658-2.161,2.856-3.455,4.956-3.459c2.098-0.004,4.082,1.045,5.802,2.348
			c5.582,4.228,7.184-6.904,9.826-10.125c3.008-3.667,8.609-5.721,12.413-3.06c3.804,2.661,5.988,7.403,6.984,12.188
			c0.324,1.556,0.44,3.463,1.702,4.323c3.691,2.516,8.442-2.365,12.902,1.425c1.562,1.327,1.857,4.541,1.658,6.631H454.169z"/>
	</g>
	<g>
		<g>
			<path fill="#FFFFFF" d="M178.708,447.908c-12.537-18.913-38.786-66.697-16.035-83.144c12.493-9.03,29.054-0.813,37.061,19.103
				c7.604,18.912,10.513,41.254,13.683,63.774"/>
			<g>
				<path fill="#ADBBF9" d="M178.974,447.753c-6.001-9.19-11.4-18.827-15.876-28.854c-4.849-10.86-9.312-22.954-8.986-35.027
					c0.292-10.812,6.865-21.879,18.76-22.346c15.028-0.591,23.97,15.085,28.258,27.251c6.683,18.961,9.093,39.168,11.879,58.977
					c0.076,0.535,0.889,0.308,0.814-0.225c-2.707-19.256-5.075-38.842-11.312-57.349c-4.142-12.29-11.75-27.111-26.085-29.252
					c-10.617-1.585-19.873,6.223-22.258,16.251c-2.746,11.544,1.11,24.201,5.269,34.918c4.902,12.631,11.473,24.716,19.004,35.967
					C178.66,448.393,179.192,448.088,178.974,447.753L178.974,447.753z"/>
			</g>
		</g>
		
			<line fill="#FFFFFF" stroke="#ADBBF9" stroke-linejoin="round" stroke-miterlimit="10" x1="169.121" y1="361.93" x2="198.676" y2="447.967"/>
		<g>
			<path fill="#FFFFFF" d="M128.44,447.924c-10.815-13.99-34.459-49.337-14.833-61.502c10.777-6.68,24.064-0.602,30.972,14.13
				c6.56,13.99,9.069,30.517,11.804,47.175"/>
			<g>
				<path fill="#ADBBF9" d="M128.707,447.769c-5.013-6.603-9.688-13.495-13.668-20.773c-4.237-7.748-8.386-16.543-8.578-25.544
					c-0.191-8.941,5.751-16.508,14.987-17.274c11.589-0.962,19.728,9.404,23.82,18.944c6.067,14.142,8.235,29.644,10.708,44.718
					c0.087,0.534,0.901,0.308,0.813-0.225c-2.432-14.842-4.586-30.048-10.407-44.025c-3.912-9.394-11.026-19.28-22.064-20.208
					c-8.228-0.691-16.349,4.685-18.16,12.847c-1.91,8.609,1.713,17.907,5.357,25.559c4.472,9.389,10.305,18.179,16.707,26.356
					C128.436,448.415,128.919,448.048,128.707,447.769L128.707,447.769z"/>
			</g>
		</g>
		
			<line fill="#FFFFFF" stroke="#ADBBF9" stroke-linejoin="round" stroke-miterlimit="10" x1="119.17" y1="384.324" x2="144.667" y2="447.967"/>
		<path fill="#FFFFFF" stroke="#ADBBF9" stroke-linejoin="round" stroke-miterlimit="10" d="M254.919,447.726
			c-29.635-53.759-48.775-107.055-24.863-132.374c23.695-25.087,48.479,4.642,54.509,30.985c7.385,32.264,8.457,67.188,8.31,101.389
			"/>
		
			<line fill="none" stroke="#ADBBF9" stroke-linejoin="round" stroke-miterlimit="10" x1="238.83" y1="308.819" x2="274.428" y2="447.646"/>
		<g>
			<path fill="#FFFFFF" d="M210.449,447.895c-11.773-28.438-38.253-85.965-19.578-103.746c11.943-11.372,33.508,2.567,44.605,27.418
				c10.538,23.6,13.703,47.895,20.02,75.994"/>
			<g>
				<path fill="#ADBBF9" d="M210.746,447.813c-5.589-13.666-11.482-27.201-16.394-41.135c-4.93-13.984-9.859-29.119-9.558-44.121
					c0.111-5.512,1.076-11.378,4.413-15.923c3.835-5.224,10.015-7.086,16.209-5.505c7.272,1.856,13.441,7.067,18.292,12.591
					c6.608,7.524,11.044,16.469,14.579,25.77c8.339,21.942,11.694,45.377,16.802,68.184c0.119,0.53,0.932,0.306,0.814-0.224
					c-4.865-21.73-8.134-43.999-15.639-65.043c-5.619-15.757-14.604-33.776-30.923-40.774c-5.25-2.252-11.399-2.821-16.395,0.385
					c-4.492,2.883-7.015,7.834-8.107,12.928c-1.358,6.335-0.903,12.979,0.036,19.339c1.184,8.016,3.298,15.884,5.733,23.602
					c5.4,17.115,12.604,33.564,19.545,50.092C210.302,448.336,210.897,448.182,210.746,447.813L210.746,447.813z"/>
			</g>
		</g>
		<g>
			<path fill="#FFFFFF" d="M440.132,447.734c-9.987-114.445,14.323-156.257,40.918-158.133c12.599-0.889,49.502,6.365,4.945,158.063
				"/>
			<g>
				<path fill="#ADBBF9" d="M440.328,447.734c-2.461-37.684-4.979-76.841,4.735-113.801c4.212-16.023,12.108-36.69,29.375-42.604
					c6.81-2.333,14.55-1.903,20.319,2.702c10.195,8.14,11.779,23.979,12.165,35.986c0.433,13.471-1.032,26.989-3.107,40.28
					c-3.125,20.01-7.825,39.763-13.133,59.296c-1.632,6.004-3.327,11.991-4.978,17.99c-0.104,0.375,0.465,0.528,0.58,0.16
					c6.763-21.714,12.298-43.959,16.43-66.325c2.717-14.706,4.821-29.644,5.039-44.62c0.133-9.109-0.365-18.467-2.908-27.267
					c-1.497-5.183-3.797-10.34-7.595-14.258c-4.892-5.047-11.723-6.865-18.556-5.782c-16.697,2.646-26.144,19.703-31.261,34.158
					c-4.807,13.579-7.14,27.983-8.491,42.28c-1.979,20.938-1.73,42.069-0.49,63.044c0.37,6.263,0.812,12.521,1.484,18.759
					C439.963,447.979,440.345,447.989,440.328,447.734L440.328,447.734z"/>
			</g>
		</g>
		
			<line fill="#FFFFFF" stroke="#ADBBF9" stroke-linejoin="round" stroke-miterlimit="10" x1="486.234" y1="289.866" x2="462.735" y2="447.665"/>
		<g>
			<path fill="#FFFFFF" d="M518.747,447.743c8.147-68.023,35.589-107.227,60.382-96.586c20.28,8.705,9.815,46.572-21.775,96.545"/>
			<g>
				<path fill="#ADBBF9" d="M518.936,447.795c3.072-20.043,6.646-39.885,14.385-58.744c5.127-12.496,12.124-25.973,23.33-34.09
					c7.588-5.497,18.347-7.497,26.163-1.166c9.115,7.384,6.63,21.958,4.072,31.771c-5.815,22.315-18.098,42.371-29.793,61.983
					c-0.199,0.336,0.307,0.623,0.52,0.304c6.794-10.199,12.843-20.986,18.255-31.979c4.22-8.569,8.047-17.4,10.783-26.563
					c3.039-10.174,6.4-24.753-1.122-33.894c-6.026-7.322-16.931-7.781-24.918-3.765c-11.436,5.75-18.988,18.003-24.38,29.119
					c-4.567,9.418-7.994,19.373-10.714,29.469c-3.295,12.23-5.835,24.877-6.965,37.502
					C518.532,447.96,518.902,448.013,518.936,447.795L518.936,447.795z"/>
			</g>
		</g>
		
			<line fill="#FFFFFF" stroke="#ADBBF9" stroke-linejoin="round" stroke-miterlimit="10" x1="579.129" y1="351.157" x2="538.563" y2="447.702"/>
		
			<line fill="#FFFFFF" stroke="#ADBBF9" stroke-linejoin="round" stroke-miterlimit="10" x1="197.326" y1="340.61" x2="233.563" y2="447.967"/>
		<g>
			<path fill="#FFFFFF" d="M521.772,447.869c16.023-33.968,48.337-111.527,24.001-139.028c-13.363-15.101-37.82,3.441-50.792,36.743
				c-12.319,31.625-21.54,64.183-29.185,101.839"/>
			<g>
				<path fill="#ADBBF9" d="M522.039,448.025c8.393-17.647,15.935-35.768,22.022-54.344c6.271-19.138,12.002-39.901,10.726-60.237
					c-0.783-12.47-6.703-32.691-23.012-30.096c-8.83,1.405-16.232,8.345-21.706,14.957c-8.037,9.71-13.231,21.051-17.641,32.757
					c-11.771,31.25-20.383,63.549-27.038,96.248c-0.108,0.53,0.705,0.757,0.813,0.225c5.688-27.938,12.769-55.602,22.099-82.556
					c4.346-12.556,8.699-25.356,15.7-36.725c5.284-8.581,12.235-17.32,21.427-21.939c7.13-3.583,14.945-3.147,20.352,3.132
					c5.075,5.896,7.237,13.766,8.011,21.359c1.969,19.305-3.17,39.266-8.832,57.557c-6.296,20.335-14.455,40.075-23.454,59.35
					C521.339,448.07,521.867,448.385,522.039,448.025L522.039,448.025z"/>
			</g>
		</g>
		
			<line fill="#FFFFFF" stroke="#ADBBF9" stroke-linejoin="round" stroke-miterlimit="10" x1="538.563" y1="304.1" x2="495.714" y2="447.967"/>
		<g>
			<path fill="#FFFFFF" d="M550.063,447.743c21.124-42.821,39.456-54.147,56.677-50.726c13.388,2.66,15.482,22.438-12.816,50.699"/>
			<g>
				<path fill="#ADBBF9" d="M550.231,447.842c6.541-11.652,12.451-23.491,21.15-33.76c5.371-6.341,11.802-12.371,19.688-15.376
					c5.497-2.095,12.745-2.94,18.289-0.473c6.176,2.748,7.208,9.788,5.985,15.774c-2.71,13.278-12.814,23.878-21.634,33.496
					c-0.263,0.286,0.141,0.689,0.425,0.426c8.99-8.329,17.953-19.369,21.388-31.366c1.677-5.856,1.912-13.309-3.314-17.495
					c-4.55-3.645-11.834-3.531-17.234-2.328c-7.854,1.75-14.565,6.756-20.1,12.408c-4.457,4.552-8.316,9.68-11.833,14.98
					c-4.925,7.422-9.604,15.334-13.148,23.516C549.797,447.868,550.104,448.066,550.231,447.842L550.231,447.842z"/>
			</g>
		</g>
		
			<line fill="#FFFFFF" stroke="#ADBBF9" stroke-linejoin="round" stroke-miterlimit="10" x1="605.081" y1="397.304" x2="572.808" y2="447.714"/>
	</g>
	<g>
		<g>
			<path fill="#849CF4" d="M287.248,447.518c-5.145,0-9.331-4.186-9.331-9.331V107.718c0-5.145,4.186-9.331,9.331-9.331h175.504
				c5.146,0,9.331,4.186,9.331,9.331v330.468c0,5.146-4.186,9.331-9.331,9.331H287.248z"/>
			<path fill="#849CF4" d="M462.752,98.887c4.869,0,8.831,3.962,8.831,8.831v330.468c0,4.869-3.962,8.831-8.831,8.831H287.248
				c-4.869,0-8.831-3.962-8.831-8.831V107.718c0-4.869,3.961-8.831,8.831-8.831H462.752 M462.752,97.887H287.248
				c-5.429,0-9.831,4.401-9.831,9.831v330.468c0,5.43,4.401,9.831,9.831,9.831h175.504c5.43,0,9.831-4.401,9.831-9.831V107.718
				C472.583,102.289,468.182,97.887,462.752,97.887L462.752,97.887z"/>
		</g>
		<g>
			<circle fill="none" stroke="#4643BF" stroke-miterlimit="10" cx="375" cy="431.958" r="8.916"/>
		</g>
		<g>
			<defs>
				<path id="SVGID_1_" d="M462.752,448.018H287.248c-5.429,0-9.831-4.401-9.831-9.831V107.718c0-5.43,4.401-9.831,9.831-9.831
					h175.504c5.43,0,9.831,4.401,9.831,9.831v330.468C472.583,443.616,468.182,448.018,462.752,448.018z"/>
			</defs>
			<clipPath id="SVGID_2_">
				<use xlink:href="#SVGID_1_"  overflow="visible"/>
			</clipPath>
			<g clip-path="url(#SVGID_2_)">
				<linearGradient id="SVGID_3_" gradientUnits="userSpaceOnUse" x1="223.0815" y1="404.748" x2="515.7789" y2="112.0507">
					<stop  offset="0.2704" style="stop-color:#FFFFFF;stop-opacity:0.1"/>
					<stop  offset="1" style="stop-color:#FFFFFF;stop-opacity:0.3"/>
				</linearGradient>
				<polygon fill="url(#SVGID_3_)" points="421.229,59.953 275.18,456.847 317.632,456.847 463.681,59.953 				"/>
				<linearGradient id="SVGID_4_" gradientUnits="userSpaceOnUse" x1="272.5474" y1="398.6357" x2="553.0177" y2="118.1654">
					<stop  offset="0.2704" style="stop-color:#FFFFFF;stop-opacity:0.1"/>
					<stop  offset="1" style="stop-color:#FFFFFF;stop-opacity:0.3"/>
				</linearGradient>
				<polygon fill="url(#SVGID_4_)" points="476.808,59.953 330.758,456.847 348.757,456.847 494.805,59.953 				"/>
			</g>
		</g>
		<rect x="278.973" y="130.497" fill="#FFFFFF" width="192.054" height="284.911"/>
		<g>
			<path fill="none" stroke="#4643BF" stroke-miterlimit="10" d="M364.021,112.414h27.047c0.598,0,1.083,0.485,1.083,1.083l0,0
				c0,0.598-0.485,1.083-1.083,1.083h-27.047c-0.598,0-1.083-0.485-1.083-1.083l0,0
				C362.938,112.899,363.423,112.414,364.021,112.414z"/>
			<circle fill="none" stroke="#4643BF" stroke-miterlimit="10" cx="357.966" cy="113.497" r="1.117"/>
		</g>
		<g>
			<g>
				<rect x="292.096" y="240.83" fill="#D3DBF4" width="82.904" height="83.777"/>
				<g>
					<circle fill="none" stroke="#FFFFFF" stroke-miterlimit="10" cx="333.548" cy="270.68" r="17.164"/>
					<ellipse fill="none" stroke="#FFFFFF" stroke-miterlimit="10" cx="333.548" cy="270.68" rx="11.824" ry="17.163"/>
					<ellipse fill="none" stroke="#FFFFFF" stroke-miterlimit="10" cx="333.548" cy="270.68" rx="4.606" ry="17.163"/>
					<line fill="none" stroke="#FFFFFF" stroke-miterlimit="10" x1="316.384" y1="270.68" x2="350.711" y2="270.68"/>
					<path fill="none" stroke="#FFFFFF" stroke-miterlimit="10" d="M318.182,278.331c3.28-1.096,8.937-1.82,15.366-1.82
						c6.427,0,12.083,0.724,15.363,1.819"/>
					<path fill="none" stroke="#FFFFFF" stroke-miterlimit="10" d="M323.161,284.343c2.954-1.122,6.532-1.779,10.387-1.779
						c3.803,0,7.335,0.64,10.266,1.734"/>
					<path fill="none" stroke="#FFFFFF" stroke-miterlimit="10" d="M318.182,263.121c3.28,1.096,8.937,1.819,15.366,1.819
						c6.427,0,12.083-0.723,15.363-1.818"/>
					<path fill="none" stroke="#FFFFFF" stroke-miterlimit="10" d="M323.161,257.109c2.954,1.122,6.532,1.779,10.387,1.779
						c3.803,0,7.335-0.64,10.266-1.734"/>
				</g>
				<g>
					<rect x="299.148" y="305.199" fill="#E3EAFC" width="68.8" height="4.431"/>
					<rect x="326.831" y="296.96" fill="#E3EAFC" width="41.117" height="4.431"/>
					<rect x="299.148" y="296.96" fill="#E3EAFC" width="23.011" height="4.431"/>
					<rect x="299.148" y="313.438" fill="#E3EAFC" width="68.8" height="4.431"/>
				</g>
			</g>
			<g>
				<rect x="374.914" y="240.83" fill="#F0F1FF" width="82.904" height="83.777"/>
				<g>
					<rect x="381.966" y="255.763" fill="#E4E9F9" width="68.8" height="4.432"/>
					<rect x="381.966" y="264.002" fill="#E4E9F9" width="68.8" height="4.432"/>
					<rect x="381.966" y="272.242" fill="#E4E9F9" width="21.425" height="4.431"/>
					<rect x="409.12" y="272.242" fill="#E4E9F9" width="41.552" height="4.431"/>
					<rect x="381.966" y="280.481" fill="#E4E9F9" width="68.8" height="4.431"/>
					<rect x="381.966" y="288.721" fill="#E4E9F9" width="68.8" height="4.431"/>
					<rect x="381.966" y="296.96" fill="#E4E9F9" width="68.8" height="4.431"/>
					<rect x="430.899" y="305.199" fill="#E4E9F9" width="19.866" height="4.431"/>
					<rect x="381.966" y="305.199" fill="#E4E9F9" width="44.19" height="4.431"/>
					<rect x="381.966" y="313.438" fill="#E4E9F9" width="68.8" height="4.431"/>
					<rect x="432.544" y="247.524" fill="#E4E9F9" width="18.222" height="4.431"/>
					<rect x="381.966" y="247.524" fill="#E4E9F9" width="45.906" height="4.431"/>
				</g>
			</g>
			<g>
				<rect x="292.096" y="324.606" fill="#F0F1FF" width="82.904" height="83.777"/>
				<g>
					<rect x="299.148" y="388.998" fill="#E4E9F9" width="68.8" height="4.431"/>
					<rect x="299.148" y="380.758" fill="#E4E9F9" width="68.8" height="4.432"/>
					<rect x="350.254" y="372.519" fill="#E4E9F9" width="17.693" height="4.431"/>
					<rect x="299.242" y="372.519" fill="#E4E9F9" width="45.283" height="4.431"/>
					<rect x="299.148" y="364.279" fill="#E4E9F9" width="68.8" height="4.431"/>
					<rect x="299.148" y="356.04" fill="#E4E9F9" width="68.8" height="4.431"/>
					<rect x="299.148" y="347.801" fill="#E4E9F9" width="68.8" height="4.431"/>
					<rect x="299.148" y="339.562" fill="#E4E9F9" width="31.968" height="4.431"/>
					<rect x="335.859" y="339.562" fill="#E4E9F9" width="32.089" height="4.431"/>
					<rect x="299.148" y="331.322" fill="#E4E9F9" width="68.8" height="4.431"/>
					<rect x="299.148" y="397.237" fill="#E4E9F9" width="32.064" height="4.431"/>
					<rect x="335.884" y="397.237" fill="#E4E9F9" width="32.064" height="4.431"/>
				</g>
			</g>
			<g>
				<rect x="374.914" y="324.606" fill="#D3DBF4" width="82.904" height="83.777"/>
				<g>
					<g>
						<polygon fill="#C2CFEF" points="433.228,382.266 399.972,381.871 396.248,357.973 436.438,357.901 						"/>
						<polygon fill="#C2CFEF" points="436.438,357.901 396.248,357.973 416.313,341.415 						"/>
						
							<rect x="402.351" y="355.578" transform="matrix(1 -0.0017 0.0017 1 -0.6399 0.7264)" fill="#FFFFFF" width="27.43" height="23.169"/>
						<polygon fill="#E3EAFC" points="396.248,357.973 396.294,384.103 416.367,371.925 						"/>
						<polygon fill="#E3EAFC" points="436.438,357.901 436.484,384.031 416.367,371.924 						"/>
						<polygon fill="#E3EAFC" points="436.484,384.031 396.294,384.103 416.359,367.545 						"/>
						<polyline fill="none" stroke="#D3DBF4" stroke-miterlimit="10" points="396.294,384.103 416.359,367.545 436.484,384.031 
													"/>
						<line fill="none" stroke="#D3DBF4" stroke-miterlimit="10" x1="419.249" y1="369.911" x2="436.438" y2="357.901"/>
					</g>
					<line fill="none" stroke="#D3DBF4" stroke-miterlimit="10" x1="413.481" y1="369.924" x2="396.248" y2="357.973"/>
				</g>
				<rect x="400.334" y="394.087" fill="#E3EAFC" width="32.064" height="4.431"/>
			</g>
			<g>
				<rect x="292.096" y="149.813" fill="#D3DBF4" width="165.809" height="83.588"/>
				<g>
					<rect x="372.664" y="161.832" fill="#E3EAFC" width="78.102" height="5.783"/>
					<rect x="372.664" y="172.585" fill="#E3EAFC" width="78.102" height="5.783"/>
					<rect x="372.664" y="183.338" fill="#E3EAFC" width="78.102" height="5.783"/>
					<rect x="372.664" y="194.092" fill="#E3EAFC" width="78.102" height="5.783"/>
					<rect x="372.664" y="215.598" fill="#E3EAFC" width="78.102" height="5.783"/>
					<rect x="404.091" y="204.845" fill="#E3EAFC" width="46.675" height="5.783"/>
					<rect x="372.664" y="204.845" fill="#E3EAFC" width="26.123" height="5.783"/>
				</g>
				<g>
					<rect x="301.601" y="162.068" fill="#E3EAFC" width="59.078" height="59.077"/>
					<polygon fill="#FFFFFF" points="336.617,180.536 354.595,211.283 318.639,211.283 					"/>
					<polygon fill="#FFFFFF" points="318.399,190.64 322.238,198.035 315.361,211.283 307.684,211.283 					"/>
					<circle fill="#FFFFFF" cx="312.526" cy="178.758" r="3.33"/>
				</g>
			</g>
			<path fill="#D3DBF4" d="M328.238,142.975h93.523c1.469,0,2.66-1.191,2.66-2.66l0,0c0-1.469-1.191-2.66-2.66-2.66h-93.523
				c-1.469,0-2.66,1.191-2.66,2.66l0,0C325.578,141.784,326.769,142.975,328.238,142.975z"/>
			<line fill="none" stroke="#FFFFFF" stroke-miterlimit="10" x1="375" y1="240.83" x2="375" y2="408.384"/>
			<line fill="none" stroke="#FFFFFF" stroke-miterlimit="10" x1="292.096" y1="324.606" x2="457.904" y2="324.606"/>
		</g>
	</g>
	<line fill="none" stroke="#849CF4" stroke-miterlimit="10" x1="96.226" y1="448.018" x2="653.774" y2="448.018"/>
	<g>
		<g>
			<g>
				<g>
					<path fill="#FFCBBD" d="M623.052,420.183l1.736,28.542l-0.928,8.977l-34.028-0.18c-0.858-0.004-1.552-0.704-1.547-1.563l0,0
						c0.003-0.645,0.402-1.22,1.004-1.447l15.18-6.98l-3.427-29.697"/>
					<path fill="#F7471E" d="M586.745,457.143c0.359-1.127,1.02-2.394,1.686-2.68l16.095-6.932
						c8.872,3.596,20.355,0.847,20.355,0.847l0.88,12.118c-0.002,0.401-0.329,0.725-0.729,0.723l-38.017-0.2
						C586.227,461.014,586.733,457.179,586.745,457.143z"/>
					<path fill="none" stroke="#B22B19" stroke-width="0.75" stroke-miterlimit="10" d="M601.042,448.225
						c0.901,1.176,1.665,2.457,2.27,3.811"/>
					<path fill="none" stroke="#B22B19" stroke-width="0.75" stroke-miterlimit="10" d="M599.016,449.437
						c0.935,1.293,1.308,2.04,1.865,3.239"/>
					<path fill="none" stroke="#B22B19" stroke-width="0.75" stroke-miterlimit="10" d="M597.303,450.32
						c0.635,0.853,1.257,2.032,1.749,2.974"/>
				</g>
				
					<line fill="none" stroke="#B22B19" stroke-width="0.75" stroke-miterlimit="10" x1="625.554" y1="458.603" x2="586.579" y2="458.397"/>
				<path fill="none" stroke="#B22B19" stroke-width="0.75" stroke-miterlimit="10" d="M625.202,452.805
					c0,0-9.025,0.063-9.836,5.744"/>
				<path fill="none" stroke="#B22B19" stroke-width="0.75" stroke-miterlimit="10" d="M591.729,453.042c0,0,2.6,3.695,3.112,5.398"
					/>
			</g>
			<path fill="#1473E6" d="M596.315,310.499c0,0-4.89,40.168-3.02,69.338s4.571,63.016,4.571,63.016h29.578
				c0,0-3.834-50.085-3.411-73.534c0.468-25.978,8.408-58.819,8.408-58.819"/>
			<path fill="none" stroke="#121649" stroke-width="0.75" stroke-miterlimit="10" d="M621.445,442.853
				c0,0-3.834-50.085-3.411-73.534c0.468-25.978,8.408-58.819,8.408-58.819"/>
			<g>
				<g>
					<path fill="#FFCBBD" d="M661.915,381.958l27.433,8.824l8.276,3.6l-10.464,32.38c-0.265,0.817-1.142,1.266-1.959,1.002l0,0
						c-0.613-0.198-1.04-0.753-1.075-1.396l-2.063-16.58l-28.483-9.255"/>
					<path fill="#F7471E" d="M685.865,429.59c-0.966-0.684-1.973-1.696-2.045-2.418l-1.739-17.438
						c6.111-7.368,6.965-19.146,6.965-19.146l11.816,2.826c0.382,0.124,0.591,0.533,0.468,0.915l-11.69,36.175
						C689.397,431.255,685.896,429.611,685.865,429.59z"/>
					<path fill="none" stroke="#B22B19" stroke-width="0.75" stroke-miterlimit="10" d="M681.689,413.265
						c1.393-0.504,2.846-0.844,4.317-1.011"/>
					<path fill="none" stroke="#B22B19" stroke-width="0.75" stroke-miterlimit="10" d="M682.23,415.563
						c1.516-0.499,2.34-0.629,3.652-0.798"/>
					<path fill="none" stroke="#B22B19" stroke-width="0.75" stroke-miterlimit="10" d="M682.556,417.463
						c1.004-0.347,2.316-0.584,3.362-0.768"/>
				</g>
				
					<line fill="none" stroke="#B22B19" stroke-width="0.75" stroke-miterlimit="10" x1="698.995" y1="393.04" x2="687.011" y2="430.127"/>
				<path fill="none" stroke="#B22B19" stroke-width="0.75" stroke-miterlimit="10" d="M693.361,391.621
					c0,0-2.669,8.622,2.501,11.113"/>
				<path fill="none" stroke="#B22B19" stroke-width="0.75" stroke-miterlimit="10" d="M683.464,423.599
					c0,0,4.309-1.361,6.087-1.334"/>
			</g>
			<path fill="#1473E6" d="M644.474,311.795c0,0,2.656,11.418,2.656,16.317c0,3.6-1.433,6.046-2.193,8.685
				c-0.325,1.127-0.512,2.276-0.563,3.448c-0.228,5.252-0.533,19.994,2.757,26.998c4.045,8.608,37.685,20.035,37.685,20.035
				l-8.53,25.689c0,0-51.496-12.939-57.918-28.702c-8.962-21.993-6.397-72.471-6.397-72.471"/>
			<path fill="none" stroke="#121649" stroke-width="0.75" stroke-miterlimit="10" d="M624.577,391.623
				c-2.972-2.351-5.177-4.817-6.211-7.357c-8.962-21.993-6.397-72.471-6.397-72.471"/>
			<path fill="none" stroke="#121649" stroke-width="0.75" stroke-miterlimit="10" d="M640.107,310.84
				c0,0,3.022,14.373,3.022,19.272c0,3.665-1.485,6.247-2.234,8.827c-0.304,1.044-0.483,2.113-0.551,3.198
				c-0.322,5.186-0.887,20.224,2.785,27.105c5.092,9.542,40.334,22.104,40.334,22.104"/>
			<path fill="none" stroke="#121649" stroke-width="0.75" stroke-miterlimit="10" d="M607.765,314.604c0,0-0.451,10.367,1,11.611
				s2.864,2.074,2.864,2.074"/>
			
				<line fill="none" stroke="#121649" stroke-width="0.75" stroke-miterlimit="10" x1="680.572" y1="385.76" x2="671.185" y2="411.583"/>
			
				<line fill="none" stroke="#121649" stroke-width="0.75" stroke-miterlimit="10" x1="597.467" y1="437.768" x2="627.072" y2="437.768"/>
			<path fill="none" stroke="#121649" stroke-width="0.75" stroke-miterlimit="10" d="M631.995,312.589
				c0,0,1.845,6.617,10.061,8.567"/>
			<path fill="none" stroke="#121649" stroke-width="0.75" stroke-miterlimit="10" d="M595.366,320c0,0,7.422-2.17,9.703-7.411"/>
		</g>
		<g>
			<path fill="#FFCBBB" d="M613.265,232.479l-1.327,9.309c0,0-0.116,2.579,4.896,4.375c6.075,2.175,9.763-2.5,9.763-2.5
				l-0.403-9.416"/>
			<path fill="#FFCBBB" d="M612.521,220.142c0,0-6.449,10.781-1.969,15.09c4.062,3.908,12.994,1.458,13.807,0.094
				c0.813-1.365,5.897-13.414,3.115-15.071C622.529,217.308,615.284,215.504,612.521,220.142z"/>
			<path fill="none" stroke="#EF977F" stroke-miterlimit="10" d="M612.585,237.244c0,0,4.372,1.402,8.409-0.362"/>
			<g>
				<path fill="#4A1A1A" d="M611.444,213.135c0.847-6.368,8.565-1.604,11.706,1.305c0.943,0.873,6.45,2.491,7.346,3.413
					c0.896,0.921,1.621,2.053,1.856,3.316c0.206,1.107,0.029,2.25-0.24,3.344c-0.483,1.966-1.258,3.847-2.029,5.719
					c-0.842,2.041-2.348,6.101-5.258,5.676c-0.563-0.082-1.178-0.191-1.548-0.625c-0.365-0.427-0.383-1.048-0.32-1.606
					c0.104-0.911,0.381-1.799,0.8-2.614c-0.604,0.162-1.223,0.525-1.801,0.295c-0.191-0.076-0.285-0.262-0.393-0.437
					c-0.383-0.622,0.081-4.738,1.998-6.36c-2.769-1.312-4.936-1.432-7.76-2.62c-2.271-0.956-3.251-2.119-4.063-3.208
					C610.576,217.174,611.188,215.063,611.444,213.135z"/>
			</g>
			<g>
				<path fill="#FFCBBB" d="M623.076,230.69c0.705-0.99,1.795-2.125,2.832-1.093c0.367,0.366,0.472,0.984,0.51,1.568
					c0.126,1.941-1.837,4.422-3.552,3.741c-0.836-0.332-1.071-1.474-1.222-2.406"/>
			</g>
			<path fill="none" stroke="#F7A794" stroke-width="0.5" stroke-miterlimit="10" d="M613.947,224.899c0,0-2.791,2.739-2.793,3.673
				c-0.002,0.934,2.094,1.51,2.094,1.51"/>
			<path fill="#FFFFFF" d="M610.102,230.412l5.001,1.868c0,0-1.164,2.964-4.161,1.604
				C608.804,232.914,610.102,230.412,610.102,230.412z"/>
			<g>
				<g>
					<path fill="#212237" d="M611.828,223.37c-0.153,0.218-0.291,0.445-0.419,0.679c-0.245,0.447,0.447,0.848,0.681,0.398
						c0.138-0.265,0.26-0.534,0.367-0.813C612.605,223.249,612.037,223.073,611.828,223.37L611.828,223.37z"/>
				</g>
			</g>
			
				<path fill="none" stroke="#212237" stroke-width="0.5" stroke-linecap="round" stroke-linejoin="round" stroke-miterlimit="10" d="
				M613.976,222.42c0,0-0.623-1.391-2.113-0.738"/>
			<g>
				<g>
					<path fill="#212237" d="M618.069,226.371c-0.141,0.226-0.265,0.459-0.379,0.699c-0.218,0.459,0.476,0.858,0.682,0.398
						c0.122-0.272,0.234-0.548,0.325-0.833C618.819,226.256,618.271,226.047,618.069,226.371L618.069,226.371z"/>
				</g>
			</g>
			
				<path fill="none" stroke="#212237" stroke-width="0.5" stroke-linecap="round" stroke-linejoin="round" stroke-miterlimit="10" d="
				M618.272,224.072c0,0,1.521-0.17,2.619,1.827"/>
		</g>
		<g>
			<g>
				<g>
					<path fill="#FFCBBD" d="M591.638,191.736c-0.412-5.409,0.317-20.718-0.632-21.122c-0.948-0.403-1.339,4.783-2.056,4.306
						c-0.717-0.476-0.658-8.496-1.714-8.646c-1.43-0.203-1.051,8.014-1.051,8.014s-0.864-8.979-2.156-8.796
						c-0.915,0.129-0.57,7.013-0.77,9.659c-0.149-2.896-0.998-8.285-1.945-8.131c-0.939,0.154-0.755,5.57-0.844,9.17
						c-0.155-2.252-0.606-7.171-1.488-7.069c-0.879,0.101-1.146,12.89-1.163,23.668"/>
				</g>
				<path fill="#FFCBBD" d="M590.275,245.892c0,0-5.806-12.156-9.438-26.334s-2.995-32.609-2.995-32.609l13.64,2.295
					c0,0,0.621,25.725,16.151,51.274"/>
				<path fill="none" stroke="#F7A794" stroke-miterlimit="10" d="M580.659,176.802c1.121,1.707,2.611,3.717,2.539,7.06"/>
				<path fill="none" stroke="#F7A794" stroke-miterlimit="10" d="M588.835,176.152c-1.313,1.169-2.733,4.321-2.048,5.939"/>
			</g>
			<path fill="#ADBBF9" d="M635.535,189.125c1.994-2.341,3.757-4.941,5.215-7.8c1.458-2.859,2.528-5.813,3.253-8.801l-8.082-2.736
				c0.604-2.787,0.813-5.607,0.657-8.388l8.421-1.433c-0.502-6.272-2.477-12.355-5.752-17.728l-7.658,3.784
				c-1.508-2.342-3.331-4.502-5.456-6.404l4.936-6.959c-2.341-1.994-4.941-3.756-7.801-5.215c-2.859-1.458-5.813-2.528-8.802-3.252
				l-2.735,8.082c-2.787-0.604-5.606-0.812-8.388-0.657l-1.434-8.421c-6.271,0.502-12.355,2.477-17.728,5.752l3.784,7.658
				c-2.342,1.507-4.502,3.331-6.403,5.456l-6.96-4.936c-1.994,2.341-3.757,4.941-5.215,7.801c-1.458,2.859-2.528,5.813-3.253,8.801
				l8.082,2.736c-0.604,2.787-0.813,5.606-0.657,8.388l-8.421,1.433c0.502,6.272,2.477,12.355,5.752,17.728l7.658-3.784
				c1.508,2.342,3.331,4.502,5.456,6.404l-4.935,6.959c2.341,1.995,4.941,3.757,7.8,5.215c2.859,1.458,5.813,2.529,8.802,3.253
				l2.735-8.082c2.787,0.604,5.607,0.812,8.388,0.657l1.434,8.421c6.271-0.502,12.355-2.476,17.728-5.752l-3.784-7.658
				c2.342-1.507,4.502-3.331,6.404-5.456L635.535,189.125z M598.087,176.815c-7.56-3.856-10.563-13.11-6.707-20.67
				c3.855-7.561,13.11-10.563,20.671-6.707c7.561,3.855,10.563,13.11,6.707,20.67C614.901,177.668,605.647,180.671,598.087,176.815z
				"/>
			<path fill="#F7471E" d="M612.125,240.47c-4.06,0-10.39-12.979-10.39-12.979l-16.297,12.118c0,0,5.211,16.206,14.044,26.483"/>
			
				<line fill="none" stroke="#B22B19" stroke-width="0.75" stroke-miterlimit="10" x1="603.096" y1="230.083" x2="586.486" y2="242.556"/>
			<g>
				<g>
					<path fill="#FFCBBD" d="M654.284,185.113c-0.871-5.952-3.136-19.969-4.141-20.2c-1.005-0.23-1.415,3.111-1.009,4.472
						c-0.637-2.548-2.397-8.122-3.463-8.084c-1.443,0.051,0.369,8.074,0.369,8.074s-2.424-8.689-3.663-8.283
						c-0.878,0.288,0.666,7.004,0.935,9.645c-0.655-2.825-2.435-7.982-3.34-7.664c-0.898,0.315,0.231,5.616,0.775,9.176
						c-0.547-2.19-1.854-6.954-2.704-6.699c-0.848,0.253,1.362,11.252,2.676,22.221"/>
				</g>
				<path fill="#FFCBBD" d="M651.47,241.063c0,0,3.609-12.978,4.729-27.571c1.12-14.593-2.704-32.634-2.704-32.634l-13.035,4.625
					c0,0,3.849,25.443-7.017,53.298"/>
			</g>
			<path fill="#F7471E" d="M612.125,240.47c0,0,0.791,2.283,5.287,2.513c5.791,0.296,9.012-2.513,9.012-2.513
				s17.262,2.291,18.656,21.149c1.606,21.721,2.05,52.23,2.05,52.23h-53.834c0,0,0.361-34.843,1.495-51.466
				C595.878,246.454,612.125,240.47,612.125,240.47z"/>
			<path fill="#F7471E" d="M645.043,264c6.488-16.875,8.798-29.759,8.798-29.759l-17.284-8.365c0,0-4.114,11.471-10.133,14.595"/>
			
				<line fill="none" stroke="#B22B19" stroke-width="0.75" stroke-miterlimit="10" x1="635.164" y1="229.189" x2="653.102" y2="237.772"/>
			
				<line fill="none" stroke="#B22B19" stroke-width="0.75" stroke-miterlimit="10" x1="593.296" y1="310.87" x2="647.078" y2="310.87"/>
			<path fill="none" stroke="#B22B19" stroke-width="0.75" stroke-miterlimit="10" d="M645.514,262.763c0,0-2.188,4.688-2.424,7.046
				"/>
			<path fill="none" stroke="#B22B19" stroke-width="0.75" stroke-miterlimit="10" d="M598.781,250.364c0,0-3.266,5.539-3.99,12.02"
				/>
			<path fill="none" stroke="#B22B19" stroke-width="0.75" stroke-miterlimit="10" d="M610.077,239.609c0,0,0.925,6.283,7.925,6.283
				c8.595,0,10.298-6.283,10.298-6.283"/>
			<g>
				<path fill="#EF977F" d="M649.135,169.385c-0.006-0.058,0.077,0.101,0.105,0.159l0.128,0.24l0.219,0.49
					c0.146,0.326,0.256,0.663,0.368,0.999c0.205,0.679,0.373,1.363,0.439,2.094c-0.225-0.295-0.384-0.62-0.535-0.945
					c-0.155-0.324-0.27-0.662-0.382-1c-0.101-0.342-0.198-0.684-0.258-1.038l-0.085-0.531l-0.021-0.272l-0.008-0.136
					C649.096,169.42,649.115,169.276,649.135,169.385z"/>
			</g>
		</g>
	</g>
	<g>
		<g>
			<g>
				<g>
					<path fill="#FFCBBD" d="M521.797,418.634l0.939,29.619l-0.963,9.315l-35.313-0.187c-0.892-0.004-1.611-0.731-1.606-1.623l0,0
						c0.004-0.668,0.418-1.265,1.043-1.501l15.752-7.244l-2.379-30.818"/>
					<path fill="#1473E6" d="M483.257,456.989c0.373-1.17,1.059-2.484,1.749-2.781l16.703-7.193
						c9.206,3.731,21.123,0.879,21.123,0.879l0.913,12.575c-0.002,0.416-0.341,0.752-0.758,0.75l-39.451-0.208
						C482.719,461.006,483.245,457.026,483.257,456.989z"/>
					<path fill="none" stroke="#121649" stroke-width="0.75" stroke-miterlimit="10" d="M498.094,447.734
						c0.936,1.22,1.728,2.55,2.354,3.954"/>
					<path fill="none" stroke="#121649" stroke-width="0.75" stroke-miterlimit="10" d="M495.99,448.991
						c0.97,1.343,1.357,2.117,1.937,3.362"/>
					<path fill="none" stroke="#121649" stroke-width="0.75" stroke-miterlimit="10" d="M494.213,449.909
						c0.658,0.885,1.305,2.108,1.815,3.085"/>
				</g>
				
					<line fill="none" stroke="#121649" stroke-width="0.75" stroke-miterlimit="10" x1="523.53" y1="458.504" x2="483.085" y2="458.291"/>
				<path fill="none" stroke="#121649" stroke-width="0.75" stroke-miterlimit="10" d="M523.166,452.486
					c0,0-9.366,0.066-10.208,5.962"/>
				<path fill="none" stroke="#121649" stroke-width="0.75" stroke-miterlimit="10" d="M488.43,452.733c0,0,2.698,3.835,3.229,5.603
					"/>
			</g>
			<path fill="#1473E6" d="M517.702,302.251c0,0,4.297,7.235,5.538,12.633c1.972,8.575-0.004,17.36-0.004,17.36l-0.087,103.541
				h-26.215c0,0-5.817-119.324-3.232-134.751"/>
			<path fill="none" stroke="#121649" stroke-width="0.75" stroke-miterlimit="10" d="M500.935,435.785
				c0,0-5.817-119.324-3.232-134.751"/>
			<g>
				<g>
					<path fill="#FFCBBD" d="M492.845,406.971l11.911,27.136l2.578,9.003l-32.837,12.989c-0.829,0.328-1.767-0.079-2.095-0.908l0,0
						c-0.246-0.621-0.084-1.329,0.407-1.782l11.917-12.593l-13.694-27.711"/>
					<path fill="#1473E6" d="M471.377,456.928c-0.09-1.225,0.057-2.699,0.587-3.233l12.818-12.9
						c9.934,0.031,19.929-7.057,19.929-7.057l5.534,11.328c0.153,0.387-0.036,0.825-0.424,0.979l-36.686,14.511
						C472.375,460.856,471.38,456.967,471.377,456.928z"/>
					<path fill="none" stroke="#121649" stroke-width="0.75" stroke-miterlimit="10" d="M481.695,442.81
						c1.323,0.783,2.554,1.723,3.659,2.791"/>
					<path fill="none" stroke="#121649" stroke-width="0.75" stroke-miterlimit="10" d="M480.213,444.76
						c1.4,0.885,2.048,1.459,3.049,2.398"/>
					<path fill="none" stroke="#121649" stroke-width="0.75" stroke-miterlimit="10" d="M478.905,446.274
						c0.94,0.575,1.996,1.47,2.834,2.187"/>
				</g>
				
					<line fill="none" stroke="#121649" stroke-width="0.75" stroke-miterlimit="10" x1="509.313" y1="443.322" x2="471.703" y2="458.199"/>
				<path fill="none" stroke="#121649" stroke-width="0.75" stroke-miterlimit="10" d="M506.732,437.875c0,0-8.667,3.552-7.25,9.336
					"/>
				<path fill="none" stroke="#121649" stroke-width="0.75" stroke-miterlimit="10" d="M474.591,451.051
					c0,0,3.934,2.553,5.086,3.995"/>
			</g>
			<path fill="#1473E6" d="M472.504,319.125c-13.471,33.106-13.712,36.612-15.931,52.769c-2.276,16.576,22.634,65.387,22.634,65.387
				l23.9-10.554c0,0-15.854-44.66-14.828-52.341c1.888-14.127,18.194-38.233,18.194-38.233s7.742-6.13,9.426-14.271
				c1.683-8.142-2.02-16.669-2.02-16.669"/>
			<path fill="none" stroke="#121649" stroke-width="0.75" stroke-miterlimit="10" d="M497.076,323.028
				c0.35-0.116,10.73-3.382,10.73-3.382"/>
			
				<line fill="none" stroke="#121649" stroke-width="0.75" stroke-miterlimit="10" x1="519.963" y1="316.613" x2="523.377" y2="315.528"/>
			<path fill="none" stroke="#121649" stroke-width="0.75" stroke-miterlimit="10" d="M480.504,318.125
				c0,0-16.653,36.191-18.931,52.769c-2.276,16.576,21.952,64.029,21.952,64.029"/>
			<path fill="none" stroke="#121649" stroke-width="0.75" stroke-miterlimit="10" d="M493.824,358.476
				c5.174-11.379,12.649-22.323,12.649-22.323s7.742-6.13,9.426-14.271"/>
		</g>
		<g>
			<path fill="#FFCBBD" d="M470.237,237.198l6.853,11.926c0,0-4.107,8.886-15.211,4.669l-2.846-6.301L470.237,237.198z"/>
			<path fill="#FFCBBD" d="M452.029,229.128c0,0-3.373,15.863,2.5,18.692c3.054,1.47,11.593,0.561,13.609-2.695
				c1.496-2.416,0.908-13.855-0.923-15.243C460.217,224.579,452.029,229.128,452.029,229.128z"/>
			<g>
				<path fill="#212237" d="M466.9,224.43c-2.566-4.484-7.795-3.591-16.291,1.246c-1.138,0.647-3.615,0.879-3.644,2.188
					c-0.038,1.72,1.201,4.552,3.19,5.121c1.328,0.38,2.031,0.257,3.377-0.056c1.769-0.411,4.129,0.303,4.104,2.38
					c-0.007,0.544-0.167,1.541,0.341,1.735c0.258,0.099,0.921,0.021,1.196,0.03c0.796,0.026,1.229,1.004,1.13,1.794
					c-0.098,0.791,0.404,1.366,0.303,2.156c-0.241,1.871,2.149,3.923,4.03,4.068c1.665,0.128,6.518-0.68,8.819-3.808
					c1.997-2.713,1.743-7.291-1.589-14.106C470.59,224.566,467.787,223.772,466.9,224.43z"/>
			</g>
			<path fill="#FFCBBD" d="M457.483,237.755c0.541-2.54,1.853-2.825,2.984-2.135c1.511,0.92,1.178,4.544,0.618,5.411
				c-1.135,1.756-2.487,2.297-3.255,1.051"/>
			<path fill="none" stroke="#E88872" stroke-width="0.5" stroke-linejoin="round" stroke-miterlimit="10" d="M459.573,248.481
				c1.75-1.455,1.487-4.227,1.487-4.227"/>
			<g>
				<g>
					<path fill="#28364C" d="M452.544,236.708c-0.244,0.547-0.323,1.361,0.131,1.707c0.128,0.098,0.283,0.098,0.418,0.015
						C453.975,237.883,453.052,235.566,452.544,236.708z"/>
				</g>
			</g>
			<path fill="none" stroke="#28364C" stroke-width="0.75" stroke-miterlimit="10" d="M451.823,234.955
				c0.679-0.08,1.874-0.017,2.575,0.544"/>
			<path fill="#FFFFFF" d="M454.749,242.548l-2.563-0.085c0,0-0.104,3.149,1.1,3.209
				C454.616,245.739,454.749,242.548,454.749,242.548z"/>
		</g>
		<g>
			<path fill="#ADBBF9" d="M475.506,246.368c0,0,5.972-1.532,14.421,0.931c7.126,2.077,16.204,7.417,23.031,14.677
				c11.823,12.573,6.371,43.817,6.371,43.817l-15.372-0.582c0,0,2.412-20.077-5.639-28.128c-8.05-8.05-19.413-9.939-19.413-9.939"/>
			<g>
				<path fill="#FFCBBD" d="M410.285,290.26c-4.816,1.338-19.407,2.923-19.643,3.919s4.905,0.506,4.559,1.288
					c-0.346,0.781-8.202,2.071-8.172,3.129c0.042,1.434,8.019-0.317,8.019-0.317s-3.315,0.593-2.919,1.825
					c0.281,0.874,1.632,1.143,4.255,0.892c-1.438,0.324-2.002,1.018-1.691,1.919c0.308,0.893,1.701,0.834,3.177,0.637
					c-1.015,0.229-1.798,0.903-1.143,1.493c0.856,0.771,6.813,0.44,17.362-1.353"/>
			</g>
			<path fill="#ADBBF9" d="M460.324,250.36c0,0,4.113,1.769,8.664,0c4.551-1.769,6.518-3.992,6.518-3.992
				s10.333-0.709,22.909,11.867c12.702,12.702,22.575,48.726,22.575,48.726l-52.063,17.498c0,0-8.904-31.542-12.408-45.903
				C453.017,264.193,460.324,250.36,460.324,250.36z"/>
			<path fill="none" stroke="#525BCE" stroke-width="0.75" stroke-miterlimit="10" d="M497.734,254.93
				c10.406,12.152,23.256,52.031,23.256,52.031"/>
			<path fill="#ADBBF9" d="M460.324,250.36c-6.857,2.625-12.745,9.282-16.362,16.137c-5.924,11.23-9.529,19.377-9.529,19.377
				l-29.853,4.474l1.481,15.923c0,0,20.265-0.601,36.416-3.028c11.477-1.726,20.362-25.515,20.362-25.515"/>
			<path fill="none" stroke="#525BCE" stroke-width="0.75" stroke-miterlimit="10" d="M458.314,251.262
				c0,0,3.304,4.408,11.221,1.439s8.202-6.637,8.202-6.637"/>
			
				<line fill="none" stroke="#525BCE" stroke-width="0.75" stroke-miterlimit="10" x1="459.033" y1="285.912" x2="462.278" y2="279.056"/>
			
				<line fill="none" stroke="#525BCE" stroke-width="0.75" stroke-miterlimit="10" x1="409.25" y1="289.648" x2="410.372" y2="306.046"/>
			
				<line fill="none" stroke="#525BCE" stroke-width="0.75" stroke-miterlimit="10" x1="467.972" y1="321.057" x2="519.963" y2="303.871"/>
		</g>
	</g>
	<g>
		<g>
			<path fill="#FFCBBD" d="M263.208,277.477c0.234,0.154,0.472,0.305,0.709,0.455c2.333,1.477,4.706,2.971,7.354,3.752
				c1.536,0.452,3.207,0.688,4.458,1.686c0.506,0.403,0.941,0.831,1.504,1.157c0.149,0.086,1.625,0.636,1.562,0.481
				c0.216,0.527,0.797,0.788,1.326,1c0.062,0.025,0.128,0.051,0.193,0.038c0.066-0.013,0.125-0.081,0.103-0.144
				c0.191,0.372,0.863,0.536,1.076,0.335c0.212-0.202-0.319-1.142-0.319-1.142s0.36,0.025,0.465-0.095
				c0.172-0.194,0.209-0.469,0.226-0.726c0.162-2.412-0.784-4.874-2.528-6.583"/>
		</g>
		<g>
			<g>
				<path fill="#F49C8E" d="M279.829,282.457c-0.005,0.413,0.24,0.831,0.397,1.205c0.173,0.414,0.347,0.806,0.563,1.197
					c0.098,0.178,0.35,0.052,0.314-0.133c-0.093-0.474-0.25-0.903-0.461-1.337c-0.175-0.358-0.351-0.777-0.689-1.003
					C279.899,282.351,279.83,282.398,279.829,282.457L279.829,282.457z"/>
			</g>
		</g>
		<g>
			<g>
				<path fill="#F49C8E" d="M277.322,282.543c0.89,0.973,1.782,1.885,2.559,2.953c0.083,0.115,0.288,0.053,0.243-0.102
					c-0.382-1.313-1.691-2.115-2.63-3.022C277.38,282.263,277.217,282.428,277.322,282.543L277.322,282.543z"/>
			</g>
		</g>
		<g>
			<line fill="none" stroke="#0E32AE" stroke-miterlimit="10" x1="261.208" y1="461.219" x2="243.44" y2="279.866"/>
			<polyline fill="none" stroke="#0E32AE" stroke-miterlimit="10" points="330.384,461.219 312.617,279.866 243.44,279.866 			"/>
			<line fill="none" stroke="#0E32AE" stroke-miterlimit="10" x1="294.85" y1="461.219" x2="312.617" y2="279.866"/>
			<polyline fill="none" stroke="#0E32AE" stroke-miterlimit="10" points="225.673,461.219 243.44,279.866 312.617,279.866 			"/>
			<line fill="none" stroke="#0E32AE" stroke-miterlimit="10" x1="327.541" y1="435.527" x2="228.19" y2="435.527"/>
			<line fill="none" stroke="#0E32AE" stroke-miterlimit="10" x1="325.23" y1="413.32" x2="230.366" y2="413.32"/>
			<line fill="none" stroke="#0E32AE" stroke-miterlimit="10" x1="323.456" y1="390.503" x2="232.601" y2="390.503"/>
			<line fill="none" stroke="#0E32AE" stroke-miterlimit="10" x1="321.24" y1="368.755" x2="234.732" y2="368.755"/>
			<line fill="none" stroke="#0E32AE" stroke-miterlimit="10" x1="319.1" y1="346.037" x2="236.863" y2="346.037"/>
			<line fill="none" stroke="#0E32AE" stroke-miterlimit="10" x1="316.894" y1="323.523" x2="239.089" y2="323.523"/>
			<line fill="none" stroke="#0E32AE" stroke-miterlimit="10" x1="314.307" y1="302.261" x2="241.246" y2="302.261"/>
		</g>
		<g>
			<path fill="#FFCBBD" d="M259.349,279.409c7.098,0.022,14.195,0.006,21.292-0.049c-0.666-1.201-1.09-1.954-1.85-2.706
				c-0.938-0.929-1.656-1.477-2.645-1.983c-3.301-1.692-6.999-2.604-10.708-2.639"/>
		</g>
		<path fill="#E23917" d="M234.57,230.479c0,0,9.708,25.306,12.133,27.427c2.426,2.121,25.551,13.619,25.551,13.619l-7.088,14.999
			c0,0-27.821-11.113-31.807-14.999s-16.668-18.945-17.943-34.062"/>
		<g>
			<g>
				<g>
					<path fill="#FFCBBD" d="M216.034,395.885l-0.998,27.235l0.843,8.571l32.476-0.012c0.82,0,1.484-0.666,1.484-1.486l0,0
						c0-0.614-0.379-1.165-0.952-1.385l-14.454-6.733l2.327-28.331"/>
					<path fill="#F7471E" d="M251.304,431.332c-0.338-1.077-0.962-2.289-1.596-2.565l-15.328-6.691
						c-8.483,3.391-19.43,0.714-19.43,0.714l-0.897,11.561c0,0.383,0.311,0.693,0.693,0.692l36.283-0.013
						C251.781,435.029,251.315,431.366,251.304,431.332z"/>
					<path fill="none" stroke="#B22B19" stroke-width="0.75" stroke-miterlimit="10" d="M237.702,422.754
						c-0.866,1.117-1.601,2.338-2.184,3.626"/>
					<path fill="none" stroke="#B22B19" stroke-width="0.75" stroke-miterlimit="10" d="M239.63,423.92
						c-0.898,1.229-1.257,1.94-1.795,3.083"/>
					<path fill="none" stroke="#B22B19" stroke-width="0.75" stroke-miterlimit="10" d="M241.26,424.771
						c-0.609,0.811-1.209,1.934-1.683,2.829"/>
				</g>
				
					<line fill="none" stroke="#B22B19" stroke-width="0.75" stroke-miterlimit="10" x1="214.26" y1="432.544" x2="251.457" y2="432.53"/>
				<path fill="none" stroke="#B22B19" stroke-width="0.75" stroke-miterlimit="10" d="M214.623,427.011c0,0,8.613,0.104,9.36,5.529
					"/>
				<path fill="none" stroke="#B22B19" stroke-width="0.75" stroke-miterlimit="10" d="M246.566,427.396
					c0,0-2.499,3.514-2.996,5.138"/>
			</g>
			<path fill="#ADBBF9" d="M208.86,293.505c0,0-3.13,13.879,3.602,30.694c0,0,3.26,17.579,3.523,37.678
				c0.268,20.501-2.461,46.623-2.461,56.379h26.717c0,0,3.275-27.781,3.566-55.781c0.326-31.362-2.329-66.764-2.329-75.902"/>
			<path fill="none" stroke="#525BCE" stroke-width="0.75" stroke-miterlimit="10" d="M236.241,418.256
				c0,0,3.281-28.293,3.575-56.646c0.324-31.146-2.337-65.983-2.337-75.038"/>
			<g>
				<g>
					<path fill="#FFCBBD" d="M261.205,373.72l-0.998,27.235l0.843,8.571l32.476-0.012c0.82,0,1.484-0.666,1.484-1.485l0,0
						c0-0.615-0.379-1.166-0.952-1.386l-14.454-6.733l2.327-28.331"/>
					<path fill="#F7471E" d="M296.475,409.167c-0.338-1.077-0.962-2.289-1.596-2.565l-15.328-6.691
						c-8.483,3.391-19.43,0.714-19.43,0.714l-0.897,11.561c0,0.383,0.311,0.693,0.693,0.692l36.283-0.013
						C296.952,412.864,296.485,409.201,296.475,409.167z"/>
					<path fill="none" stroke="#B22B19" stroke-width="0.75" stroke-miterlimit="10" d="M282.872,400.589
						c-0.866,1.117-1.6,2.338-2.183,3.626"/>
					<path fill="none" stroke="#B22B19" stroke-width="0.75" stroke-miterlimit="10" d="M284.8,401.755
						c-0.898,1.229-1.257,1.94-1.795,3.083"/>
					<path fill="none" stroke="#B22B19" stroke-width="0.75" stroke-miterlimit="10" d="M286.431,402.606
						c-0.609,0.811-1.209,1.934-1.683,2.829"/>
				</g>
				
					<line fill="none" stroke="#B22B19" stroke-width="0.75" stroke-miterlimit="10" x1="259.43" y1="410.379" x2="296.627" y2="410.365"/>
				<path fill="none" stroke="#B22B19" stroke-width="0.75" stroke-miterlimit="10" d="M259.793,404.846c0,0,8.613,0.104,9.36,5.529
					"/>
				<path fill="none" stroke="#B22B19" stroke-width="0.75" stroke-miterlimit="10" d="M291.737,405.23c0,0-2.499,3.514-2.996,5.138
					"/>
			</g>
			<path fill="#ADBBF9" d="M253.868,295.02c0,0,25.673,24.335,31.457,40.182c4.033,11.049-1.828,61.471-1.828,61.471h-25.569
				c0,0,3.116-45.897,1.502-50.635c-1.897-5.57-23.912-24.564-23.912-24.564s-9.389-2.104-13.822-12.089
				c-3.995-9-2.146-19.92-2.146-19.92"/>
			<path fill="none" stroke="#525BCE" stroke-width="0.75" stroke-miterlimit="10" d="M247.868,295.02
				c0,0,26.613,28.131,31.457,40.182c3.68,9.154-1.828,61.471-1.828,61.471"/>
			<path fill="none" stroke="#525BCE" stroke-width="0.75" stroke-miterlimit="10" d="M243.262,328.398
				c-2.017-1.83-5.509-4.973-6.573-5.905c-0.683-0.6-1.464-1.069-2.323-1.367c-2.644-0.917-9.187-3.896-12.669-11.742"/>
			<path fill="none" stroke="#525BCE" stroke-width="0.75" stroke-miterlimit="10" d="M228.773,303.777c0,0,7.656,0.268,10.857,0"/>
			
				<line fill="none" stroke="#525BCE" stroke-width="0.75" stroke-miterlimit="10" x1="208.134" y1="303.777" x2="214.307" y2="303.777"/>
		</g>
		<g>
			<g>
				<g>
					<g>
						<path fill="#FFCBBD" d="M299.748,233.401c2.684-1.224,14.902-6.567,15.189-5.825c0.276,0.714-3.585,3.289-3.157,3.411
							c0.235,0.067,3.693-0.829,5.421-1.677c1.542-0.756,4.141-1.718,4.556-1.089c0.791,1.194-7.719,5.235-7.719,5.235
							s1.505-0.692,2.27,0.239c1.103,1.342-1.231,2.585-1.231,2.585s1.337-0.68,1.779,0.477c0.459,1.201-1.544,2.177-1.544,2.177
							s1.588-0.762,1.79,0.688c0.265,1.905-12.436,6.385-12.436,6.385"/>
					</g>
				</g>
			</g>
			<path fill="#F7471E" d="M237.837,221.042c0,0-2.551,2.026-6.63,1.332c-4.079-0.695-5.069-2.664-5.069-2.664
				s-10.847,1.511-16.062,34.962c-3.665,23.505-2.446,42.62-2.446,42.62h49.453c0,0,1.51-51.107-1.005-60.607"/>
			<path fill="#F7471E" d="M241.729,245.626c0,0,14.65,16.184,28.318,16.184c13.667,0,39.397-14.507,39.397-14.507l-6.146-16.87
				l-29.896,10.723c0,0-15.745-14.709-23.009-17.421c-7.264-2.711-12.555-2.693-12.555-2.693"/>
			<path fill="none" stroke="#B22B19" stroke-width="0.75" stroke-miterlimit="10" d="M257.479,258.087
				c0,0-9.202-7.018-13.643-10.314"/>
			
				<line fill="none" stroke="#B22B19" stroke-width="0.75" stroke-miterlimit="10" x1="300.444" y1="231.457" x2="306.073" y2="249.12"/>
			
				<line fill="none" stroke="#B22B19" stroke-width="0.75" stroke-miterlimit="10" x1="207.479" y1="293.177" x2="257.19" y2="293.177"/>
			<path fill="none" stroke="#B22B19" stroke-width="0.75" stroke-miterlimit="10" d="M248.75,251.462
				c0.484,14.215,0,45.831,0,45.831"/>
		</g>
		<g>
			<path fill="#FFCBBD" d="M226.315,212.421l-1.123,9.025c0,0,8.713,4.569,14.491-0.287v-5.264L226.315,212.421z"/>
			<path fill="#FFCBBD" d="M238.142,198.257c0,0,10.182,12.836,6.459,17.592c-1.935,2.473-8.248,1.88-11.257,0
				c-2.233-1.395-8.467-8.842-7.513-10.746C229.474,197.83,238.142,198.257,238.142,198.257z"/>
			<path fill="#4A1A1A" d="M236.832,200.608c0.167,5.203-0.497,9.854-0.497,9.854l-0.78,16.894c0,0-13.437,1.432-22.03-4.535
				c0,0,2.881-17.751,9.286-23.13c6.092-5.116,14.021-4.746,18.05-1.438c0,0-0.56,1.55-1.312,1.907
				C238.797,200.516,236.832,200.608,236.832,200.608"/>
			<path fill="#FFCBBD" d="M237.712,208.758c-1.243-1.576-2.25-1.325-2.799-0.46c-0.733,1.154,0.736,3.553,1.42,3.962
				c1.386,0.83,2.509,0.743,2.616-0.384"/>
			<path fill="none" stroke="#E88872" stroke-width="0.5" stroke-linejoin="round" stroke-miterlimit="10" d="M239.798,217.43
				c-1.466,0-1.937-1.23-1.937-1.23"/>
			<g>
				<g>
					<path fill="#28364C" d="M240.819,204.767c0.426,0.355,0.826,0.999,0.59,1.472c-0.066,0.134-0.196,0.198-0.342,0.184
						C240.111,206.329,239.929,204.026,240.819,204.767z"/>
				</g>
			</g>
			<path fill="none" stroke="#28364C" stroke-width="0.5" stroke-linecap="round" stroke-miterlimit="10" d="M240.7,203.015
				c-0.959,0-1.565,0.753-1.918,1.507"/>
			<path fill="#FFFFFF" d="M241.596,211.396l2.263-0.726c0,0,0.891,2.78-0.167,3.139
				C242.523,214.206,241.596,211.396,241.596,211.396z"/>
			<g>
				<path fill="#4A1A1A" d="M229.269,196.663c0.898-0.229,1.525-1.167,1.5-2.093s-0.635-1.785-1.453-2.221
					c-0.818-0.436-1.812-0.477-2.705-0.229c-0.341,0.095-0.674,0.231-0.958,0.442c-1.159,0.857-1.129,2.711-0.308,3.896
					c0.336,0.484,0.804,0.91,1.377,1.045c0.574,0.135,1.765-0.07,2.438-0.469"/>
			</g>
		</g>
		<path fill="#FFCBBD" d="M241.901,204.621c0.255,0.139,2.937,1.3,2.955,2.38c0.01,0.609-1.477,1.273-1.477,1.273"/>
		<g>
			<path fill="#FFCBBD" d="M277.155,277.29c1.599,1.725,2.133,3.425,2.779,4.807c0.029,0.063,0.059,0.127,0.061,0.195
				c0.009,0.318-0.469,0.347-0.767,0.234c-0.68-0.258-1.314-0.636-1.865-1.11c-0.218-0.188-0.426-0.394-0.677-0.537
				c-0.457-0.262-1.004-0.292-1.526-0.356c-2.149-0.266-4.313-1.334-5.356-3.232"/>
		</g>
		<g>
			<path fill="#E88872" d="M277.155,277.29c1.099,1.016,1.889,2.343,2.5,3.7l0.471,1.005c0.032,0.125,0.109,0.227,0.079,0.402
				c-0.032,0.186-0.195,0.317-0.319,0.356c-0.257,0.089-0.474,0.063-0.699-0.003c-0.739-0.265-1.406-0.655-1.999-1.157
				c-0.29-0.257-0.525-0.492-0.828-0.606c-0.305-0.125-0.659-0.17-1.027-0.216c-0.75-0.09-1.504-0.258-2.208-0.548
				c-1.402-0.563-2.688-1.564-3.321-2.934c0.813,1.257,2.089,2.103,3.456,2.573c0.692,0.221,1.396,0.392,2.125,0.456
				c0.368,0.039,0.761,0.075,1.151,0.224c0.403,0.146,0.714,0.445,0.979,0.674c0.531,0.472,1.161,0.854,1.816,1.104
				c0.126,0.046,0.302,0.056,0.396,0.02c0.051-0.021,0.048-0.028,0.048-0.028c0.009-0.011-0.035-0.081-0.042-0.134
				c-0.159-0.342-0.294-0.689-0.431-1.034C278.768,279.766,278.101,278.448,277.155,277.29z"/>
		</g>
	</g>
	<g>
		<g>
			<g>
				<path fill="#FFCBBD" d="M106.826,420.183l-0.905,28.542l0.928,8.977l34.028-0.18c0.859-0.004,1.552-0.704,1.548-1.563l0,0
					c-0.003-0.645-0.403-1.219-1.004-1.447l-15.18-6.98l2.292-29.697"/>
				<path fill="#18277A" d="M143.964,457.143c-0.36-1.127-1.02-2.394-1.686-2.68l-16.096-6.932
					c-8.871,3.596-20.355,0.847-20.355,0.847l-0.88,12.118c0.002,0.401,0.329,0.725,0.73,0.723l38.017-0.2
					C144.483,461.014,143.976,457.179,143.964,457.143z"/>
				<path fill="none" stroke="#5565AA" stroke-width="0.75" stroke-miterlimit="10" d="M129.667,448.225
					c-0.902,1.176-1.665,2.457-2.269,3.811"/>
				<path fill="none" stroke="#5565AA" stroke-width="0.75" stroke-miterlimit="10" d="M131.693,449.437
					c-0.934,1.293-1.307,2.04-1.865,3.239"/>
				<path fill="none" stroke="#5565AA" stroke-width="0.75" stroke-miterlimit="10" d="M133.406,450.32
					c-0.634,0.853-1.257,2.032-1.749,2.974"/>
			</g>
			
				<line fill="none" stroke="#5565AA" stroke-width="0.75" stroke-miterlimit="10" x1="105.155" y1="458.604" x2="144.13" y2="458.397"/>
			<path fill="none" stroke="#5565AA" stroke-width="0.75" stroke-miterlimit="10" d="M105.507,452.805c0,0,9.025,0.063,9.836,5.744
				"/>
			<path fill="none" stroke="#5565AA" stroke-width="0.75" stroke-miterlimit="10" d="M138.98,453.042c0,0-2.601,3.695-3.113,5.398"
				/>
		</g>
		<path fill="#ADBBF9" d="M109.976,318.042c0,0,18.085,33.891,23.824,55.205c5.738,21.314-1.895,69.318-1.895,69.318h-28.14
			c0,0,5.613-52.103-1.032-69.318s-30.418-62.521-30.418-62.521"/>
		<path fill="none" stroke="#525BCE" stroke-width="0.75" stroke-miterlimit="10" d="M107.619,442.565c0,0,4.613-54.2,1.806-67.59
			c-2.806-13.389-22.262-44.553-22.262-44.553"/>
		<g>
			<g>
				<path fill="#FFCBBD" d="M74.586,404.309l-16.632,22.923l-4.53,7.806l27.624,19.871c0.698,0.502,1.67,0.343,2.172-0.354l0,0
					c0.376-0.522,0.391-1.223,0.039-1.761l-8.169-14.574l18.435-24.042"/>
				<path fill="#18277A" d="M83.767,456.418c0.373-1.123,0.583-2.535,0.213-3.159l-8.938-15.073
					c-9.29-2.311-16.959-11.288-16.959-11.288l-7.84,9.281c-0.234,0.326-0.16,0.779,0.166,1.014l30.861,22.201
					C81.91,459.854,83.756,456.454,83.767,456.418z"/>
				<path fill="none" stroke="#5565AA" stroke-width="0.75" stroke-miterlimit="10" d="M77.451,440.796
					c-1.42,0.42-2.792,1.008-4.076,1.746"/>
				<path fill="none" stroke="#5565AA" stroke-width="0.75" stroke-miterlimit="10" d="M78.377,442.968
					c-1.517,0.496-2.257,0.881-3.415,1.522"/>
				<path fill="none" stroke="#5565AA" stroke-width="0.75" stroke-miterlimit="10" d="M79.242,444.69
					c-1.014,0.316-2.211,0.903-3.163,1.375"/>
			</g>
			
				<line fill="none" stroke="#5565AA" stroke-width="0.75" stroke-miterlimit="10" x1="51.524" y1="434.77" x2="83.163" y2="457.53"/>
			<path fill="none" stroke="#5565AA" stroke-width="0.75" stroke-miterlimit="10" d="M55.22,430.287c0,0,7.261,5.36,4.575,10.432"
				/>
			<path fill="none" stroke="#5565AA" stroke-width="0.75" stroke-miterlimit="10" d="M82.148,450.17c0,0-4.276,1.458-5.693,2.535"
				/>
		</g>
		<path fill="#ADBBF9" d="M64.896,310.727c-5.358,15.186,0,27.138,0,27.138s18.267,33.388,18.267,40.172
			c0,6.224-23.436,41.683-23.436,41.683l21.431,17.226c0,0,33.663-36.228,33.025-61.299c-0.789-31-17.658-64.919-17.658-64.919"/>
		<path fill="none" stroke="#525BCE" stroke-width="0.75" stroke-miterlimit="10" d="M68.896,311.727
			c-5.358,15.186,1.111,25.421,1.111,25.421s17.156,35.104,17.156,41.889c0,6.224-24.351,43.163-24.351,43.163"/>
		<path fill="none" stroke="#525BCE" stroke-width="0.75" stroke-miterlimit="10" d="M105.661,403.132
			c5.017-9.214,8.739-18.99,8.523-27.486c-0.789-31-17.658-64.919-17.658-64.919"/>
		<path fill="none" stroke="#525BCE" stroke-width="0.75" stroke-miterlimit="10" d="M67.14,323.637c0,0,9.563,0.563,13.313-7.125"
			/>
		<path fill="none" stroke="#525BCE" stroke-width="0.75" stroke-miterlimit="10" d="M103.789,328.023c0,0,2.621,0.29,2.369-1.007
			s-2.369-8.282-2.369-8.282"/>
	</g>
	<g>
		<path fill-rule="evenodd" clip-rule="evenodd" fill="#FFCBBB" d="M115.938,230.159c0.981,6.124,0.207,11.534-5.021,12.347
			c-5.228,0.813-12.487-0.676-13.911-9.405c-0.998-6.121,2.461-11.746,7.689-12.559
			C109.923,219.729,114.957,224.035,115.938,230.159z"/>
		<g>
			<g>
				<path fill="#28364C" d="M111.707,230.214c-0.108,0.562-0.007,1.337,0.49,1.561c0.141,0.063,0.286,0.03,0.393-0.077
					C113.292,231,111.934,229.041,111.707,230.214z"/>
			</g>
		</g>
		
			<path fill="none" stroke="#28364C" stroke-width="0.5" stroke-linecap="round" stroke-linejoin="round" stroke-miterlimit="10" d="
			M109.961,228.826c1.292-0.696,2.521-0.632,3.608-0.247"/>
		<path fill="#FFFFFF" d="M115.102,236.56l-3.407,0.011c0,0-0.205,2.834,1.489,3.125C114.6,239.939,115.102,236.56,115.102,236.56z"
			/>
		<g>
			<path fill-rule="evenodd" clip-rule="evenodd" fill="#FFCBBB" d="M108.151,249.21c0,0-4.074,0.7-7.897-0.344
				c-4.515-1.233-5.799-3.068-5.799-3.068l6.261-13.065l9.66,4.38L108.151,249.21z"/>
		</g>
		<path fill="none" stroke="#EF977F" stroke-miterlimit="10" d="M109.354,242.663c0,0-4.213,0.137-6.394-1.93"/>
		<path fill-rule="evenodd" clip-rule="evenodd" fill="#FFCBBB" d="M114.833,229.972c0,0,2.613,3.836,2.48,4.521
			c-0.133,0.685-2.027,0.984-2.027,0.984"/>
		<g>
			<path fill="#14122D" d="M100.764,238.628c-0.568,0.247-1.253,0.346-1.797,0.408c-1.229,0.141-2.501-0.048-3.603-0.624
				c-2.011-1.05-3.304-3.445-2.849-5.667c0.075-0.364,0.191-0.719,0.25-1.085c0.273-1.709-0.73-3.344-1.011-5.052
				c-0.273-1.657,0.163-3.4,1.097-4.796c0.934-1.396,2.343-2.447,3.912-3.047c1.252-0.479,2.625-0.651,3.664-1.552
				c0.483-0.419,0.924-0.894,1.465-1.234c2.602-1.638,6.309-0.74,8.632,0.985c0.276,0.205,0.551,0.431,0.882,0.52
				c0.571,0.153,1.167-0.085,1.748,0.031c2.229,0.449,3.208,3.742,3.185,5.711c-0.006,0.583-0.15,1.178-0.499,1.645
				c-0.5,0.669-1.354,0.986-2.184,1.088c-1.159,0.142-2.363-0.094-3.496,0.252c-0.796,0.244-1.482,0.757-2.255,1.067
				c-1.193,0.477-2.585,0.432-3.746-0.121c0.232,0.815,0.403,1.669,0.277,2.506c-0.237,1.575-1.567,2.347-2.983,2.738
				c0.466,1.587,0.847,3.58,0.351,5.197C101.65,238.097,101.25,238.417,100.764,238.628z"/>
		</g>
		<path fill="#FFCBBB" d="M102.697,231.119c0,0-1.25-1.523-2.717-0.299c-1.898,1.583,0.574,4.988,2.077,5.546
			c1.504,0.559,1.946-1.108,1.946-1.108"/>
	</g>
	<g>
		<path fill="#ADBBF9" d="M173.747,297.79c1.977-1.667,3.796-3.581,5.399-5.752s2.897-4.474,3.909-6.853l-6.326-3.382
			c0.884-2.229,1.445-4.539,1.699-6.867l7.182-0.029c0.447-5.271-0.354-10.589-2.331-15.496l-6.873,2.085
			c-0.928-2.15-2.144-4.193-3.645-6.063l5.052-5.094c-1.667-1.976-3.582-3.796-5.752-5.399c-2.17-1.603-4.473-2.897-6.853-3.909
			l-3.381,6.326c-2.229-0.884-4.539-1.445-6.867-1.699l-0.03-7.182c-5.271-0.447-10.589,0.354-15.496,2.331l2.084,6.873
			c-2.15,0.928-4.193,2.144-6.063,3.645l-5.093-5.052c-1.976,1.667-3.796,3.582-5.399,5.752c-1.604,2.171-2.897,4.474-3.91,6.853
			l6.327,3.382c-0.884,2.229-1.445,4.539-1.699,6.867l-7.182,0.029c-0.447,5.271,0.354,10.589,2.331,15.496l6.873-2.085
			c0.928,2.15,2.144,4.193,3.644,6.063l-5.051,5.094c1.667,1.977,3.582,3.796,5.752,5.399c2.171,1.603,4.473,2.897,6.853,3.909
			l3.381-6.327c2.229,0.885,4.539,1.445,6.867,1.699l0.03,7.183c5.271,0.446,10.589-0.354,15.496-2.331l-2.084-6.873
			c2.15-0.928,4.193-2.144,6.063-3.645L173.747,297.79z M144.512,282.246c-5.642-4.166-6.837-12.116-2.671-17.758
			c4.166-5.641,12.116-6.837,17.757-2.671c5.642,4.166,6.837,12.116,2.671,17.758C158.104,285.216,150.153,286.412,144.512,282.246z
			"/>
		<g>
			<g>
				<g>
					<path fill="#FFCBBD" d="M153.962,296.241c2.938,0.252,16.206,1.599,16.092,2.386c-0.11,0.758-4.596,1.01-4.425,1.421
						c0.243,0.583,3.625,1.092,5.546,1.202c1.714,0.098,4.45,0.537,4.504,1.288c0.103,1.429-9.295,0.77-9.295,0.77
						c0.031,0.432,10.238-1.181,10.447,0.007c0.302,1.711-10.581,2.553-10.93,2.963c0,0,9.233-3.35,9.456-2.084
						c0.223,1.267-7.947,4.463-10.554,4.512c2.131-0.442,8.41-3.977,8.572-3.054s-5.388,3.335-6.292,3.484
						c-7.428,1.229-15.028,0.502-15.028,0.502"/>
				</g>
			</g>
		</g>
		<path fill="#1473E6" d="M108.313,248.373c0,0-2.852,1.351-7.167-0.523c-4.686-2.036-5.675-4.379-5.675-4.379
			s-25.438,2.253-34.744,72.834l52.088,6.46c0,0,4.193-25.228,3.523-45.645C115.912,264.12,110.862,254.006,108.313,248.373"/>
		<path fill="#1473E6" d="M93.031,276.628c0,0,8.01,26.839,29.65,32.645c19.277,5.172,34.311,5.149,34.311,5.149l2.096-18.095
			c0,0-23.562-4.228-33.257-10.641c-7.382-4.883-8.822-20.525-10.69-26.059c-2.595-7.685-6.828-11.255-6.828-11.255"/>
		<path fill="none" stroke="#121649" stroke-width="0.75" stroke-miterlimit="10" d="M93.394,244.018c0,0,1.596,4.923,9.021,6.536
			c5.423,1.178,7.546-0.439,7.546-0.439"/>
		<path fill="none" stroke="#121649" stroke-width="0.75" stroke-miterlimit="10" d="M114.184,306.23c0,0-19.729-9.114-20.79-34.927
			"/>
		
			<line fill="none" stroke="#121649" stroke-width="0.75" stroke-miterlimit="10" x1="154.71" y1="295.451" x2="152.055" y2="314.215"/>
	</g>
</g>
</svg>
