<?xml version="1.0" encoding="utf-8"?>
<!-- Generator: Adobe Illustrator 16.0.0, SVG Export Plug-In . SVG Version: 6.00 Build 0)  -->
<!DOCTYPE svg PUBLIC "-//W3C//DTD SVG 1.1//EN" "http://www.w3.org/Graphics/SVG/1.1/DTD/svg11.dtd">
<svg version="1.1" xmlns="http://www.w3.org/2000/svg" xmlns:xlink="http://www.w3.org/1999/xlink" x="0px" y="0px" width="3710px"
	 height="3710px" viewBox="0 0 3710 3710" enable-background="new 0 0 3710 3710" xml:space="preserve">
<g id="Background">
	<g>
		<g>
			<rect fill="#F8F9FA" width="3710" height="3710"/>
		</g>
	</g>
</g>
<g id="Illustration">
	<g>
		<linearGradient id="SVGID_1_" gradientUnits="userSpaceOnUse" x1="3469.4346" y1="3625.3867" x2="1544.182" y2="1575.9255">
			<stop  offset="0" style="stop-color:#DAE3FE"/>
			<stop  offset="1" style="stop-color:#E9EFFD"/>
		</linearGradient>
		<path fill="url(#SVGID_1_)" d="M2891.38,2803.151c-71.073,73.259-134.666,116.323-183.355,148.833
			c-474.855,317.065-1017.667,225.68-1185.491,194.444c-270.763-50.395-499.324-85.946-695.7-263.363
			c-446.224-403.146-424.52-1244.137-83.55-1765.095c40.428-61.771,380.882-566.428,924.868-637.539
			c13.306-1.738,23.232-2.729,31.927-3.649c84.153-8.91,605.637-55.935,1030.854,300.312
			c60.867,50.995,158.821,142.977,249.656,283.264C3312.722,1573.312,3313.773,2367.763,2891.38,2803.151z"/>
		<g>
			<g>
				<path fill="#BDD0FB" d="M666.694,1390.149c3.9-13.029,22.718-12.166,25.352,1.177
					c25.466,129.004,102.837,465.182,247.951,651.775c236.281,303.817,372.118,777.633,187.679,1002.966
					C1127.676,3046.067,241.63,2809.8,666.694,1390.149z"/>
				<path opacity="0.43" fill="#FFFFFF" d="M677.411,1572.204c-0.005,4.15,0.32,7.575,0.509,11.274l0.793,10.894l1.824,21.745
					c1.315,14.484,2.854,28.942,4.391,43.401c3.18,28.905,6.719,57.768,10.522,86.599c7.714,57.647,16.987,115.078,27.123,172.356
					c10.056,57.299,21.715,114.315,34.575,171.063c12.91,56.731,26.629,113.304,42.201,169.395
					c30.92,112.22,67.971,222.866,112.692,330.449c22.922,53.545,47.256,106.52,74.61,157.969
					c27.714,51.233,57.623,101.314,91.047,148.991c0.727,1.036,2.155,1.287,3.192,0.561c1.012-0.709,1.275-2.086,0.615-3.116
					l-0.02-0.026c-31.433-48.759-60.189-99.12-86.414-150.783c-26.372-51.599-49.72-104.683-71.652-158.294
					c-21.907-53.641-41.65-108.154-60.152-163.073c-18.482-54.941-34.683-110.62-50.564-166.373
					c-31.297-111.675-56.616-224.977-78.804-338.86c-10.973-56.973-20.798-114.172-29.606-171.532
					c-4.449-28.674-8.636-57.391-12.466-86.156l-5.406-43.185l-2.48-21.611l-1.119-10.807c-0.31-3.546-0.702-7.353-0.845-10.466
					l-0.023-0.515c-0.058-1.254-1.121-2.224-2.374-2.166C678.363,1569.992,677.415,1570.999,677.411,1572.204z"/>
			</g>
			<g>
				<path fill="#91B3FA" d="M1153.91,1290.268c7.132-10.885,24.152-4.961,22.928,7.995
					c-11.839,125.25-32.596,454.648,49.579,665.352c133.798,343.073,129.109,814.644-101.501,970.97
					C1124.916,2934.584,376.821,2476.198,1153.91,1290.268z"/>
				<path fill="#BDD0FB" d="M1114.036,1460.129c-1.142,3.813-1.777,7.039-2.615,10.483l-2.247,10.206l-4.265,20.439
					c-2.748,13.641-5.285,27.319-7.822,40.998c-4.976,27.374-9.609,54.808-13.993,82.285c-8.662,54.97-15.829,110.166-22.169,165.46
					c-6.419,55.288-11.285,110.758-14.973,166.307c-3.639,55.549-6.494,111.174-7.518,166.861
					c-2.262,111.351,1.541,222.932,13.212,333.796c6.421,55.357,14.293,110.578,25.353,165.223
					c11.452,54.545,25.228,108.631,42.894,161.466c0.391,1.171,1.656,1.802,2.825,1.41c1.142-0.381,1.77-1.594,1.439-2.737
					l-0.009-0.029c-15.506-53.295-28.127-107.322-38.069-161.854c-10.1-54.512-17.021-109.561-22.5-164.706
					c-5.45-55.166-8.685-110.54-10.666-165.949c-1.96-55.424-1.62-110.9-0.979-166.36c1.756-110.944,9.45-221.752,20.153-332.24
					c5.471-55.239,12.061-110.375,19.621-165.381c3.734-27.509,7.724-54.986,12.053-82.41l6.814-41.078l3.615-20.496l1.918-10.217
					c0.683-3.335,1.361-6.937,2.076-9.821l0.121-0.488c0.293-1.187-0.43-2.388-1.617-2.681
					C1115.538,1458.329,1114.373,1459.006,1114.036,1460.129z"/>
			</g>
		</g>
		<g>
			<g>
				<g opacity="0.3">
					<path fill="#91B3FA" d="M819.038,834.139c-4.104,0-7.631-3.103-8.067-7.274c-0.956-9.124-1.529-18.425-1.705-27.645
						c-0.085-4.485,3.48-8.191,7.965-8.276c0.054,0,0.106,0,0.158,0c4.413,0,8.032,3.534,8.117,7.966
						c0.166,8.759,0.712,17.594,1.619,26.262c0.469,4.46-2.77,8.457-7.231,8.924C819.606,834.126,819.321,834.139,819.038,834.139z
						 M819.563,763.388c-0.318,0-0.64-0.02-0.964-0.058c-4.453-0.526-7.639-4.564-7.112-9.019
						c1.083-9.149,2.568-18.344,4.414-27.324c0.903-4.395,5.178-7.214,9.591-6.323c4.394,0.904,7.222,5.2,6.319,9.591
						c-1.754,8.537-3.164,17.271-4.192,25.967C827.13,760.352,823.621,763.388,819.563,763.388z M835.651,694.511
						c-0.904,0-1.824-0.152-2.726-0.473c-4.224-1.507-6.43-6.151-4.925-10.377c3.084-8.661,6.584-17.296,10.403-25.665
						c1.866-4.08,6.683-5.872,10.761-4.017c4.08,1.863,5.879,6.682,4.017,10.762c-3.628,7.946-6.95,16.145-9.88,24.37
						C842.118,692.437,838.988,694.511,835.651,694.511z M866.744,630.948c-1.495,0-3.006-0.412-4.359-1.275
						c-3.782-2.411-4.892-7.433-2.481-11.214c4.95-7.757,10.292-15.394,15.881-22.696c2.726-3.557,7.821-4.235,11.385-1.514
						c3.563,2.726,4.239,7.823,1.514,11.387c-5.308,6.935-10.384,14.187-15.083,21.56
						C872.05,629.622,869.426,630.948,866.744,630.948z M911.229,575.916c-2.096,0-4.189-0.806-5.777-2.414
						c-3.153-3.191-3.121-8.334,0.07-11.484c6.528-6.449,13.427-12.712,20.501-18.606c3.443-2.874,8.566-2.411,11.438,1.037
						c2.871,3.446,2.406,8.566-1.039,11.44c-6.726,5.603-13.281,11.554-19.486,17.683
						C915.354,575.136,913.291,575.916,911.229,575.916z M966.776,532.099c-2.714,0-5.365-1.358-6.904-3.832
						c-2.368-3.811-1.2-8.816,2.607-11.187c7.806-4.854,15.92-9.435,24.113-13.609c3.997-2.037,8.886-0.447,10.923,3.55
						c2.037,3.994,0.447,8.886-3.548,10.923c-7.785,3.969-15.493,8.318-22.909,12.931
						C969.723,531.705,968.241,532.099,966.776,532.099z M1264.379,512.763c-1.125,0-2.265-0.234-3.355-0.729
						c-7.942-3.61-16.151-6.923-24.396-9.841c-4.228-1.498-6.441-6.139-4.944-10.364c1.495-4.229,6.137-6.443,10.365-4.946
						c8.684,3.074,17.329,6.561,25.696,10.361c4.084,1.855,5.89,6.672,4.033,10.754
						C1270.417,510.992,1267.466,512.763,1264.379,512.763z M1030.612,501.7c-3.369,0-6.519-2.112-7.678-5.476
						c-1.462-4.241,0.791-8.863,5.03-10.326c8.691-2.998,17.618-5.653,26.534-7.893c4.354-1.073,8.765,1.545,9.856,5.897
						c1.094,4.349-1.548,8.762-5.898,9.856c-8.468,2.125-16.944,4.647-25.197,7.493C1032.382,501.555,1031.489,501.7,1030.612,501.7
						z M1197.079,490.942c-0.536,0-1.08-0.051-1.626-0.161c-8.556-1.742-17.301-3.135-25.99-4.146
						c-4.455-0.521-7.647-4.553-7.129-9.007c0.521-4.454,4.55-7.668,9.008-7.128c9.142,1.065,18.345,2.531,27.348,4.361
						c4.396,0.895,7.234,5.184,6.34,9.578C1204.247,488.287,1200.86,490.942,1197.079,490.942z M1099.638,486.323
						c-4.099,0-7.622-3.093-8.066-7.258c-0.476-4.461,2.755-8.461,7.215-8.94c9.132-0.974,18.429-1.566,27.632-1.758
						c0.057-0.003,0.116-0.003,0.173-0.003c4.406,0,8.023,3.524,8.117,7.95c0.094,4.486-3.465,8.198-7.95,8.29
						c-8.742,0.184-17.572,0.748-26.249,1.675C1100.217,486.308,1099.926,486.323,1099.638,486.323z"/>
					<path fill="#91B3FA" d="M1313.951,540.956c-1.599,0-3.216-0.47-4.628-1.453c-3.438-2.392-6.982-4.748-10.536-7.014
						c-3.783-2.408-4.897-7.43-2.489-11.212c2.408-3.784,7.432-4.904,11.213-2.487c3.739,2.38,7.467,4.86,11.086,7.376
						c3.681,2.561,4.591,7.623,2.031,11.304C1319.05,539.741,1316.521,540.956,1313.951,540.956z"/>
				</g>
				<g opacity="0.3">
					<path fill="#91B3FA" d="M1445.89,750.482c-3.92,0-7.37-2.843-8.011-6.837c-0.661-4.134-1.422-8.324-2.259-12.452
						c-0.892-4.396,1.949-8.683,6.345-9.574c4.414-0.895,8.683,1.951,9.574,6.345c0.881,4.347,1.683,8.759,2.379,13.112
						c0.711,4.429-2.306,8.594-6.734,9.305C1446.749,750.45,1446.315,750.482,1445.89,750.482z"/>
					<path fill="#91B3FA" d="M1133.919,1117.072c-3.736,0-7.487-0.064-11.252-0.19c-4.483-0.152-7.995-3.908-7.844-8.392
						c0.15-4.482,3.929-8.011,8.39-7.846c8.687,0.292,17.367,0.232,25.896-0.187c4.485-0.213,8.29,3.232,8.511,7.712
						c0.22,4.482-3.234,8.293-7.714,8.512C1144.629,1116.941,1139.251,1117.072,1133.919,1117.072z M1080.013,1112.514
						c-0.454,0-0.916-0.039-1.379-0.118c-8.933-1.525-17.899-3.448-26.65-5.713c-4.341-1.123-6.951-5.556-5.827-9.896
						c1.123-4.343,5.563-6.963,9.897-5.827c8.312,2.15,16.829,3.975,25.317,5.428c4.421,0.755,7.392,4.952,6.638,9.371
						C1087.33,1109.718,1083.896,1112.514,1080.013,1112.514z M1192.344,1111.631c-3.829,0-7.237-2.719-7.972-6.617
						c-0.83-4.41,2.071-8.654,6.479-9.486c8.433-1.586,16.91-3.556,25.204-5.859c4.323-1.192,8.798,1.333,9.997,5.654
						c1.199,4.323-1.332,8.8-5.654,9.999c-8.732,2.424-17.663,4.498-26.542,6.17
						C1193.349,1111.587,1192.842,1111.631,1192.344,1111.631z M1013.075,1093.291c-1.031,0-2.078-0.2-3.09-0.615
						c-8.37-3.448-16.695-7.297-24.741-11.437c-3.986-2.053-5.556-6.948-3.503-10.936c2.053-3.99,6.945-5.561,10.937-3.505
						c7.64,3.93,15.544,7.585,23.494,10.858c4.147,1.707,6.125,6.456,4.415,10.603
						C1019.297,1091.395,1016.268,1093.291,1013.075,1093.291z M1258.88,1091.265c-3.141,0-6.133-1.834-7.459-4.902
						c-1.779-4.117,0.116-8.898,4.234-10.678c7.872-3.401,15.709-7.189,23.297-11.256c3.952-2.119,8.876-0.635,10.995,3.321
						c2.117,3.953,0.631,8.873-3.322,10.992c-7.986,4.283-16.238,8.271-24.526,11.853
						C1261.05,1091.048,1259.955,1091.265,1258.88,1091.265z M1319.337,1056.789c-2.512,0-4.987-1.161-6.577-3.347
						c-2.636-3.629-1.832-8.708,1.798-11.345c6.958-5.057,13.785-10.465,20.29-16.074c3.394-2.935,8.521-2.558,11.454,0.844
						c2.93,3.397,2.551,8.524-0.845,11.456c-6.847,5.903-14.03,11.595-21.354,16.915
						C1322.662,1056.285,1320.992,1056.789,1319.337,1056.789z M1370.839,1009.955c-1.909,0-3.825-0.67-5.37-2.033
						c-3.363-2.967-3.684-8.1-0.716-11.463c5.698-6.456,11.185-13.219,16.309-20.109c2.675-3.598,7.759-4.35,11.363-1.669
						c3.598,2.678,4.346,7.763,1.669,11.363c-5.394,7.249-11.168,14.371-17.162,21.163
						C1375.327,1009.025,1373.089,1009.955,1370.839,1009.955z M1410.899,953.007c-1.323,0-2.664-0.324-3.905-1.006
						c-3.932-2.16-5.365-7.097-3.205-11.027c4.147-7.541,8.016-15.342,11.502-23.19c1.821-4.099,6.626-5.944,10.719-4.127
						c4.1,1.82,5.946,6.62,4.125,10.72c-3.672,8.267-7.747,16.483-12.11,24.421C1416.544,951.487,1413.766,953.007,1410.899,953.007
						z M1437.49,888.629c-0.744,0-1.5-0.104-2.25-0.32c-4.311-1.241-6.799-5.742-5.558-10.051c2.375-8.248,4.43-16.706,6.104-25.145
						c0.873-4.4,5.161-7.252,9.547-6.383c4.4,0.872,7.259,5.148,6.385,9.549c-1.764,8.883-3.926,17.788-6.428,26.471
						C1444.267,886.31,1441.019,888.629,1437.49,888.629z M1449.28,820.028c-0.166,0-0.334-0.007-0.502-0.017
						c-4.477-0.272-7.886-4.123-7.611-8.6c0.386-6.32,0.581-12.725,0.581-19.045c0-2.287-0.027-4.571-0.076-6.846
						c-0.097-4.485,3.459-8.201,7.943-8.296c4.538-0.188,8.197,3.458,8.296,7.94c0.052,2.396,0.079,4.794,0.079,7.201
						c0,6.646-0.206,13.388-0.612,20.034C1457.116,816.71,1453.54,820.028,1449.28,820.028z"/>
					<path fill="#91B3FA" d="M951.858,1059.686c-1.614,0-3.243-0.479-4.663-1.475c-3.598-2.529-7.21-5.181-10.735-7.884
						c-3.561-2.729-4.236-7.826-1.508-11.386c2.73-3.56,7.824-4.238,11.387-1.507c3.35,2.566,6.781,5.085,10.195,7.486
						c3.669,2.576,4.555,7.643,1.976,11.313C956.928,1058.483,954.412,1059.686,951.858,1059.686z"/>
				</g>
				<g>
					<path fill="#91B3FA" d="M962.817,965.485c1.024,1.254,2.731,1.722,4.251,1.163l43.36-15.945
						c17.093,13.164,36.409,23.698,57.405,30.915l10.575,44.941c0.371,1.576,1.702,2.743,3.313,2.906l55.133,5.586
						c1.61,0.162,3.147-0.715,3.827-2.184l19.373-41.908c22.019-2.859,43.054-9.306,62.439-18.775l39.282,24.316
						c1.377,0.853,3.143,0.737,4.396-0.286l42.935-35.036c1.255-1.024,1.722-2.731,1.162-4.25l-15.944-43.36
						c13.165-17.093,23.697-36.409,30.914-57.406l44.942-10.576c1.576-0.37,2.743-1.7,2.907-3.312l5.585-55.134
						c0.163-1.61-0.714-3.148-2.184-3.827l-41.909-19.373c-2.859-22.019-9.304-43.054-18.774-62.439l24.317-39.282
						c0.852-1.376,0.737-3.143-0.287-4.397l-35.036-42.933c-1.023-1.256-2.73-1.723-4.251-1.163l-43.359,15.945
						c-17.092-13.165-36.408-23.698-57.406-30.915l-10.575-44.942c-0.371-1.576-1.7-2.744-3.312-2.907l-55.134-5.585
						c-1.611-0.163-3.148,0.714-3.828,2.184l-19.372,41.908c-22.02,2.859-43.055,9.306-62.439,18.775l-39.281-24.316
						c-1.378-0.854-3.145-0.737-4.399,0.286l-42.934,35.036c-1.254,1.023-1.721,2.731-1.162,4.251l15.944,43.359
						c-13.164,17.093-23.698,36.409-30.914,57.406l-44.942,10.575c-1.576,0.37-2.744,1.701-2.906,3.313l-5.585,55.133
						c-0.163,1.611,0.714,3.148,2.184,3.828l41.907,19.373c2.86,22.018,9.306,43.053,18.774,62.438l-24.315,39.282
						c-0.853,1.377-0.736,3.143,0.286,4.398L962.817,965.485z"/>
					<g>
						<path fill="#BDD0FB" d="M1133.773,845.893c-27.153,0-50.995-19.938-55.07-47.583c-4.478-30.388,16.601-58.75,46.985-63.229
							c14.722-2.174,29.405,1.522,41.345,10.396c11.942,8.873,19.716,21.867,21.884,36.587c4.478,30.389-16.6,58.75-46.986,63.229
							C1139.192,845.696,1136.466,845.893,1133.773,845.893z M1133.9,747.472c-2.098,0-4.205,0.152-6.318,0.463
							c-23.297,3.433-39.457,25.183-36.023,48.479c3.434,23.298,25.176,39.468,48.479,36.025
							c23.297-3.433,39.457-25.183,36.025-48.478c-1.664-11.287-7.623-21.249-16.779-28.054
							C1151.841,750.378,1143.007,747.472,1133.9,747.472z"/>
					</g>
					<path fill="#BDD0FB" d="M1134.912,926.346c-4.663,0-9.354-0.234-14.058-0.711l0,0c-1.479-0.149-2.958-0.323-4.434-0.521
						c-7.271-0.974-14.456-2.524-21.439-4.628c-0.096-0.029-0.191-0.058-0.286-0.086c-0.27-0.082-0.539-0.165-0.81-0.251
						c-0.524-0.161-1.048-0.33-1.57-0.498c-1.373-0.443-2.247-1.716-2.248-3.087c0-0.332,0.052-0.672,0.159-1.005
						c0.553-1.707,2.386-2.636,4.092-2.088c8.782,2.846,17.931,4.762,27.19,5.697c45.995,4.667,88.91-15.281,115.637-49.124
						c14.867-18.822,24.724-41.946,27.314-67.528c0.455-4.486,0.681-8.963,0.679-13.41c-0.003-29.936-10.217-58.719-29.398-82.223
						c-22.033-27-53.262-43.806-87.933-47.317c-71.604-7.245-135.701,45.083-142.951,116.653c-0.447,4.413-0.669,8.833-0.667,13.238
						c0.003,19.096,4.185,37.978,12.311,55.277c0.209,0.447,0.31,0.916,0.308,1.38c0,1.218-0.69,2.389-1.867,2.94
						c-1.627,0.758-3.56,0.069-4.322-1.561c-8.53-18.162-12.923-37.987-12.926-58.033c-0.002-4.626,0.232-9.264,0.699-13.896
						c7.61-75.143,74.955-130.072,150.069-122.465c36.399,3.687,69.182,21.328,92.313,49.674
						c20.138,24.675,30.859,54.893,30.864,86.318c0,4.67-0.237,9.368-0.712,14.076c-3.688,36.4-21.329,69.184-49.673,92.314
						C1196.571,915.626,1166.345,926.346,1134.912,926.346z"/>
				</g>
			</g>
			<g>
				<g opacity="0.3">
					<path fill="#91B3FA" d="M541.891,1048.164c-2.17,0-4.169-1.416-4.811-3.605c-1.2-4.086-2.292-8.264-3.246-12.418
						c-0.619-2.699,1.065-5.389,3.768-6.011c2.701-0.632,5.391,1.068,6.011,3.767c0.909,3.959,1.949,7.94,3.094,11.841
						c0.781,2.655-0.742,5.442-3.399,6.227C542.833,1048.1,542.358,1048.164,541.891,1048.164z"/>
					<path fill="#91B3FA" d="M534.466,1010.299c-2.541,0-4.722-1.926-4.983-4.508c-0.745-7.294-1.122-14.71-1.122-22.038
						c0-1.543,0.018-3.091,0.049-4.645c0.063-2.772,2.501-4.863,5.122-4.913c2.77,0.059,4.967,2.352,4.911,5.119
						c-0.032,1.484-0.05,2.964-0.05,4.438c0,6.99,0.36,14.063,1.068,21.02c0.281,2.758-1.725,5.217-4.479,5.501
						C534.807,1010.288,534.636,1010.299,534.466,1010.299z M535.568,958.227c-0.237,0-0.479-0.015-0.719-0.049
						c-2.744-0.396-4.647-2.939-4.253-5.683c1.264-8.798,3.086-17.596,5.415-26.144c0.728-2.675,3.498-4.242,6.158-3.522
						c2.675,0.73,4.249,3.483,3.521,6.157c-2.222,8.157-3.958,16.548-5.165,24.939C540.166,956.424,538.023,958.227,535.568,958.227
						z M549.266,907.978c-0.637,0-1.283-0.123-1.909-0.377c-2.562-1.054-3.781-3.988-2.728-6.55
						c3.38-8.206,7.309-16.293,11.683-24.027c1.364-2.415,4.416-3.263,6.836-1.896c2.411,1.362,3.261,4.425,1.899,6.834
						c-4.172,7.378-7.92,15.083-11.141,22.91C553.107,906.807,551.236,907.978,549.266,907.978z M574.896,862.631
						c-1.038,0-2.084-0.323-2.982-0.984c-2.225-1.65-2.692-4.795-1.041-7.02c5.297-7.142,11.083-14.015,17.2-20.432
						c1.914-2.003,5.091-2.072,7.092-0.167c2.005,1.91,2.081,5.085,0.168,7.094c-5.831,6.113-11.352,12.672-16.402,19.481
						C577.946,861.931,576.433,862.631,574.896,862.631z M610.825,824.922c-1.45,0-2.891-0.626-3.882-1.837
						c-1.757-2.141-1.442-5.3,0.698-7.059c6.868-5.629,14.146-10.889,21.637-15.631c2.342-1.489,5.439-0.789,6.922,1.553
						c1.481,2.342,0.786,5.442-1.553,6.921c-7.147,4.527-14.092,9.543-20.643,14.917
						C613.071,824.55,611.944,824.922,610.825,824.922z M654.812,797.079c-1.878,0-3.682-1.063-4.538-2.876
						c-1.184-2.503-0.11-5.491,2.393-6.676c8.029-3.792,16.371-7.118,24.792-9.881c2.643-0.857,5.467,0.573,6.331,3.203
						c0.864,2.631-0.571,5.467-3.201,6.329c-8.031,2.636-15.981,5.805-23.636,9.42C656.259,796.927,655.529,797.079,654.812,797.079
						z M704.258,780.84c-2.352,0-4.451-1.66-4.918-4.051c-0.532-2.719,1.241-5.354,3.96-5.888c8.686-1.7,17.592-2.876,26.472-3.498
						c2.773-0.147,5.163,1.896,5.354,4.658c0.194,2.763-1.89,5.159-4.653,5.354c-8.472,0.588-16.966,1.71-25.246,3.331
						C704.899,780.811,704.576,780.84,704.258,780.84z M782.138,780.203c-0.29,0-0.586-0.024-0.883-0.078
						c-7.201-1.278-14.597-2.185-21.987-2.693c-1.119-0.084-2.218-0.152-3.315-0.207c-2.769-0.146-4.894-2.503-4.749-5.271
						c0.14-2.772,2.52-4.977,5.268-4.751c1.172,0.063,2.34,0.132,3.513,0.22c7.721,0.534,15.475,1.484,23.025,2.826
						c2.729,0.485,4.546,3.087,4.062,5.815C786.639,778.494,784.525,780.203,782.138,780.203z"/>
				</g>
				<g opacity="0.3">
					<path fill="#91B3FA" d="M747.962,1200.181c-2.738,0-4.977-2.205-5.014-4.952c-0.036-2.769,2.181-5.046,4.951-5.08
						c8.339-0.108,16.743-0.726,24.978-1.837c2.73-0.344,5.272,1.553,5.643,4.301s-1.558,5.271-4.301,5.643
						c-8.637,1.161-17.446,1.813-26.188,1.926C748.031,1200.181,747.984,1200.181,747.962,1200.181z M722.328,1198.971
						c-0.181,0-0.359-0.01-0.544-0.03c-8.682-0.93-17.397-2.399-25.9-4.364c-2.699-0.627-4.382-3.316-3.758-6.015
						c0.623-2.705,3.331-4.375,6.017-3.762c8.114,1.876,16.43,3.276,24.715,4.168c2.753,0.294,4.746,2.768,4.45,5.521
						C727.031,1197.064,724.855,1198.971,722.328,1198.971z M798.72,1193.322c-2.225,0-4.258-1.489-4.851-3.742
						c-0.703-2.675,0.896-5.418,3.576-6.123c8.07-2.126,16.077-4.757,23.802-7.828c2.584-1.014,5.491,0.235,6.513,2.812
						c1.024,2.572-0.235,5.491-2.81,6.515c-8.097,3.219-16.493,5.977-24.953,8.201
						C799.568,1193.269,799.141,1193.322,798.72,1193.322z M672.404,1187.399c-0.57,0-1.15-0.097-1.719-0.303
						c-8.21-2.993-16.317-6.525-24.094-10.498c-2.469-1.259-3.446-4.281-2.188-6.75c1.26-2.459,4.282-3.438,6.748-2.185
						c7.416,3.786,15.145,7.151,22.972,10.008c2.602,0.95,3.943,3.83,2.993,6.432
						C676.375,1186.137,674.452,1187.399,672.404,1187.399z M846.309,1174.399c-1.776,0-3.498-0.945-4.406-2.611
						c-1.33-2.435-0.435-5.481,1.996-6.809c7.306-3.987,14.443-8.465,21.215-13.314c2.256-1.616,5.389-1.093,7,1.161
						c1.612,2.253,1.093,5.389-1.16,7c-7.103,5.08-14.585,9.777-22.244,13.961C847.944,1174.203,847.119,1174.399,846.309,1174.399z
						 M887.97,1144.611c-1.358,0-2.71-0.549-3.7-1.627c-1.871-2.042-1.733-5.217,0.309-7.088
						c6.152-5.639,12.016-11.697,17.427-18.007c1.806-2.106,4.974-2.347,7.073-0.544c2.104,1.803,2.347,4.967,0.544,7.068
						c-5.673,6.618-11.818,12.972-18.265,18.88C890.395,1144.176,889.181,1144.611,887.97,1144.611z M921.3,1105.697
						c-0.954,0-1.92-0.27-2.774-0.843c-2.308-1.533-2.932-4.648-1.396-6.956c4.627-6.94,8.863-14.23,12.594-21.661
						c1.244-2.469,4.26-3.474,6.733-2.229c2.477,1.244,3.475,4.257,2.231,6.735c-3.914,7.789-8.356,15.436-13.206,22.719
						C924.514,1104.913,922.921,1105.697,921.3,1105.697z"/>
					<path fill="#91B3FA" d="M626.564,1163.98c-0.967,0-1.944-0.279-2.807-0.862c-3.558-2.405-7.057-4.929-10.407-7.495
						c-2.197-1.686-2.616-4.835-0.932-7.034c1.688-2.189,4.833-2.611,7.035-0.931c3.194,2.449,6.534,4.854,9.927,7.152
						c2.296,1.552,2.895,4.673,1.342,6.965C629.753,1163.206,628.174,1163.98,626.564,1163.98z"/>
				</g>
				<g>
					<path fill="#91B3FA" d="M630.734,1099.18c0.685,0.839,1.827,1.152,2.844,0.777l29.016-10.669
						c11.438,8.809,24.362,15.857,38.412,20.687l7.077,30.072c0.248,1.056,1.139,1.836,2.216,1.945l36.894,3.737
						c1.078,0.109,2.106-0.478,2.561-1.461l12.964-28.043c14.733-1.913,28.81-6.227,41.781-12.563l26.286,16.272
						c0.921,0.57,2.103,0.492,2.943-0.192l28.729-23.444c0.84-0.686,1.152-1.828,0.778-2.845l-10.67-29.015
						c8.809-11.438,15.857-24.363,20.687-38.413l30.073-7.076c1.055-0.249,1.836-1.139,1.945-2.217l3.736-36.893
						c0.11-1.079-0.477-2.107-1.461-2.562l-28.043-12.964c-1.912-14.733-6.226-28.81-12.563-41.781l16.271-26.286
						c0.569-0.921,0.493-2.103-0.192-2.941l-23.444-28.73c-0.685-0.84-1.827-1.151-2.844-0.777l-29.015,10.67
						c-11.438-8.81-24.363-15.858-38.414-20.687l-7.076-30.074c-0.248-1.055-1.138-1.836-2.216-1.945l-36.894-3.737
						c-1.078-0.108-2.106,0.478-2.562,1.462l-12.963,28.043c-14.733,1.913-28.81,6.227-41.782,12.563l-26.285-16.271
						c-0.922-0.571-2.104-0.493-2.942,0.191l-28.729,23.444c-0.839,0.686-1.152,1.827-0.778,2.845l10.67,29.015
						c-8.81,11.438-15.858,24.363-20.687,38.413l-30.074,7.076c-1.054,0.248-1.835,1.139-1.943,2.217l-3.738,36.893
						c-0.108,1.078,0.478,2.106,1.461,2.562l28.044,12.964c1.913,14.733,6.226,28.809,12.563,41.781l-16.271,26.285
						c-0.571,0.922-0.493,2.103,0.19,2.943L630.734,1099.18z"/>
					<g>
						<path fill="#BDD0FB" d="M745.074,1019.825c-8.092,0-15.938-2.581-22.552-7.494c-8.135-6.045-13.428-14.896-14.904-24.924
							c-3.052-20.691,11.303-40.012,32.002-43.068c20.73-3.018,40.021,11.311,43.071,32.007c1.479,10.028-1.037,20.03-7.082,28.162
							c-6.044,8.137-14.896,13.432-24.926,14.906C748.811,1019.688,746.935,1019.825,745.074,1019.825z M745.17,953.965
							c-1.35,0-2.713,0.098-4.088,0.299c-15.224,2.248-25.783,16.459-23.54,31.684c1.088,7.372,4.98,13.888,10.964,18.33
							c5.986,4.448,13.341,6.29,20.719,5.213l0,0c7.374-1.088,13.887-4.982,18.332-10.964c4.448-5.986,6.298-13.343,5.21-20.721
							C770.727,963.958,758.775,953.965,745.17,953.965z"/>
					</g>
					<path fill="#BDD0FB" d="M745.796,1075.826c-3.176,0-6.374-0.162-9.598-0.485c-6.4-0.646-12.741-1.944-18.861-3.864
						c-0.274-0.089-0.548-0.177-0.822-0.266c-2.122-0.686-3.472-2.649-3.474-4.767c0-0.514,0.08-1.038,0.247-1.552
						c0.853-2.636,3.685-4.066,6.316-3.224c5.697,1.847,11.619,3.086,17.601,3.688h0.003c0.328,0.035,0.658,0.064,0.984,0.093
						c14.169,1.299,28.125-0.983,40.854-6.471c6.909-2.979,13.459-6.907,19.481-11.731c0.049-0.039,0.098-0.079,0.147-0.118
						c0.149-0.122,0.299-0.24,0.445-0.362c17.479-14.265,28.358-34.48,30.631-56.926c0.297-2.904,0.44-5.8,0.44-8.681
						c-0.002-19.379-6.615-38.013-19.032-53.232c-14.265-17.478-34.481-28.353-56.924-30.625
						c-22.431-2.264-44.433,4.33-61.913,18.59c-17.478,14.264-28.357,34.48-30.631,56.926c-0.291,2.855-0.434,5.717-0.434,8.567
						c0.004,12.364,2.709,24.586,7.97,35.784c0.324,0.69,0.479,1.415,0.477,2.131c0,1.881-1.066,3.688-2.884,4.541
						c-2.51,1.171-5.494,0.103-6.674-2.41c-5.885-12.53-8.915-26.207-8.92-40.036c0-3.193,0.159-6.393,0.482-9.587
						c2.544-25.114,14.715-47.731,34.272-63.69c19.555-15.955,44.141-23.361,69.263-20.8c25.112,2.543,47.729,14.711,63.687,34.271
						c13.894,17.022,21.291,37.871,21.293,59.552c0,3.219-0.161,6.462-0.489,9.709
						C834.807,1039.469,793.648,1075.826,745.796,1075.826z"/>
				</g>
			</g>
		</g>
		<g>
			<g>
				<circle fill="#1473E6" cx="2378.059" cy="1322.354" r="765.744"/>
				<g>
					<circle fill="#1473E6" cx="2378.06" cy="1322.354" r="653.533"/>
					<linearGradient id="SVGID_2_" gradientUnits="userSpaceOnUse" x1="1706.4248" y1="1322.3535" x2="3049.6953" y2="1322.3535">
						<stop  offset="0" style="stop-color:#DAE3FE"/>
						<stop  offset="1" style="stop-color:#E9EFFD"/>
					</linearGradient>
					<path fill="url(#SVGID_2_)" d="M2378.06,1993.99c-370.341,0-671.635-301.295-671.635-671.636
						c0-370.344,301.294-671.639,671.635-671.639s671.636,301.295,671.636,671.639
						C3049.695,1692.695,2748.4,1993.99,2378.06,1993.99z M2378.06,686.923c-350.377,0-635.43,285.052-635.43,635.432
						c0,350.377,285.053,635.43,635.43,635.43s635.43-285.053,635.43-635.43C3013.489,971.975,2728.437,686.923,2378.06,686.923z"/>
				</g>
				<g>
					<circle fill="#1473E6" cx="2378.059" cy="1322.354" r="398.426"/>
					<linearGradient id="SVGID_3_" gradientUnits="userSpaceOnUse" x1="1961.5293" y1="1322.3535" x2="2794.5869" y2="1322.3535">
						<stop  offset="0" style="stop-color:#DAE3FE"/>
						<stop  offset="1" style="stop-color:#E9EFFD"/>
					</linearGradient>
					<path fill="url(#SVGID_3_)" d="M2378.06,1738.882c-229.676,0-416.53-186.854-416.53-416.527
						c0-229.677,186.854-416.53,416.53-416.53c229.674,0,416.527,186.854,416.527,416.53
						C2794.587,1552.028,2607.733,1738.882,2378.06,1738.882z M2378.06,942.03c-209.713,0-380.324,170.611-380.324,380.324
						c0,209.71,170.611,380.321,380.324,380.321c209.71,0,380.321-170.611,380.321-380.321
						C2758.381,1112.642,2587.77,942.03,2378.06,942.03z"/>
				</g>
				<g>
					<circle fill="#1473E6" cx="2378.059" cy="1322.354" r="154.362"/>
					<linearGradient id="SVGID_4_" gradientUnits="userSpaceOnUse" x1="2205.5938" y1="1322.3535" x2="2550.5225" y2="1322.3535">
						<stop  offset="0" style="stop-color:#DAE3FE"/>
						<stop  offset="1" style="stop-color:#E9EFFD"/>
					</linearGradient>
					<path fill="url(#SVGID_4_)" d="M2378.06,1494.817c-95.097,0-172.466-77.368-172.466-172.463
						c0-95.098,77.369-172.466,172.466-172.466c95.095,0,172.463,77.368,172.463,172.466
						C2550.522,1417.449,2473.154,1494.817,2378.06,1494.817z M2378.06,1186.095c-75.133,0-136.26,61.126-136.26,136.26
						c0,75.131,61.127,136.257,136.26,136.257c75.131,0,136.258-61.126,136.258-136.257
						C2514.317,1247.221,2453.19,1186.095,2378.06,1186.095z"/>
				</g>
			</g>
			<g>
				
					<linearGradient id="SVGID_5_" gradientUnits="userSpaceOnUse" x1="-3.0024" y1="4730.6973" x2="-198.3875" y2="5524.4463" gradientTransform="matrix(-0.7071 -0.7071 0.7071 -0.7071 -1192.2578 4633.1738)">
					<stop  offset="0" style="stop-color:#09005D"/>
					<stop  offset="1" style="stop-color:#1A0F91"/>
				</linearGradient>
				<polygon fill="url(#SVGID_5_)" points="3115.723,565.976 3132.992,583.245 2479.038,1237.199 2461.768,1219.93 				"/>
				<linearGradient id="SVGID_6_" gradientUnits="userSpaceOnUse" x1="2543.0244" y1="3704.7168" x2="2455.5835" y2="1849.0193">
					<stop  offset="0" style="stop-color:#FF928E"/>
					<stop  offset="1" style="stop-color:#FE7062"/>
				</linearGradient>
				<path fill="url(#SVGID_6_)" d="M2474,1178.261c9.907-9.908,56.614,36.8,46.707,46.707l-173.235,136.19
					c-6.4,5.031-14.694-3.262-9.662-9.662L2474,1178.261z"/>
				<path fill="#91B3FA" d="M3132.619,583.618l87.977,8.744L3099.82,713.139c-39.571,39.571-94.805,59.306-150.493,53.771l0,0
					L3132.619,583.618z"/>
				<path fill="#91B3FA" d="M3115.349,566.349l-8.744-87.977l-120.775,120.775c-39.571,39.571-59.307,94.805-53.771,150.492l0,0
					L3115.349,566.349z"/>
			</g>
		</g>
		<g>
			<linearGradient id="SVGID_7_" gradientUnits="userSpaceOnUse" x1="2379.832" y1="517.2871" x2="2209.0061" y2="1125.8557">
				<stop  offset="0" style="stop-color:#FF928E"/>
				<stop  offset="1" style="stop-color:#FE7062"/>
			</linearGradient>
			<path fill="url(#SVGID_7_)" d="M2433.784,853.011l-77.626-33.53c-6.037-2.607-12.971-2.078-18.541,1.417l-71.629,44.937
				c-14.028,8.801-32.058-2.304-30.511-18.791l7.902-84.188c0.615-6.547-2.031-12.978-7.077-17.195l-64.872-54.237
				c-12.704-10.622-7.714-31.201,8.444-34.824l82.51-18.5c6.417-1.438,11.715-5.942,14.167-12.044l31.535-78.457
				c6.176-15.366,27.29-16.979,35.729-2.731l43.092,72.755c3.351,5.657,9.271,9.304,15.832,9.752l84.363,5.747
				c16.521,1.126,24.58,20.707,13.638,33.137l-55.878,63.465c-4.346,4.936-5.983,11.693-4.382,18.07l20.603,82.011
				C2465.119,845.862,2448.986,859.578,2433.784,853.011z"/>
			<path opacity="0.65" fill="#FFFFFF" d="M2257.225,740.834c-2.269-3.799-5.138-7.162-8.532-9.995l-42.363-35.423
				c-4.453-3.724-6.369-9.539-5-15.183c1.367-5.64,5.735-9.929,11.396-11.199l53.886-12.085c12.622-2.83,23.04-11.685,27.868-23.689
				l20.596-51.242c2.163-5.384,7.103-9.002,12.889-9.446c5.791-0.436,11.221,2.39,14.179,7.38l14.379,24.276l-3.693,2.189
				l-14.38-24.277c-2.15-3.636-5.967-5.59-10.157-5.287c-4.207,0.322-7.658,2.851-9.233,6.768l-20.596,51.241
				c-5.354,13.316-16.909,23.141-30.912,26.282l-53.886,12.083c-4.117,0.923-7.167,3.921-8.162,8.021
				c-0.997,4.101,0.343,8.164,3.582,10.872l42.363,35.422c3.763,3.145,6.947,6.876,9.463,11.086L2257.225,740.834z"/>
			<path opacity="0.65" fill="#FFFFFF" d="M2272.524,836.211c-2.742,0-5.483-0.755-7.937-2.265
				c-4.941-3.044-7.673-8.524-7.133-14.302l3.948-42.064l4.276,0.403l-3.947,42.063c-0.396,4.201,1.514,8.029,5.106,10.243
				c3.596,2.214,7.875,2.197,11.449-0.05l46.776-29.343c12.009-7.539,27.429-8.726,40.458-3.095l50.694,21.899
				c3.876,1.67,8.109,1.032,11.323-1.692c3.216-2.734,4.522-6.81,3.492-10.902l-13.455-53.564
				c-3.494-13.921,0.08-28.659,9.563-39.423l36.491-41.455c2.79-3.17,3.496-7.388,1.891-11.292
				c-1.608-3.903-5.079-6.402-9.289-6.688l-55.102-3.752c-5.698-0.391-11.185-1.866-16.309-4.395l1.899-3.85
				c4.618,2.277,9.566,3.61,14.702,3.959l55.1,3.752c5.789,0.395,10.759,3.971,12.967,9.338c2.21,5.367,1.199,11.409-2.638,15.761
				l-36.491,41.456c-8.549,9.706-11.771,22.994-8.62,35.539l13.455,53.565c1.415,5.627-0.453,11.459-4.875,15.22
				c-4.423,3.757-10.479,4.663-15.807,2.365l-50.695-21.899c-11.75-5.078-25.646-4.014-36.472,2.792l-46.778,29.342
				C2278.093,835.431,2275.31,836.211,2272.524,836.211z"/>
			
				<rect x="2350.575" y="610.369" transform="matrix(0.5096 0.8604 -0.8604 0.5096 1683.9312 -1729.3037)" opacity="0.65" fill="#FFFFFF" width="16.719" height="4.294"/>
		</g>
		<g>
			<linearGradient id="SVGID_8_" gradientUnits="userSpaceOnUse" x1="2044.8799" y1="719.8438" x2="2002.173" y2="1301.7205">
				<stop  offset="0" style="stop-color:#FF928E"/>
				<stop  offset="1" style="stop-color:#FE7062"/>
			</linearGradient>
			<path fill="url(#SVGID_8_)" d="M2106.862,996.587l-56.73-24.505c-4.411-1.906-9.479-1.519-13.55,1.035l-52.348,32.841
				c-10.252,6.432-23.429-1.685-22.297-13.733l5.775-61.526c0.448-4.784-1.486-9.483-5.172-12.566l-47.411-39.637
				c-9.284-7.764-5.638-22.803,6.173-25.45l60.298-13.521c4.689-1.052,8.562-4.343,10.354-8.802l23.047-57.338
				c4.514-11.229,19.944-12.408,26.111-1.996l31.492,53.171c2.449,4.135,6.775,6.8,11.57,7.127l61.654,4.199
				c12.074,0.823,17.964,15.134,9.966,24.218l-40.836,46.381c-3.176,3.606-4.373,8.545-3.202,13.206l15.057,59.935
				C2129.763,991.362,2117.973,1001.386,2106.862,996.587z"/>
			<path opacity="0.65" fill="#FFFFFF" d="M1977.83,914.605c-1.657-2.775-3.755-5.233-6.236-7.305l-30.959-25.887
				c-3.254-2.722-4.655-6.972-3.654-11.096c0.999-4.122,4.192-7.256,8.329-8.186l39.38-8.83c9.225-2.069,16.838-8.54,20.367-17.313
				l15.051-37.448c1.582-3.935,5.19-6.578,9.42-6.904c4.231-0.318,8.199,1.747,10.362,5.394l10.509,17.742l-2.7,1.6l-10.509-17.742
				c-1.572-2.656-4.36-4.085-7.423-3.864c-3.075,0.236-5.598,2.084-6.747,4.945l-15.053,37.449
				c-3.913,9.731-12.357,16.911-22.591,19.206l-39.38,8.831c-3.009,0.675-5.238,2.865-5.967,5.862
				c-0.728,2.997,0.252,5.966,2.618,7.945l30.961,25.888c2.75,2.298,5.077,5.025,6.915,8.102L1977.83,914.605z"/>
			<path opacity="0.65" fill="#FFFFFF" d="M1989.012,984.309c-2.004,0-4.008-0.552-5.801-1.654
				c-3.611-2.225-5.608-6.229-5.212-10.453l2.885-30.74l3.126,0.294l-2.885,30.74c-0.29,3.071,1.105,5.869,3.732,7.486
				c2.626,1.618,5.754,1.605,8.366-0.036l34.185-21.444c8.776-5.51,20.044-6.377,29.567-2.261l37.049,16.004
				c2.832,1.22,5.926,0.754,8.274-1.237c2.351-1.998,3.305-4.977,2.553-7.968l-9.833-39.146c-2.554-10.174,0.059-20.944,6.987-28.81
				l26.669-30.297c2.04-2.316,2.556-5.399,1.382-8.252c-1.175-2.853-3.713-4.68-6.789-4.888l-40.269-2.742
				c-4.164-0.285-8.174-1.364-11.919-3.211l1.389-2.813c3.375,1.664,6.991,2.639,10.745,2.893l40.267,2.742
				c4.23,0.288,7.863,2.902,9.477,6.824c1.614,3.923,0.876,8.338-1.928,11.519l-26.668,30.296c-6.248,7.095-8.604,16.805-6.3,25.973
				l9.833,39.146c1.034,4.112-0.331,8.374-3.563,11.123c-3.232,2.746-7.659,3.407-11.553,1.729l-37.048-16.005
				c-8.588-3.711-18.743-2.933-26.654,2.041l-34.187,21.443C1993.081,983.738,1991.046,984.309,1989.012,984.309z"/>
			
				<rect x="2046.052" y="819.26" transform="matrix(0.5096 0.8604 -0.8604 0.5096 1712.5455 -1363.156)" opacity="0.65" fill="#FFFFFF" width="12.22" height="3.138"/>
		</g>
		<g>
			<linearGradient id="SVGID_9_" gradientUnits="userSpaceOnUse" x1="2291.4248" y1="3140.6143" x2="3194.8792" y2="1407.7615">
				<stop  offset="0" style="stop-color:#FF928E"/>
				<stop  offset="1" style="stop-color:#FE7062"/>
			</linearGradient>
			<path fill="url(#SVGID_9_)" d="M2207.82,3009.613l510.776-978.54h-104.649c-19.297,0-29.909-22.437-17.67-37.354l544.386-663.496
				c23.595-28.756,70.201-10.518,68.011,26.614l-38.267,648.818c-2.191,37.143-35.126,64.824-72.091,60.594l-72.962-8.35
				l-506.793,1097.532c-13.193,28.571-41.792,46.866-73.262,46.866h-175.648L2207.82,3009.613z"/>
			<linearGradient id="SVGID_10_" gradientUnits="userSpaceOnUse" x1="2426.5117" y1="3260.5264" x2="1853.8303" y2="2292.8921">
				<stop  offset="0" style="stop-color:#FF928E"/>
				<stop  offset="1" style="stop-color:#FE7062"/>
			</linearGradient>
			<path fill="url(#SVGID_10_)" d="M1785.519,2323.318l360.597,801.023c21.359,47.445,68.555,77.956,120.585,77.956h185.896
				c24.664,0,47.389-13.381,59.354-34.948l6.611-11.918l0,0c-19.973,0-38.261-11.198-47.34-28.988l-480.455-941.379
				L1785.519,2323.318z"/>
			<linearGradient id="SVGID_11_" gradientUnits="userSpaceOnUse" x1="1925.1045" y1="2127.7246" x2="1154.9465" y2="3144.7263">
				<stop  offset="0" style="stop-color:#FF928E"/>
				<stop  offset="1" style="stop-color:#FE7062"/>
			</linearGradient>
			<path fill="url(#SVGID_11_)" d="M2039.297,2280.149L2039.297,2280.149c-36.159-28.554-88.993-20.159-114.521,18.196
				l-530.181,796.556c-42.462,63.798-114.021,102.13-190.657,102.13h-74.604l-60.714-174.898c0,0,492.885-755.749,619.924-870.071
				c0,0,126.512-114.021,251.25-27.813c32.955,22.776,57.977,55.282,73.259,92.313L2039.297,2280.149z"/>
			<linearGradient id="SVGID_12_" gradientUnits="userSpaceOnUse" x1="1365.9824" y1="3204.8496" x2="260.1171" y2="2256.9648">
				<stop  offset="0" style="stop-color:#FF928E"/>
				<stop  offset="1" style="stop-color:#FE7062"/>
			</linearGradient>
			<path fill="url(#SVGID_12_)" d="M491.978,2551.75c0,0,88.748-110.932,260.724-128.188c0,0,81.681,27.828,244.407,319.413
				c162.726,291.585,270.738,424.554,397.486,351.927l-10.492,17.423c-34.583,57.419-96.714,92.528-163.743,92.528h-70.101
				c-77.181,0-149.634-37.107-194.705-99.761C828.904,2929.032,569.777,2579.081,491.978,2551.75z"/>
			<path opacity="0.69" fill="#FFFFFF" d="M3147.252,1561.871c-0.187,0-0.373-0.01-0.563-0.032c-2.71-0.306-4.657-2.752-4.349-5.461
				l3.587-31.681c0.309-2.709,2.742-4.67,5.461-4.349c2.71,0.306,4.658,2.752,4.35,5.461l-3.588,31.68
				C3151.864,1560.01,3149.73,1561.871,3147.252,1561.871z"/>
			<path opacity="0.69" fill="#FFFFFF" d="M2692.813,1961.776c-1.051,0-2.111-0.334-3.008-1.025c-2.16-1.662-2.565-4.764-0.9-6.924
				l449.527-584.097c5.275-6.85,13.863-9.181,21.867-5.94c8.014,3.24,12.564,10.884,11.591,19.473l-7.933,70.014
				c-0.309,2.709-2.745,4.683-5.461,4.349c-2.71-0.306-4.658-2.752-4.35-5.461l7.934-70.014c0.556-4.928-2.466-7.987-5.48-9.209
				c-3.016-1.209-7.313-1.119-10.344,2.813l-449.528,584.098C2695.757,1961.114,2694.291,1961.776,2692.813,1961.776z"/>
			<path opacity="0.69" fill="#FFFFFF" d="M1673.009,2574.108c-0.951,0-1.913-0.273-2.758-0.846
				c-2.26-1.523-2.857-4.593-1.331-6.853l232.486-344.607c8.316-12.327,22.127-18.99,36.965-17.891
				c14.824,1.125,27.472,9.823,33.833,23.262c1.167,2.466,0.115,5.406-2.35,6.573c-2.458,1.18-5.409,0.116-6.573-2.35
				c-4.824-10.192-14.416-16.785-25.659-17.637c-11.282-0.878-21.726,4.217-28.032,13.564l-232.486,344.606
				C1676.152,2573.347,1674.594,2574.108,1673.009,2574.108z"/>
			<path opacity="0.69" fill="#FFFFFF" d="M1612.597,2663.661c-0.952,0-1.913-0.272-2.759-0.845
				c-2.259-1.523-2.856-4.594-1.33-6.854l14.908-22.098c1.522-2.263,4.599-2.857,6.853-1.331c2.259,1.523,2.857,4.594,1.33,6.853
				l-14.907,22.099C1615.74,2662.899,1614.182,2663.661,1612.597,2663.661z"/>
		</g>
		<g>
			<g>
				<path fill="#1473E6" d="M1465.003,1521.771l-68.745,105.76c31.979,62.302,67.5,96.696,103.037,113.046
					c6.346-38.815,29.015-71.034,45.658-90.172C1481.56,1614.346,1465.003,1521.771,1465.003,1521.771z"/>
				<linearGradient id="SVGID_13_" gradientUnits="userSpaceOnUse" x1="1752.6475" y1="1612.2832" x2="1236.1697" y2="1862.4801">
					<stop  offset="0" style="stop-color:#FEBBBA"/>
					<stop  offset="1" style="stop-color:#FF928E"/>
				</linearGradient>
				<path fill="url(#SVGID_13_)" d="M1701.194,1631.418c-70.382,41.657-120.682,39.213-156.241,18.986
					c-16.644,19.138-39.313,51.356-45.658,90.172c112.969,51.978,226.094-78.848,226.094-78.848L1701.194,1631.418z"/>
				<linearGradient id="SVGID_14_" gradientUnits="userSpaceOnUse" x1="1755.1113" y1="1617.3691" x2="1238.6309" y2="1867.5674">
					<stop  offset="0" style="stop-color:#FEBBBA"/>
					<stop  offset="1" style="stop-color:#FF928E"/>
				</linearGradient>
				<path fill="url(#SVGID_14_)" d="M1705.024,1649.534c0,0-18.999-33.125,8.324-58.56c0,0,8.811-10.05,18.484,4.716
					c0,0,29.396-26.687,37.434-15.938c8.04,10.751,29.348,37.366,8.536,67.726
					C1756.758,1678.181,1714.307,1664.497,1705.024,1649.534z"/>
				<path fill="#F79E6D" d="M1733.917,1630.949c-2.784,0.003-5.764-0.515-8.399-2.076c-3.732-2.212-5.959-5.976-6.625-11.192
					c-0.228-1.804,1.048-3.449,2.852-3.681c1.806-0.206,3.451,1.051,3.68,2.852c0.399,3.134,1.524,5.21,3.437,6.351
					c2.689,1.598,6.705,1.247,9.624,0.602l-6.709-21.272c-0.546-1.731,0.418-3.584,2.15-4.13c1.729-0.537,3.584,0.418,4.131,2.15
					l7.714,24.464c0.518,1.648-0.327,3.42-1.935,4.053C1743.129,1629.345,1738.831,1630.949,1733.917,1630.949z"/>
				<linearGradient id="SVGID_15_" gradientUnits="userSpaceOnUse" x1="696.9219" y1="2430.125" x2="777.7793" y2="2430.125">
					<stop  offset="0" style="stop-color:#4F52FF"/>
					<stop  offset="1" style="stop-color:#4042E2"/>
				</linearGradient>
				<path fill="url(#SVGID_15_)" d="M705.062,2341.673c-6.117,3.682-9.243,11.437-7.785,19.035
					c5.738,29.902,24.6,108.891,70.415,155.651c3.026,3.087,7.428,2.813,10.088,0.029c-11.602-12.086-25.986-32.746-42.802-67.832
					C709.134,2394.632,704.347,2361.373,705.062,2341.673z"/>
				<linearGradient id="SVGID_16_" gradientUnits="userSpaceOnUse" x1="704.9961" y1="2425.041" x2="791.0391" y2="2425.041">
					<stop  offset="0" style="stop-color:#09005D"/>
					<stop  offset="1" style="stop-color:#1A0F91"/>
				</linearGradient>
				<path fill="url(#SVGID_16_)" d="M764.223,2340.555c0,0-29.541-16.068-58.956,0.974c-0.072,0.043-0.132,0.102-0.205,0.145
					c-0.715,19.7,4.072,52.959,29.916,106.884c16.815,35.086,31.2,55.746,42.802,67.832c0.842-0.881,1.519-2,1.911-3.36
					C788.296,2483.131,806.468,2400.062,764.223,2340.555z"/>
				<linearGradient id="SVGID_17_" gradientUnits="userSpaceOnUse" x1="747.9512" y1="2338.0371" x2="811.2236" y2="2338.0371">
					<stop  offset="0" style="stop-color:#FEBBBA"/>
					<stop  offset="1" style="stop-color:#FF928E"/>
				</linearGradient>
				<path fill="url(#SVGID_17_)" d="M806.888,2342.416l-26.77,25.683c-4.734,4.543-11.995,5.274-17.462,1.646
					c-4.77-3.165-10.078-8.356-13.611-16.769c-2.121-5.049-1.103-10.89,2.58-14.941l26.726-29.398
					c6.379-7.017,17.729-5.855,22.555,2.307l8.356,14.134C812.591,2330.707,811.607,2337.887,806.888,2342.416z"/>
				
					<linearGradient id="SVGID_18_" gradientUnits="userSpaceOnUse" x1="1471.2676" y1="1763.5713" x2="1592.4868" y2="1763.5713" gradientTransform="matrix(0.9667 0.2557 -0.2557 0.9667 706.9121 56.6099)">
					<stop  offset="0" style="stop-color:#4F52FF"/>
					<stop  offset="1" style="stop-color:#4042E2"/>
				</linearGradient>
				<path fill="url(#SVGID_18_)" d="M1659.378,2208.973c5.123,4.974,13.42,6.015,20.393,2.663
					c27.444-13.187,98.991-51.604,132.494-107.846c2.212-3.714,0.823-7.899-2.548-9.761c-8.722,14.305-25.02,33.49-54.646,58.712
					C1709.539,2191.506,1678.607,2204.631,1659.378,2208.973z"/>
				
					<linearGradient id="SVGID_19_" gradientUnits="userSpaceOnUse" x1="1441.0566" y1="1762.4385" x2="1587.2217" y2="1762.4385" gradientTransform="matrix(0.9667 0.2557 -0.2557 0.9667 706.9121 56.6099)">
					<stop  offset="0" style="stop-color:#09005D"/>
					<stop  offset="1" style="stop-color:#1A0F91"/>
				</linearGradient>
				<path fill="url(#SVGID_19_)" d="M1643.183,2152.062c0,0-7.988,32.665,16.004,56.749c0.059,0.061,0.131,0.104,0.191,0.162
					c19.229-4.342,50.161-17.467,95.693-56.231c29.626-25.222,45.924-44.407,54.646-58.712c-1.066-0.589-2.322-0.957-3.738-0.988
					C1774.874,2092.359,1689.92,2096.015,1643.183,2152.062z"/>
				<linearGradient id="SVGID_20_" gradientUnits="userSpaceOnUse" x1="1603.1592" y1="2134.4463" x2="1672.6753" y2="2134.4463">
					<stop  offset="0" style="stop-color:#FEBBBA"/>
					<stop  offset="1" style="stop-color:#FF928E"/>
				</linearGradient>
				<path fill="url(#SVGID_20_)" d="M1639.835,2107.029l27.973,24.368c4.947,4.31,6.325,11.477,3.199,17.246
					c-2.726,5.032-7.422,10.783-15.485,15.055c-4.839,2.563-10.748,2.071-15.112-1.236l-31.669-23.992
					c-7.558-5.726-7.416-17.133,0.283-22.67l13.331-9.586C1627.664,2102.396,1634.903,2102.733,1639.835,2107.029z"/>
				<linearGradient id="SVGID_21_" gradientUnits="userSpaceOnUse" x1="1199.8486" y1="1907.1006" x2="758.796" y2="2292.1985">
					<stop  offset="0" style="stop-color:#09005D"/>
					<stop  offset="1" style="stop-color:#1A0F91"/>
				</linearGradient>
				<path fill="url(#SVGID_21_)" d="M1078.604,1860.394c0,0-54.582,185.947-89.87,267.676c0,0-61.688,9.409-99.867,31.719
					c-38.181,22.309-120.42,145.952-120.42,145.952s21.477,40.772,47.39,47.027l234.113-162.214l186.844-217.285l-8.868-100.781
					L1078.604,1860.394z"/>
				<linearGradient id="SVGID_22_" gradientUnits="userSpaceOnUse" x1="2140.6973" y1="1439.7764" x2="1258.5928" y2="2055.2737">
					<stop  offset="0" style="stop-color:#09005D"/>
					<stop  offset="1" style="stop-color:#1A0F91"/>
				</linearGradient>
				<path fill="url(#SVGID_22_)" d="M1081.968,1845.225l-15.972,50.921c0,0,14.608,133.497,182.908,110.986
					c168.3-22.512,189.453-49.988,189.453-49.988s-14.61,85.261,169.419,187.774c0,0,27.973-21.116,34.13-45.096l-128.964-212.559
					c-17.938-27.881-34.574-35.225-67.329-30.103c-72.426,11.327-208.042,26.092-228.567,22.586L1081.968,1845.225z"/>
				<path fill="#1473E6" d="M1213.412,1466.579c-49.046,2.494-126.573,25.809-176.652,71.913
					c15.393,16.991,39.077,44.619,56.732,71.91c15.775-14.812,38.43-27.146,70.326-35.047
					c-27.569,103.04-60.157,201.21-99.867,292.463c-2.485,5.71,0.346,12.317,6.227,14.366
					c30.728,10.709,121.346,36.212,194.028-4.86l161.139-230.731c17.33-24.813,28.721-53.28,33.295-83.199l6.363-41.623
					C1465.003,1521.771,1320.282,1461.145,1213.412,1466.579z"/>
				<linearGradient id="SVGID_23_" gradientUnits="userSpaceOnUse" x1="1111.6836" y1="1781.1719" x2="804.2996" y2="1237.8879">
					<stop  offset="0" style="stop-color:#FEBBBA"/>
					<stop  offset="1" style="stop-color:#FF928E"/>
				</linearGradient>
				<path fill="url(#SVGID_23_)" d="M1125.531,1815.736c-7.004-15.463-30.979-29.912-42.424-36.12
					c-9.954-20.521-49.691-112.813,10.385-169.214c-17.655-27.291-41.34-54.919-56.732-71.91
					c-57.781,53.194-78.934,136.758,22.392,253.759c-5.531,28.818,12.515,62.374,22.272,67.077
					C1085.92,1861.495,1134.838,1836.289,1125.531,1815.736z"/>
				<linearGradient id="SVGID_24_" gradientUnits="userSpaceOnUse" x1="1343.708" y1="1055.0527" x2="1126.4823" y2="1805.4707">
					<stop  offset="0" style="stop-color:#53D8FF"/>
					<stop  offset="1" style="stop-color:#3840F7"/>
				</linearGradient>
				<path fill="url(#SVGID_24_)" d="M1173.137,1571.749l44.803-9.669L1173.137,1571.749z"/>
				<linearGradient id="SVGID_25_" gradientUnits="userSpaceOnUse" x1="1306" y1="1548.6689" x2="1338.1683" y2="1456.9297">
					<stop  offset="0" style="stop-color:#FEBBBA"/>
					<stop  offset="1" style="stop-color:#FF928E"/>
				</linearGradient>
				<path fill="url(#SVGID_25_)" d="M1322.257,1405.294l-42.099,82.401c-2.568,5.027-1.804,11.103,1.967,15.303
					c10.194,11.354,34.27,29.795,76.149,16.579c4.616-1.457,7.939-5.516,8.643-10.307l10.963-74.836L1322.257,1405.294z"/>
				<g>
					<linearGradient id="SVGID_26_" gradientUnits="userSpaceOnUse" x1="1397.6152" y1="1359.5391" x2="1256.4614" y2="1467.5433">
						<stop  offset="0" style="stop-color:#FEBBBA"/>
						<stop  offset="1" style="stop-color:#FF928E"/>
					</linearGradient>
					<path fill="url(#SVGID_26_)" d="M1392.438,1309.612c0,0,24.692,56.721,26.351,86.492c1.659,29.771,8.073,49.088-26.351,55.083
						c-34.423,5.996-63.421-11.152-79.131-40.808c0,0-24.615-45.696-19.092-64.41
						C1299.735,1327.256,1392.438,1309.612,1392.438,1309.612z"/>
					<linearGradient id="SVGID_27_" gradientUnits="userSpaceOnUse" x1="1298.248" y1="1274.0225" x2="1429.7117" y2="1443.2815">
						<stop  offset="0" style="stop-color:#09005D"/>
						<stop  offset="1" style="stop-color:#1A0F91"/>
					</linearGradient>
					<path fill="url(#SVGID_27_)" d="M1325.07,1389.058l1.96-0.864c2.494-1.1,3.562-4.068,2.309-6.49
						c-4.854-9.379-14.317-30.871-2.093-35.885c15.755-6.461,78.161-19.188,91.626-41.332c12.94-21.281,1.474-48.753-15.757-56.567
						c-1.154-0.522-2.513-0.107-3.105,1.012l-1.436,2.718c-0.982,1.859-3.73,1.578-4.315-0.443l0,0
						c-0.561-1.939-3.142-2.316-4.212-0.604c-4.139,6.625-15.312,17.365-45.193,22.88c-42.468,7.838-70.544,25.023-71.242,54.369
						c-0.045,1.864-2.028,2.9-3.62,1.931c-3.137-1.911-8.154-2.809-14.86,2.831c-11.661,9.806-6.89,35.245,18.677,56.17
						c1.215,0.994,1.205,2.892-0.11,3.747c-4.635,3.018-11.545,10.196,6.359,19.768c18.518,9.898,32.347,9.086,37.671,8.207
						c1.325-0.219,2.179-1.501,1.89-2.813l-5.684-25.792c-0.322-1.459,0.789-2.842,2.284-2.842H1325.07z"/>
					<linearGradient id="SVGID_28_" gradientUnits="userSpaceOnUse" x1="1380.1045" y1="1336.6582" x2="1238.9535" y2="1444.6603">
						<stop  offset="0" style="stop-color:#FEBBBA"/>
						<stop  offset="1" style="stop-color:#FF928E"/>
					</linearGradient>
					<path fill="url(#SVGID_28_)" d="M1326.14,1394.5c0,0-9.42-36.232-25.665-26.073c-16.244,10.158,8.431,40.597,21.491,41.953
						L1326.14,1394.5z"/>
				</g>
			</g>
			<g>
				<linearGradient id="SVGID_29_" gradientUnits="userSpaceOnUse" x1="1262.3574" y1="2174.248" x2="1642.6296" y2="1653.355">
					<stop  offset="0" style="stop-color:#FF928E"/>
					<stop  offset="1" style="stop-color:#FE7062"/>
				</linearGradient>
				<polygon fill="url(#SVGID_29_)" points="1759.484,1650.495 1720.894,1650.495 1660.228,1472.043 1828.859,1461.802 				"/>
				<linearGradient id="SVGID_30_" gradientUnits="userSpaceOnUse" x1="1738.457" y1="1492.4492" x2="1738.457" y2="1123.8094">
					<stop  offset="0" style="stop-color:#FF928E"/>
					<stop  offset="1" style="stop-color:#FE7062"/>
				</linearGradient>
				<path fill="url(#SVGID_30_)" d="M1557.581,1140.497c-0.19,15.062-0.19,309.962,149.514,357.852
					c149.702,47.89,217.321-201.627,211.955-379.33L1557.581,1140.497z"/>
				<linearGradient id="SVGID_31_" gradientUnits="userSpaceOnUse" x1="1748.7559" y1="1551.8232" x2="1734.5613" y2="1784.262">
					<stop  offset="0" style="stop-color:#FF928E"/>
					<stop  offset="1" style="stop-color:#FE7062"/>
				</linearGradient>
				<rect x="1620.522" y="1677.567" fill="url(#SVGID_31_)" width="239.334" height="29.058"/>
				<linearGradient id="SVGID_32_" gradientUnits="userSpaceOnUse" x1="2027.6914" y1="1363.5723" x2="1735.257" y2="1682.9546">
					<stop  offset="0" style="stop-color:#FF928E"/>
					<stop  offset="1" style="stop-color:#FE7062"/>
				</linearGradient>
				<polygon fill="url(#SVGID_32_)" points="1859.856,1677.567 1620.522,1677.567 1681.094,1645.071 1799.284,1645.071 				"/>
				<linearGradient id="SVGID_33_" gradientUnits="userSpaceOnUse" x1="1748.252" y1="1142.9922" x2="1708.7543" y2="794.0955">
					<stop  offset="0" style="stop-color:#FF928E"/>
					<stop  offset="1" style="stop-color:#FE7062"/>
				</linearGradient>
				<path fill="url(#SVGID_33_)" d="M1540.232,1098.653c-13.141,0.8-23.892,10.528-23.892,21.619v22.683
					c0,11.091,10.758,19.586,23.904,18.879l410.282-22.074c13.148-0.707,23.905-10.361,23.905-21.452V1092.4
					c0-11.091-10.751-19.512-23.892-18.712L1540.232,1098.653z"/>
				<linearGradient id="SVGID_34_" gradientUnits="userSpaceOnUse" x1="1703.8555" y1="1610.7617" x2="2023.1246" y2="1311.2415">
					<stop  offset="0" style="stop-color:#FF928E"/>
					<stop  offset="1" style="stop-color:#FE7062"/>
				</linearGradient>
				<path fill="url(#SVGID_34_)" d="M1813.107,1521.787c-9.563,0-17.812-6.042-18.923-14.231
					c-1.194-8.806,6.313-16.761,16.771-17.771c1.992-0.2,139.671-14.738,152.724-90.095c2.202-12.705,1.958-29.304-11.704-36.229
					c-11.277-5.719-29.739-3.9-42.94,4.227c-7.505,4.621-15.718,12.716-12.225,25.036c2.444,8.624-3.876,17.283-14.123,19.342
					c-10.24,2.057-20.529-3.265-22.975-11.888c-6.332-22.337,3.688-44.17,26.807-58.404c25.683-15.818,60.69-18.207,85.133-5.817
					c14.287,7.242,37.15,25.756,29.77,68.368c-7.299,42.134-42.481,75.885-101.743,97.605
					c-42.556,15.598-82.693,19.592-84.381,19.754C1814.561,1521.753,1813.83,1521.787,1813.107,1521.787z"/>
				<linearGradient id="SVGID_35_" gradientUnits="userSpaceOnUse" x1="1760.7451" y1="1592.6602" x2="1504.0117" y2="1352.3839">
					<stop  offset="0" style="stop-color:#FF928E"/>
					<stop  offset="1" style="stop-color:#FE7062"/>
				</linearGradient>
				<path fill="url(#SVGID_35_)" d="M1670.311,1521.787c9.562,0,17.811-6.042,18.922-14.231c1.194-8.806-6.313-16.761-16.771-17.771
					c-1.991-0.2-139.671-14.738-152.725-90.095c-2.201-12.705-1.956-29.304,11.706-36.229c11.276-5.719,29.739-3.9,42.94,4.227
					c7.505,4.621,15.717,12.716,12.224,25.036c-2.444,8.624,3.876,17.283,14.122,19.342c10.242,2.057,20.529-3.265,22.975-11.888
					c6.334-22.337-3.688-44.17-26.805-58.404c-25.684-15.818-60.692-18.207-85.134-5.817c-14.287,7.242-37.151,25.756-29.77,68.368
					c7.299,42.134,42.482,75.885,101.744,97.605c42.554,15.598,82.691,19.592,84.38,19.754
					C1668.856,1521.753,1669.587,1521.787,1670.311,1521.787z"/>
				<path opacity="0.71" fill="#FFFFFF" d="M1837.844,1117.508c-1.735,0-3.188-1.359-3.285-3.114
					c-0.097-1.816,1.296-3.365,3.111-3.465l36.641-1.974c1.771-0.103,3.364,1.295,3.465,3.111c0.097,1.816-1.296,3.365-3.111,3.465
					l-36.641,1.974C1837.964,1117.508,1837.904,1117.508,1837.844,1117.508z"/>
				<path opacity="0.71" fill="#FFFFFF" d="M1557.564,1132.586c-1.736,0-3.188-1.359-3.285-3.114
					c-0.097-1.816,1.296-3.365,3.111-3.465l218.896-11.777c1.819-0.08,3.365,1.292,3.465,3.112c0.097,1.815-1.295,3.364-3.111,3.465
					l-218.896,11.776C1557.683,1132.586,1557.625,1132.586,1557.564,1132.586z"/>
				<path opacity="0.71" fill="#FFFFFF" d="M1727.058,1465.092c-0.126,0-0.251-0.007-0.38-0.022
					c-39.706-4.567-71.444-36.881-94.323-96.043c-18.881-48.822-27.791-105.949-31.938-145.276
					c-0.192-1.807,1.119-3.427,2.929-3.615c1.768-0.188,3.426,1.118,3.615,2.928c7.117,67.448,33.102,225.418,120.469,235.469
					c1.807,0.206,3.103,1.839,2.894,3.646C1730.13,1463.854,1728.706,1465.092,1727.058,1465.092z"/>
				<path opacity="0.71" fill="#FFFFFF" d="M1601.037,1195.859c-1.719,0-3.169-1.337-3.28-3.079c-0.583-9-0.743-14.178-0.75-14.394
					c-0.055-1.816,1.375-3.333,3.191-3.391c1.916,0.041,3.337,1.372,3.392,3.191c0,0.052,0.16,5.294,0.736,14.169
					c0.115,1.813-1.26,3.378-3.073,3.497C1601.183,1195.856,1601.108,1195.859,1601.037,1195.859z"/>
			</g>
			<linearGradient id="SVGID_36_" gradientUnits="userSpaceOnUse" x1="1798.2197" y1="1598.8086" x2="1671.6254" y2="1660.1346">
				<stop  offset="0" style="stop-color:#FEBBBA"/>
				<stop  offset="1" style="stop-color:#FF928E"/>
			</linearGradient>
			<path fill="url(#SVGID_36_)" d="M1786.665,1601.542c0,0-15.368-43.75-41.278-19.571s-13.468,56.753,14.098,68.524
				C1787.051,1662.268,1800.376,1636.547,1786.665,1601.542z"/>
		</g>
		<g>
			<path fill="#BDD0FB" d="M2467.479,3202.946c133.345,25.622,527.136,41.685,672.291-611.84
				c4.122-18.557-18.973-30.584-31.724-16.486c-59.725,66.033-165.961,178.296-256.225,212.84
				c-279.65,107.027-380.887,279.199-414.29,359.839C2427.64,3171.182,2442.093,3198.068,2467.479,3202.946z"/>
			<linearGradient id="SVGID_37_" gradientUnits="userSpaceOnUse" x1="2447.7051" y1="2971.6367" x2="3029.041" y2="2971.6367">
				<stop  offset="0" style="stop-color:#DAE3FE"/>
				<stop  offset="1" style="stop-color:#E9EFFD"/>
			</linearGradient>
			<path fill="url(#SVGID_37_)" d="M2454.582,3185.7c-2.981,0-5.727-1.955-6.602-4.961c-1.062-3.647,1.036-7.467,4.684-8.528
				c194.535-56.568,337.38-165.344,422.954-246.63c92.85-88.195,140.227-163.994,140.694-164.75c1.998-3.23,6.24-4.229,9.468-2.227
				c3.231,1.999,4.229,6.237,2.23,9.465c-0.474,0.77-48.568,77.79-142.578,167.165c-86.73,82.452-231.549,192.792-428.926,250.19
				C2455.865,3185.609,2455.219,3185.7,2454.582,3185.7z"/>
		</g>
		<g>
			<path fill="#91B3FA" d="M2771.695,2089.258c15.171,122.02,91.046,874.427-309.123,1114.516
				c-12.115,7.269-27.661-0.824-28.682-14.915c-6.493-89.68-10.547-374.66,154.044-711.001
				c118.752-242.67,162.28-352.066,176.003-389.489C2765.39,2084.406,2771.175,2085.071,2771.695,2089.258z"/>
			<g>
				<path fill="#BDD0FB" d="M2433.885,3195.736c-1.11,0-2.235-0.269-3.279-0.836c-3.337-1.814-4.571-5.992-2.757-9.331
					c198.854-365.579,286.535-811.511,286.743-832.205c-0.502-3.302,1.465-6.566,4.75-7.594c3.626-1.118,7.484,0.883,8.618,4.511
					c4.874,15.575-87.162,472.588-288.025,841.865C2438.687,3194.437,2436.325,3195.736,2433.885,3195.736z M2714.825,2354.372
					c0.002,0.007,0.004,0.014,0.006,0.021C2714.829,2354.386,2714.827,2354.379,2714.825,2354.372z M2714.592,2353.149
					L2714.592,2353.149L2714.592,2353.149z"/>
			</g>
		</g>
	</g>
</g>
</svg>
