<?xml version="1.0" encoding="utf-8"?>
<!-- Generator: Adobe Illustrator 16.0.0, SVG Export Plug-In . SVG Version: 6.00 Build 0)  -->
<!DOCTYPE svg PUBLIC "-//W3C//DTD SVG 1.1//EN" "http://www.w3.org/Graphics/SVG/1.1/DTD/svg11.dtd">
<svg version="1.1" xmlns="http://www.w3.org/2000/svg" xmlns:xlink="http://www.w3.org/1999/xlink" x="0px" y="0px" width="2000px"
	 height="2000px" viewBox="0 0 2000 2000" enable-background="new 0 0 2000 2000" xml:space="preserve">
<g id="BACKGROUND">
	<rect fill="#F8F9FA" width="2000" height="2000"/>
</g>
<g id="OBJECTS">
	<g>
		<g>
			<path fill="#9192FF" d="M590.915,1138.428l-1.727-1.807l10.852-10.354l1.727,1.806L590.915,1138.428z M612.587,1117.661
				l-1.755-1.782c3.525-3.472,7.063-7.053,10.515-10.647l1.802,1.733C619.682,1110.573,616.126,1114.172,612.587,1117.661z
				 M633.416,1095.981l-1.848-1.685c3.315-3.641,6.655-7.407,9.928-11.199l1.892,1.637
				C640.1,1088.54,636.746,1092.324,633.416,1095.981z M653.069,1073.235l-1.931-1.588c3.121-3.801,6.268-7.733,9.354-11.685
				l1.971,1.539C659.364,1065.469,656.204,1069.416,653.069,1073.235z M671.571,1049.548l-2.004-1.493
				c2.934-3.943,5.896-8.019,8.8-12.11l2.039,1.445C677.49,1041.499,674.519,1045.588,671.571,1049.548z M688.97,1025.044
				l-2.07-1.401c2.8-4.133,5.557-8.294,8.272-12.482l2.098,1.357C694.546,1016.721,691.78,1020.896,688.97,1025.044z
				 M825.938,1007.71c-4.613,0-9.27-0.887-13.471-2.566l0.928-2.319c3.907,1.561,8.244,2.386,12.543,2.386
				c0.623-0.059,1.081-0.012,1.618-0.037l0.122,2.496C827.097,1007.698,826.406,1007.661,825.938,1007.71z M842.537,1003.438
				l-1.25-2.164c4.118-2.376,7.564-5.857,9.969-10.069l2.17,1.241C850.802,997.041,847.036,1000.842,842.537,1003.438z
				 M705.313,999.829l-2.124-1.318c2.63-4.24,5.221-8.508,7.773-12.8l2.149,1.277C710.552,991.294,707.953,995.575,705.313,999.829z
				 M799.799,996.346c-3.365-3.616-6.133-7.979-8.229-12.967l2.305-0.969c1.982,4.717,4.591,8.833,7.755,12.235L799.799,996.346z
				 M857.566,977.547l-2.5-0.053l0.007-0.667c0-3.748-0.764-7.418-2.208-10.615c-0.377-0.835-0.792-1.648-1.242-2.439l2.175-1.233
				c0.486,0.857,0.935,1.737,1.344,2.642c1.591,3.519,2.431,7.545,2.431,11.646L857.566,977.547z M721.66,974.927l-1.917-1.606
				c3.244-3.871,6.826-7.512,10.652-10.821l1.636,1.889C728.307,967.611,724.818,971.157,721.66,974.927z M787.704,968.577
				c-0.285-2.369-0.43-4.802-0.43-7.234c-0.001-2.646,0.169-5.349,0.509-8.035l2.48,0.313c-0.326,2.583-0.491,5.181-0.489,7.722
				c0,2.332,0.139,4.664,0.413,6.934L787.704,968.577z M743.951,955.641l-1.315-2.126c4.243-2.628,8.772-4.984,13.46-7.002
				l0.989,2.297C752.51,950.779,748.091,953.077,743.951,955.641z M842.012,953.062c-3.639-2.771-7.936-5.165-12.774-7.114
				l0.935-2.319c5.045,2.034,9.539,4.539,13.354,7.444L842.012,953.062z M771.072,943.933l-0.657-2.412
				c4.883-1.328,9.888-2.316,14.876-2.937l0.31,2.48C780.729,941.671,775.84,942.637,771.072,943.933z M815.082,941.86
				c-4.738-0.902-9.683-1.421-14.699-1.543l0.061-2.5c5.151,0.125,10.233,0.66,15.104,1.587L815.082,941.86z M793.713,939.333
				l-2.354-0.845c1.706-4.744,3.926-9.362,6.6-13.728l2.132,1.306C797.506,930.288,795.36,934.751,793.713,939.333z
				 M808.996,914.334l-1.832-1.701c0.728-0.783,1.473-1.553,2.236-2.31c2.794-2.766,5.873-5.386,9.149-7.784l1.477,2.017
				c-3.177,2.327-6.16,4.865-8.866,7.545C810.421,912.833,809.699,913.579,808.996,914.334z M832.658,896.902l-1.111-2.239
				c4.518-2.24,9.267-4.126,14.115-5.608l0.73,2.39C841.674,892.888,837.053,894.724,832.658,896.902z M860.86,887.72l-0.62-2.422
				c4.888-1.252,9.75-2.563,14.452-3.896l0.681,2.405C870.652,885.146,865.769,886.462,860.86,887.72z M889.779,879.5l-0.75-2.385
				c4.822-1.517,9.6-3.102,14.2-4.708l0.825,2.361C899.43,876.383,894.626,877.975,889.779,879.5z M918.169,869.57l-0.903-2.332
				c4.68-1.815,9.336-3.721,13.837-5.663l0.991,2.295C927.563,865.825,922.878,867.743,918.169,869.57z M945.791,857.641
				l-1.082-2.253l13.488-6.55l1.094,2.248L945.791,857.641z M972.781,844.526l-1.094-2.249l13.491-6.558l1.094,2.249
				L972.781,844.526z M999.762,831.411l-1.094-2.249l13.49-6.559l1.094,2.249L999.762,831.411z M1026.743,818.295l-1.094-2.249
				l13.491-6.558l1.094,2.249L1026.743,818.295z M1053.723,805.178l-1.094-2.249l13.491-6.558l1.095,2.249L1053.723,805.178z"/>
			<path fill="#EBEBFF" d="M1007.627,340.293c0,0.519,0,1.007,0.062,1.526h328.771c-0.854-27.103-24.447-48.833-53.381-48.833
				c-9.279,0-17.978,2.228-25.577,6.135c0.397-21.09-9.736-41.295-28.415-52.13c-28.018-16.237-64.674-5.219-81.826,24.63
				c-5.158,9.004-7.996,18.679-8.638,28.293c-13.673-6.257-30.612-9.98-48.985-9.98
				C1044.344,289.934,1007.627,312.489,1007.627,340.293z"/>
			<path fill="#9192FF" d="M460.66,1108.545H189.559l0.031-0.967c0.723-22.939,20.341-40.908,44.662-40.908
				c6.938,0,13.822,1.536,20.007,4.453c0.181-17.559,9.184-33.553,23.749-42.002c10.85-6.286,23.682-7.912,36.121-4.573
				c13.546,3.634,24.977,12.544,32.187,25.093c3.997,6.976,6.379,14.451,7.092,22.244c11.546-5.051,25.1-7.715,39.295-7.715
				c37.557,0,68.112,18.926,68.112,42.188c0,0.461-0.002,0.898-0.056,1.359L460.66,1108.545z M191.506,1106.67h267.433
				c0-0.103,0-0.207,0-0.313c0-22.229-29.713-40.313-66.237-40.313c-14.432,0-28.173,2.798-39.735,8.091l-1.235,0.566l-0.091-1.354
				c-0.532-7.988-2.872-15.649-6.953-22.774c-6.959-12.111-17.985-20.713-31.046-24.213c-11.956-3.206-24.28-1.65-34.695,4.382
				c-14.398,8.354-23.137,24.399-22.808,41.872l0.029,1.567l-1.395-0.715c-6.266-3.221-13.363-4.922-20.522-4.922
				C211.294,1068.545,192.711,1085.215,191.506,1106.67z"/>
		</g>
		<g>
			<g>
				<defs>
					<path id="SVGID_1_" d="M990.783,1081.535c0,31.947,25.904,57.852,57.852,57.852h642.567c31.947,0,57.852-25.904,57.852-57.852
						V690.579H990.783V1081.535z"/>
				</defs>
				<clipPath id="SVGID_2_">
					<use xlink:href="#SVGID_1_"  overflow="visible"/>
				</clipPath>
				<path clip-path="url(#SVGID_2_)" fill="#FFFFFF" d="M990.783,1081.535c0,31.947,25.904,57.852,57.852,57.852h642.567
					c31.947,0,57.852-25.904,57.852-57.852V690.579H990.783V1081.535z"/>
				<path clip-path="url(#SVGID_2_)" fill="#D1D1FF" d="M951.101,790.271c8.865-28.42,36.906-50.233,67.545-52.542
					c30.639-2.31,61.906,15.033,75.316,41.773c16.304-0.151,32.37,8.89,40.29,22.671s7.359,31.723-1.404,44.993
					c19.415,3.364,36.844,16.139,45.435,33.302c8.59,17.163,8.122,38.278-1.219,55.042c21.366-10.864,48.69-9.875,69.194,2.504
					c20.503,12.379,33.417,35.684,32.7,59.015c13.309-20.875,38.829-33.888,64.197-32.732c25.369,1.156,49.556,16.433,60.842,38.43
					c11.91-35.635,43.666-64.403,81.242-73.597c37.576-9.193,79.734,1.49,107.854,27.332c42.292,6.617,73.117,52.54,62.099,92.512
					c22.847,18.905,34.523,49.643,29.748,78.307c-4.776,28.664-25.839,54.259-53.66,65.207l-727.687-0.472l-62.035-277.63
					L951.101,790.271z"/>
				<g opacity="0.8" clip-path="url(#SVGID_2_)">
					<path fill="#FFFFFF" d="M939.557,882.473c8.587-28.426,35.696-50.261,65.3-52.595c29.604-2.334,59.799,14.983,72.734,41.713
						c15.751-0.164,31.267,8.864,38.907,22.639s7.086,31.717-1.393,44.993c18.755,3.349,35.584,16.109,43.87,33.265
						c8.285,17.156,7.817,38.271-1.221,55.043c20.651-10.881,47.05-9.913,66.85,2.449c19.799,12.362,32.257,35.657,31.547,58.988
						c12.874-20.886,37.541-33.918,62.05-32.782s47.864,16.394,58.751,38.381c11.535-35.645,42.239-64.437,78.55-73.66
						c36.312-9.223,77.034,1.427,104.181,27.245c40.854,6.583,70.601,52.481,59.924,92.462
						c22.058,18.887,33.315,49.614,28.678,78.281c-4.637,28.667-25.007,54.278-51.895,65.248l-703.051,0.105l-59.714-277.575
						L939.557,882.473z"/>
				</g>
				<g clip-path="url(#SVGID_2_)">
					<path opacity="0.7" fill="#FFF2E0" d="M1498.496,703.095c-210.607,198.057-359.956,251.461-548.108,270.557l-12.5,200
						l197.5,67.5c172.5-5,338.133-254.721,440.444-468.952L1498.496,703.095"/>
					<path fill="#FFA121" d="M1528.161,705.669c-34.241,40.51-85.882,79.261-146.79,131.599l83.106-33.872
						c-10.19,16.889-25.03,40.52-33.352,50.656c19.155-8.843,49.978-28.294,60.187-38.606
						c-0.007,14.391-17.341,38.461-24.898,51.611c44.327-37.937,84.653-84.253,97.68-124.938L1528.161,705.669"/>
					<path opacity="0.4" fill="#FFFFFF" d="M1537.865,707.717c-20.254,26.85-50.57,52.729-86.396,87.59l48.496-23.011
						c-6.078,11.151-14.918,26.761-19.844,33.477c11.188-5.981,29.245-19.021,35.267-25.872
						c-0.152,9.413-10.442,25.335-14.956,34.016c26.071-25.271,49.91-55.982,57.876-82.728L1537.865,707.717"/>
				</g>
				<path clip-path="url(#SVGID_2_)" fill="#D1D1FF" d="M1223.384,845.315c0.27,6.261-0.008,16.831-6.261,20.452
					c-10.443,6.047-18.657-8.632-22.49-16.011c-4.573-8.81-3.403-19.742,6.937-23.669
					C1215.229,820.897,1222.881,833.629,1223.384,845.315z"/>
				<path clip-path="url(#SVGID_2_)" fill="#D1D1FF" d="M1718.504,1035.423c0.27,6.262-0.008,16.831-6.261,20.452
					c-10.443,6.047-18.657-8.632-22.489-16.011c-4.574-8.811-3.404-19.742,6.936-23.67
					C1710.35,1011.006,1718.001,1023.738,1718.504,1035.423z"/>
				<circle clip-path="url(#SVGID_2_)" fill="#D1D1FF" cx="1167.889" cy="774.485" r="8.75"/>
				<circle clip-path="url(#SVGID_2_)" fill="#D1D1FF" cx="1612.888" cy="932.402" r="13.323"/>
			</g>
			<g>
				<path fill="#9192FF" d="M1691.201,1140.637h-642.565c-32.588,0-59.102-26.514-59.102-59.102V689.329h760.769v392.207
					C1750.303,1114.123,1723.789,1140.637,1691.201,1140.637z M992.034,691.829v389.707c0,31.211,25.39,56.602,56.602,56.602
					h642.565c31.211,0,56.602-25.391,56.602-56.602V691.829H992.034z"/>
				<g>
					<path fill="#FFFFFF" d="M1691.202,539.112h-642.567c-31.947,0-57.852,25.892-57.852,57.851v93.616h758.271v-93.616
						C1749.054,565.004,1723.149,539.112,1691.202,539.112z"/>
					<path fill="#9192FF" d="M1750.303,691.829H989.534v-94.866c0-32.589,26.514-59.102,59.102-59.102h642.565
						c32.588,0,59.102,26.513,59.102,59.102V691.829z M992.034,689.329h755.769v-92.366c0-31.209-25.391-56.602-56.602-56.602
						h-642.565c-31.212,0-56.602,25.392-56.602,56.602V689.329z"/>
				</g>
				<g>
					<circle fill="#D1D1FF" cx="1067.169" cy="614.845" r="31.717"/>
					<g>
						<circle fill="#FFFFFF" cx="1160.588" cy="614.845" r="31.716"/>
						<path fill="#9192FF" d="M1160.588,647.813c-18.178,0-32.966-14.789-32.966-32.967c0-18.178,14.788-32.966,32.966-32.966
							c18.18,0,32.967,14.789,32.967,32.966C1193.555,633.024,1178.768,647.813,1160.588,647.813z M1160.588,584.379
							c-16.799,0-30.466,13.667-30.466,30.466c0,16.799,13.667,30.467,30.466,30.467c16.8,0,30.467-13.668,30.467-30.467
							C1191.055,598.045,1177.388,584.379,1160.588,584.379z"/>
					</g>
					<g>
						<path fill="#FFFFFF" d="M1402.026,645.119h-126.284c-16.72,0-30.273-13.554-30.273-30.273l0,0
							c0-16.719,13.554-30.273,30.273-30.273h126.284c16.72,0,30.273,13.554,30.273,30.273l0,0
							C1432.3,631.565,1418.746,645.119,1402.026,645.119z"/>
						<path fill="#9192FF" d="M1402.026,646.368h-126.284c-17.383,0-31.523-14.142-31.523-31.523
							c0-17.382,14.141-31.524,31.523-31.524h126.284c17.383,0,31.523,14.142,31.523,31.524
							C1433.55,632.227,1419.409,646.368,1402.026,646.368z M1275.742,585.821c-16.004,0-29.023,13.02-29.023,29.024
							c0,16.003,13.02,29.023,29.023,29.023h126.284c16.003,0,29.023-13.02,29.023-29.023c0-16.004-13.021-29.024-29.023-29.024
							H1275.742z"/>
					</g>
				</g>
			</g>
			<g>
				<g>
					<path fill="#1473E6" d="M1659.751,470.111c-50.64,44.327-137.978,13.774-165.117,49.171l77.551,61.411L1659.751,470.111z"/>
					<path fill="#D1D1FF" d="M1494.634,519.283L1494.634,519.283c-3.881,10.326-1.777,21.949,5.478,30.258l54.953,62.944
						l17.12-31.792L1494.634,519.283z"/>
				</g>
				<g>
					<path fill="#1473E6" d="M1774.526,560.998c-31.54,59.452,18.218,137.461-10.016,171.992l-77.552-61.41L1774.526,560.998z"/>
					<path fill="#D1D1FF" d="M1764.511,732.99L1764.511,732.99c-9.161,6.145-20.957,6.761-30.708,1.604l-73.865-39.063
						l27.021-23.951L1764.511,732.99z"/>
				</g>
				<polygon fill="#1B1B43" points="1813.925,393.916 1744.881,419.264 1805.078,466.933 				"/>
				<path fill="#C5C5FF" d="M1805.078,466.933c-9.645,109.254-90.371,211.198-188.415,267.823l-89.348-70.677
					c37.49-117.954,107.312-202.36,217.565-244.815L1805.078,466.933z"/>
				<polygon fill="#1473E6" points="1527.315,664.079 1488.561,690.913 1599.413,778.693 1616.663,734.756 				"/>
				<g>
					<circle fill="#FFFFFF" cx="1718.959" cy="513.842" r="41.467"/>
					<path fill="#9192FF" d="M1722.095,543.229l-0.264-2.486c2.378-0.254,4.714-0.82,6.946-1.686l0.902,2.332
						C1727.246,542.334,1724.692,542.953,1722.095,543.229z M1714.289,543.031c-2.585-0.41-5.104-1.163-7.482-2.239l1.03-2.278
						c2.175,0.983,4.478,1.673,6.843,2.048L1714.289,543.031z M1736.521,537.622l-1.484-2.009c1.914-1.417,3.643-3.089,5.134-4.975
						l1.958,1.553C1740.5,534.248,1738.615,536.075,1736.521,537.622z M1700.184,536.665c-2.029-1.667-3.821-3.587-5.327-5.709
						l2.036-1.447c1.379,1.941,3.02,3.699,4.877,5.226L1700.184,536.665z M1745.184,527.487l-2.217-1.155
						c1.104-2.12,1.921-4.379,2.431-6.719l2.442,0.533C1747.283,522.701,1746.389,525.171,1745.184,527.487z M1691.216,524.046
						c-0.896-2.447-1.47-5.011-1.699-7.62l2.49-0.219c0.212,2.39,0.735,4.737,1.558,6.977L1691.216,524.046z M1745.984,512.489
						c-0.125-2.396-0.563-4.762-1.299-7.032l2.378-0.771c0.806,2.478,1.281,5.06,1.415,7.674L1745.984,512.489z M1692.322,509.066
						l-2.462-0.44c0.46-2.577,1.263-5.078,2.384-7.436l2.256,1.072C1693.477,504.42,1692.742,506.709,1692.322,509.066z
						 M1741.597,499.014c-1.306-1.993-2.881-3.813-4.678-5.405l1.66-1.87c1.96,1.74,3.679,3.726,5.107,5.906L1741.597,499.014z
						 M1698.391,496.265l-1.898-1.624c1.701-1.995,3.654-3.75,5.805-5.22l1.412,2.065
						C1701.738,492.831,1699.951,494.438,1698.391,496.265z M1730.998,489.607c-2.141-1.065-4.418-1.841-6.763-2.305l0.483-2.454
						c2.564,0.508,5.052,1.355,7.393,2.52L1730.998,489.607z M1710.093,488.279l-0.815-2.363c2.463-0.851,5.037-1.375,7.646-1.558
						l0.176,2.495C1714.707,487.019,1712.352,487.499,1710.093,488.279z"/>
				</g>
				<path fill="#1B1B43" d="M1514.627,773.911l-1.977-1.565c-2.9-2.296-3.395-6.548-1.098-9.448l77.764-98.203
					c2.297-2.9,6.549-3.394,9.449-1.098l1.977,1.565c2.9,2.296,3.394,6.548,1.098,9.448l-77.765,98.203
					C1521.778,775.713,1517.527,776.207,1514.627,773.911z"/>
			</g>
		</g>
		<g>
			<path fill="#9192FF" d="M1652.371,1629.99h-15v-2.5h15V1629.99z M1622.37,1629.99h-15v-2.5h15V1629.99z M1592.37,1629.99h-14.999
				v-2.5h14.999V1629.99z M1562.371,1629.99h-15v-2.5h15V1629.99z M1532.371,1629.99h-15v-2.5h15V1629.99z M1502.371,1629.99h-15
				v-2.5h15V1629.99z M1472.371,1629.99h-15v-2.5h15V1629.99z M1442.371,1629.99h-15v-2.5h15V1629.99z M1412.371,1629.99h-15v-2.5
				h15V1629.99z M1382.371,1629.99h-15v-2.5h15V1629.99z M1352.358,1629.988c-5.176-0.047-10.261-0.914-15.112-2.578l0.811-2.363
				c4.598,1.574,9.416,2.396,14.326,2.441L1352.358,1629.988z M1654.175,1629.959l-0.093-2.5c4.902-0.184,9.695-1.143,14.248-2.85
				l0.879,2.339C1664.404,1628.75,1659.346,1629.764,1654.175,1629.959z M1323.726,1620.173c-4.097-3.129-7.646-6.872-10.55-11.122
				l2.066-1.411c2.751,4.03,6.115,7.58,10.002,10.546L1323.726,1620.173z M1682.515,1619.334l-1.572-1.944
				c3.802-3.075,7.065-6.718,9.7-10.825l2.104,1.354C1689.966,1612.246,1686.523,1616.089,1682.515,1619.334z M1306.672,1595.166
				c-1.208-4.248-1.82-8.664-1.82-13.127v-2.047h2.5v2.047c0,4.23,0.58,8.417,1.723,12.443L1306.672,1595.166z M1698.853,1593.853
				l-2.422-0.615c0.921-3.64,1.39-7.407,1.39-11.198v-3.372h2.5v3.372C1700.32,1586.035,1699.826,1590.01,1698.853,1593.853z
				 M1307.352,1564.992h-2.5v-15h2.5V1564.992z M1700.32,1563.667h-2.5v-15h2.5V1563.667z M1307.352,1534.992h-2.5v-15h2.5V1534.992
				z M1700.32,1533.667h-2.5v-15h2.5V1533.667z M1307.352,1504.992h-2.5v-15h2.5V1504.992z M1700.32,1503.667h-2.5v-15h2.5V1503.667
				z M1307.352,1474.992h-2.5v-15h2.5V1474.992z M1700.32,1473.667h-2.5v-15h2.5V1473.667z M1307.352,1444.992h-2.5v-15h2.5
				V1444.992z M1700.32,1443.667h-2.5v-15h2.5V1443.667z M1307.352,1414.992h-2.5V1405c0-1.702,0.09-3.428,0.271-5.127l2.485,0.264
				c-0.171,1.611-0.256,3.249-0.256,4.863V1414.992z M1700.32,1413.667h-2.5V1405c0-2.053-0.14-4.121-0.41-6.147l2.475-0.332
				c0.288,2.134,0.436,4.313,0.436,6.479V1413.667z M1311.445,1386.121l-2.275-1.041c2.141-4.678,5.01-8.967,8.527-12.746
				l1.832,1.704C1316.193,1377.619,1313.472,1381.685,1311.445,1386.121z M1693.174,1384.959c-2.153-4.371-4.985-8.357-8.42-11.849
				l1.781-1.753c3.623,3.682,6.612,7.886,8.88,12.498L1693.174,1384.959z M1330.994,1365.112l-1.201-2.192
				c4.523-2.479,9.387-4.197,14.457-5.109l0.444,2.461C1339.89,1361.135,1335.281,1362.764,1330.994,1365.112z M1673.042,1364.51
				c-4.349-2.225-9.001-3.721-13.831-4.451l0.371-2.471c5.098,0.769,10.008,2.349,14.598,4.694L1673.042,1364.51z
				 M1644.424,1359.548h-15v-2.5h15V1359.548z M1614.424,1359.548h-15v-2.5h15V1359.548z M1584.424,1359.548h-15v-2.5h15V1359.548z
				 M1554.424,1359.548h-15v-2.5h15V1359.548z M1524.424,1359.548h-15v-2.5h15V1359.548z M1494.424,1359.548h-15v-2.5h15V1359.548z
				 M1464.424,1359.548h-15v-2.5h15V1359.548z M1434.424,1359.548h-15v-2.5h15V1359.548z M1404.424,1359.548h-15v-2.5h15V1359.548z
				 M1374.424,1359.548h-15v-2.5h15V1359.548z"/>
			<path fill="#9192FF" d="M1625.01,1586.655h-319.146c-20.386,0-36.912-16.526-36.912-36.913v-204.062
				c0-20.386,16.526-36.912,36.912-36.912h319.146c20.387,0,36.913,16.526,36.913,36.912v204.062
				C1661.923,1570.129,1645.396,1586.655,1625.01,1586.655z"/>
			<g>
				<rect x="1337.278" y="1471.089" fill="#FFFFFF" width="42.549" height="86.411"/>
				<rect x="1408.535" y="1473.863" fill="#FFFFFF" width="42.549" height="83.637"/>
				<rect x="1479.791" y="1430.174" fill="#FFFFFF" width="42.549" height="127.326"/>
				<rect x="1551.048" y="1392.818" fill="#FFFFFF" width="42.548" height="164.682"/>
			</g>
			<rect x="1351.283" y="1347.905" fill="#FFFFFF" width="228.309" height="9.98"/>
		</g>
		<g>
			<g>
				<g>
					<path fill="#F7471E" d="M656.128,1037.492c-7.235-25.081-22.549-47.072-43.564-62.557l-8.44-6.219l7.164,148.235l55.399-42.856
						L656.128,1037.492z"/>
					<path fill="#FFBC96" d="M834.16,1216.669l-12.307-24.102c-3.117-6.104-8.653-10.621-15.259-12.451l-36.214-10.028
						l-93.161-59.479l-10.533-36.513l-55.399,42.856l0.503,10.412c1.009,20.886,13.819,39.374,33.019,47.656l90.457,39.021
						l42.998,0.955c13.854,4.778,18.632,16.722,27.232,12.422c3.205-1.603-9.316-22.215-9.316-22.215l20.782,22.932L834.16,1216.669
						z"/>
					
						<rect x="669.695" y="1108.369" transform="matrix(0.7623 0.6473 -0.6473 0.7623 883.068 -168.6602)" fill="#D28572" width="2.867" height="18.811"/>
				</g>
				<g>
					<path fill="#1473E6" d="M672.133,1276.714l67.777-5.983c44.12-3.896,82.499,31.733,84.648,78.582l15.316,333.809l-93.496,2.913
						L672.133,1276.714z"/>
					<g>
						<polygon fill="#1B1B43" points="753.898,1682.714 756.764,1774.92 895.312,1774.92 826.994,1718.067 822.694,1673.637 						
							"/>
						
							<rect x="809.556" y="1710.899" transform="matrix(0.6103 0.7922 -0.7922 0.6103 1686.5955 30.3798)" fill="#FFFFFF" width="5.732" height="36.79"/>
					</g>
				</g>
				<g>
					<g>
						<polygon fill="#D1D1FF" points="722.366,1682.714 725.233,1774.92 863.78,1774.92 795.462,1718.067 791.163,1673.637 						
							"/>
						
							<rect x="778.025" y="1710.899" transform="matrix(0.6103 0.7922 -0.7922 0.6103 1674.1934 55.2988)" fill="#FFFFFF" width="5.732" height="36.791"/>
					</g>
					<path fill="#1473E6" d="M825.561,1691.791H710.9l-81.724-251.449l-11.437-35.2l-163.391-0.717
						c-10.09-0.144-19.75-4.815-27.948-11.725c-17.371-14.647-25.369-37.665-22.215-60.168l14.333-102.247l242.735,31.56
						c46.036,5.991,83.215,40.446,92.674,85.88L825.561,1691.791z"/>
					<polygon fill="#1B1B43" points="651.42,1405.142 629.176,1440.342 617.739,1405.142 					"/>
				</g>
				<g>
					<path fill="#F7471E" d="M621.408,1211.768c-1.175,4.729-2.408,9.459-3.669,14.218l-8.6,35.114l-113.227-4.701l-81.523-3.383
						c-21.613-0.889-37.265-20.954-32.85-42.137l38.01-182.912c4.873-31.101,30.127-55.037,61.458-58.276l93.018-9.574l30.099,8.6
						c29.381,15.766,29.41,44.345,30.814,63.063C641.101,1113.704,633.505,1163.323,621.408,1211.768z"/>
					<path opacity="0.3" fill="#1B1B43" d="M544.644,1205.92c-1.175,4.729,74.357,15.307,73.096,20.065l-8.6,35.114l-113.227-4.701
						c-39.558-29.84-54.377-94.767-68.796-176.118L544.644,1205.92z"/>
					<path fill="#1B1B43" d="M522.141,1013.026c4.959,5.318,10.606,9.955,16.92,13.415c6.287,3.455,13.13,5.993,20.218,6.826
						c7.013,0.917,14.416,0.321,20.572-3.023c6.294-3.135,10.3-9.741,11.052-16.896l1.118,0.075
						c-0.039,3.742-0.985,7.54-2.849,10.909c-1.882,3.366-4.754,6.163-8.091,8.093c-6.737,3.895-14.733,4.6-22.166,3.658
						c-7.479-1.036-14.682-3.653-21.068-7.548c-6.43-3.833-12.047-8.926-16.567-14.791L522.141,1013.026z"/>
					<path fill="#1B1B43" d="M637.442,1124.777l-2.143-0.15c2.059-28.841-0.027-64.285-6.202-105.35l2.127-0.317
						C637.422,1060.178,639.514,1095.781,637.442,1124.777z"/>
				</g>
				<g>
					<rect x="723.322" y="1226.463" fill="#1B1B43" width="106.539" height="21.021"/>
					<polygon fill="#9192FF" points="1014.271,1247.483 800.24,1247.483 898.656,1059.25 1112.688,1059.25 					"/>
				</g>
				<g>
					<path fill="#F7471E" d="M545.718,809.626c-25.082-24.724-72.379-14.333-71.663,27.231
						c-51.597,13.616-54.463,70.229-33.681,99.252l17.916,1.434l3.941-21.141l10.391,21.499l50.164,3.225L545.718,809.626z"/>
					<path fill="#FFBC96" d="M587.641,902.07v78.972c0,0.717-0.029,1.405-0.086,2.092c-1.232,16.253-16.97,27.748-33.05,23.592
						c-23.706-6.135-40.188-27.576-39.988-52.056l0.401-52.6H587.641z"/>
					<path fill="#1C1B43" d="M587.641,936.21v44.832c0,0.717-0.029,1.405-0.086,2.092c-21.126-3.468-45.548-27.919-51.511-54.549
						L587.641,936.21z"/>
					<path fill="#FFBC96" d="M630.38,907.918c-1.089,6.278-2.551,12.699-4.5,18.804c-6.306,20.037-17.629,36.663-37.895,33.768
						c-47.641-6.822-74.156-55.897-74.156-55.897l32.592-37.264l21.872-29.411l65.557,28.321
						C633.849,866.239,634.193,886.276,630.38,907.918z"/>
					<path fill="#F7471E" d="M527.922,892.038c20.909-0.668,37.081-11.318,43.953-41.564c0,0,48.73,42.042,72.618,19.587
						c20.003-18.803-13.931-62.063-70.103-67.217c-20.461-1.877-40.859,4.511-56.894,17.359
						c-27.224,21.813-29.825,72.551-4.385,90.108L527.922,892.038z"/>
					<path fill="#FFA121" d="M503.438,839.007c-1.366-4.94-0.347-10.415,1.858-15.125c2.237-4.745,5.691-8.875,9.813-12.077
						c4.122-3.208,8.959-5.501,14.042-6.566c5.065-1.042,10.451-0.88,15.134,1.162c-4.835,1.557-9.024,3.209-12.96,5.241
						c-3.925,2.009-7.553,4.338-10.95,6.958c-3.389,2.63-6.537,5.551-9.371,8.863C508.153,830.789,505.652,834.44,503.438,839.007z"
						/>
					<g>
						
							<ellipse transform="matrix(0.9284 -0.3716 0.3716 0.9284 -295.3748 257.9666)" fill="#FFBC96" cx="521.653" cy="895.386" rx="16.303" ry="19.699"/>
						<path fill="#1B1B43" d="M521.653,906.209c0.358-3.492,0.382-6.795-0.635-9.835c-0.987-3.05-2.923-5.708-5.153-8.439
							l0.704-0.872c3.24,1.686,5.991,4.711,7.165,8.438c1.179,3.727,0.667,7.789-1.008,11.031L521.653,906.209z"/>
					</g>
					<g>
						<ellipse fill="#1B1B43" cx="595.11" cy="895.637" rx="4.842" ry="5.358"/>
						
							<ellipse transform="matrix(0.9925 0.1221 -0.1221 0.9925 114.4657 -69.1121)" fill="#1B1B43" cx="621.094" cy="899.331" rx="4.311" ry="4.771"/>
						<path fill="#1B1B43" d="M599.706,882.188c0.194,2.503-3.811,2.742-9.711,2.917c-5.901,0.175-9.978,2-10.025,0.417
							c-0.047-1.582,4.318-5.65,10.139-6.634C596.112,877.874,599.475,879.209,599.706,882.188z"/>
						<path fill="#1B1B43" d="M618.558,884.6c-0.435,2.467,2.511,3.104,6.873,3.867c4.362,0.763,7.177,2.982,7.396,1.416
							c0.218-1.567-2.551-6.042-6.759-7.601C621.727,880.674,619.075,881.664,618.558,884.6z"/>
						<path fill="#1B1B43" d="M611.542,904.311c1.117,1.368,2.363,2.555,3.636,3.769l1.934,1.799
							c0.668,0.606,1.392,1.274,2.037,2.284c0.315,0.512,0.572,1.171,0.614,1.908c0.057,0.746-0.176,1.474-0.478,2.031
							c-0.664,1.113-1.453,1.757-2.311,2.334c-1.714,1.126-3.567,1.591-5.36,1.941l-0.418-1.039
							c1.541-0.996,3.077-1.887,4.272-2.919c0.571-0.508,1.133-1.128,1.335-1.604c0.223-0.479,0.158-0.639-0.108-1.197
							c-0.636-1.044-2.261-2.437-3.322-3.886c-1.16-1.441-2.205-3.079-2.815-4.885L611.542,904.311z"/>
						<path fill="#1B1B43" d="M587.277,921.954c2.928,3.342,5.979,6.435,9.647,8.396c3.645,2.02,7.796,2.587,12.186,2.114
							l0.297,1.081c-2.121,0.941-4.513,1.448-6.928,1.309c-2.416-0.104-4.808-0.832-6.913-1.995
							c-4.23-2.35-7.349-6.146-9.234-10.302L587.277,921.954z"/>
						<circle opacity="0.2" fill="#FE5B52" cx="570.088" cy="907.083" r="11.829"/>
						<path opacity="0.2" fill="#FE5B52" d="M630.38,907.918c-1.089,6.278-2.551,12.699-4.5,18.804
							c-1.834-2.092-2.952-4.815-2.952-7.825C622.928,913.909,626.023,909.667,630.38,907.918z"/>
					</g>
				</g>
				<g>
					<g>
						<polygon fill="#F7471E" points="495.435,1047.784 427.117,1080.271 448.544,1131.062 520.175,1098.025 						"/>
						<path fill="#C5C5FF" d="M748.5,1223.936c-1.895-0.95-3.08-1.584-3.08-1.584l0.685-1.349c0,0,1.261,0.606,3.092,1.59
							L748.5,1223.936z"/>
						<path fill="#FFBC96" d="M776.83,1231.001c-2.208,4.357-19.12-3.354-27.002-7.224c6.105,3.383,16.625,10.033,11.953,13.674
							c-3.755,2.895-12.068-3.268-39.3-14.563c4.128,1.949,28.464,13.53,22.33,17.916c-6.679,4.759-35.344-5.733-35.344-5.733
							l-24.853,13.358H655.95l-103.137,0.659c-6.479,0.028-12.899-0.803-19.12-2.408c-12.24-3.124-23.763-9.201-33.538-17.371
							c-6.163-5.159-11.466-11.207-15.909-17.857c-3.325-4.988-6.163-10.349-8.513-15.938l-27.203-64.438l71.634-33.051
							l37.379,75.876l123.26,26.773l34.398-8.6c7.396-1.863,17.858,1.262,24.365,5.246
							C755.446,1207.037,778.894,1226.845,776.83,1231.001z"/>
					</g>
					<path opacity="0.2" fill="#FE5B52" d="M535.557,1236.018c0,3.755-0.659,7.339-1.863,10.663
						c-12.24-3.124-23.763-9.201-33.538-17.371c-6.163-5.159-11.466-11.207-15.909-17.857c5.418-4.357,12.297-6.966,19.779-6.966
						C521.454,1204.486,535.557,1218.589,535.557,1236.018z"/>
					<path fill="#D28572" d="M680.625,1200.133c8.547-2.844,17.208-5.295,26.045-7.141c4.419-0.909,8.892-1.654,13.454-1.917
						c2.281-0.129,4.589-0.085,6.918,0.181c1.15,0.229,2.297,0.533,3.445,0.804c1.094,0.385,2.162,0.827,3.244,1.24
						c8.385,3.804,15.691,9.236,22.758,14.83c7.064,5.632,13.731,11.677,20.213,17.982l0.298,0.29l0.063,0.367
						c0.23,1.357,0.073,2.614-0.68,3.879c-0.461,0.535-0.936,1.117-1.558,1.374c-0.6,0.384-1.195,0.528-1.791,0.624
						c-2.375,0.389-4.454-0.101-6.438-0.631c-3.985-1.097-7.542-2.918-11.127-4.672c-3.508-1.875-6.966-3.828-10.319-5.931
						c-3.41-2.022-6.648-4.281-9.969-6.428l1.515-2.421c5.863,3.478,11.565,7.128,17.02,11.27c2.707,2.102,5.386,4.245,7.691,7.064
						c0.552,0.748,1.108,1.502,1.494,2.524c0.213,0.48,0.327,1.091,0.342,1.747c-0.051,0.688-0.265,1.419-0.736,1.956
						c-0.902,1.041-1.99,1.398-2.908,1.625c-0.956,0.253-1.85,0.301-2.758,0.394l-0.281,0.028l-0.306-0.128l-31.116-13.037
						l0.931-2.187c4.903,2.261,9.674,4.692,14.224,7.677c2.218,1.586,4.552,3.02,6.186,5.761c0.373,0.693,0.642,1.752,0.255,2.74
						c-0.392,0.96-1.153,1.566-1.848,1.9c-1.438,0.732-2.888,0.884-4.281,0.961c-5.579,0.126-10.816-1.176-16.014-2.464
						c-5.183-1.37-10.276-2.982-15.312-4.807l0.378-1.055c5.027,1.684,10.145,3.168,15.299,4.396
						c5.136,1.154,10.429,2.286,15.538,2.034c2.438-0.096,5.345-1.168,4.16-2.776c-1.118-1.881-3.428-3.478-5.546-4.889
						c-4.404-2.806-9.191-5.169-13.992-7.302l0.931-2.187l31.229,12.761l-0.586-0.099c0.769-0.086,1.565-0.134,2.244-0.326
						c0.705-0.147,1.272-0.465,1.464-0.703c0.437-0.172-0.15-1.714-1.129-2.865c-1.98-2.411-4.603-4.54-7.229-6.547
						c-5.313-4-11.014-7.615-16.77-10.993l1.515-2.42c3.296,2.108,6.495,4.39,9.851,6.389c3.307,2.093,6.694,4.023,10.117,5.872
						c3.46,1.715,6.957,3.505,10.578,4.507c1.776,0.509,3.666,0.865,5.181,0.606l0.554-0.099c0.171-0.047,0.274-0.154,0.42-0.215
						c0.332-0.096,0.432-0.357,0.656-0.521c0.28-0.428,0.405-1.232,0.306-1.809l0.36,0.656c-6.342-6.254-13.016-12.254-19.9-17.923
						c-6.9-5.615-14.096-11.067-22.045-14.788l-3.026-1.203c-1.034-0.248-2.057-0.538-3.098-0.767
						c-2.131-0.266-4.317-0.342-6.52-0.245c-4.406,0.178-8.834,0.792-13.22,1.601c-8.775,1.629-17.473,3.881-26.019,6.514
						L680.625,1200.133z"/>
					<polygon fill="#1B1B43" points="448.979,1132.051 448.079,1130.098 518.765,1097.485 489.324,1028.589 491.301,1027.744 
						521.563,1098.564 					"/>
				</g>
			</g>
			<g>
				<rect x="455.341" y="1433.807" fill="#1B1B43" width="3.75" height="322.959"/>
				<path fill="#D1D1FF" d="M547.51,1448.139H366.92c-12.269,0-22.215-9.946-22.215-22.215v-0.001
					c0-12.269,9.946-22.215,22.215-22.215H547.51c12.27,0,22.215,9.946,22.215,22.215v0.001
					C569.725,1438.192,559.779,1448.139,547.51,1448.139z"/>
				<path fill="#D1D1FF" d="M533.177,1777.786H381.253v-3.669c0-18.449,14.956-33.405,33.405-33.405h85.115
					c18.449,0,33.404,14.956,33.404,33.405V1777.786z"/>
			</g>
			<g>
				<g>
					
						<rect x="534.208" y="1520.02" transform="matrix(0.5336 0.8458 -0.8458 0.5336 1676.2244 4.3591)" fill="#1B1B43" width="599.904" height="3.75"/>
					
						<rect x="832.285" y="1221.944" transform="matrix(0.8456 0.5338 -0.5338 0.8456 941.1671 -210.3108)" fill="#1B1B43" width="3.75" height="599.904"/>
				</g>
				<rect x="553.721" y="1247.483" fill="#D1D1FF" width="560.879" height="42.296"/>
			</g>
		</g>
		<g>
			<path fill="#9192FF" d="M600.737,573.108c-64.631,0-117.213-52.582-117.213-117.213c0-64.632,52.582-117.213,117.213-117.213
				S717.95,391.263,717.95,455.895C717.95,520.526,665.369,573.108,600.737,573.108z M600.737,341.182
				c-63.253,0-114.713,51.46-114.713,114.713c0,63.253,51.459,114.713,114.713,114.713s114.713-51.46,114.713-114.713
				C715.45,392.642,663.991,341.182,600.737,341.182z"/>
			<g>
				<circle fill="#EBEBFF" cx="680" cy="409.966" r="127.534"/>
				<polygon fill="#1B1B43" points="680.045,412.384 609.343,356.957 611.658,354.005 679.955,407.548 718.038,375.3 
					720.462,378.162 				"/>
			</g>
		</g>
		<g>
			<g>
				<path fill="#FFFFFF" d="M349.047,685h-64.761c-10.421,0-18.87,8.448-18.87,18.87v64.761c0,10.421,8.448,18.87,18.87,18.87
					h46.217l19.914,27.5v-27.569c9.78-0.704,17.5-8.841,17.5-18.8V703.87C367.917,693.448,359.469,685,349.047,685z"/>
				<path fill="#9192FF" d="M351.667,818.857l-21.802-30.107h-45.578c-11.094,0-20.12-9.026-20.12-20.12V703.87
					c0-11.094,9.025-20.12,20.12-20.12h64.76c11.094,0,20.12,9.026,20.12,20.12v64.761c0,10.096-7.598,18.634-17.5,19.929V818.857z
					 M284.286,686.25c-9.716,0-17.62,7.904-17.62,17.62v64.761c0,9.715,7.904,17.62,17.62,17.62h46.855l18.025,24.893v-24.875
					l1.159-0.083c9.163-0.66,16.341-8.371,16.341-17.554V703.87c0-9.715-7.904-17.62-17.62-17.62H284.286z"/>
			</g>
			<polygon fill="#9192FF" points="315.339,769.579 289.417,732.135 295.583,727.865 314.661,755.421 343.392,704.004 
				349.94,707.664 			"/>
		</g>
		<rect x="240" y="1774.035" fill="#1B1B43" width="1536.438" height="3.75"/>
	</g>
</g>
</svg>
