<?xml version="1.0" encoding="utf-8"?>
<!-- Generator: Adobe Illustrator 16.0.0, SVG Export Plug-In . SVG Version: 6.00 Build 0)  -->
<!DOCTYPE svg PUBLIC "-//W3C//DTD SVG 1.1//EN" "http://www.w3.org/Graphics/SVG/1.1/DTD/svg11.dtd">
<svg version="1.1" xmlns="http://www.w3.org/2000/svg" xmlns:xlink="http://www.w3.org/1999/xlink" x="0px" y="0px" width="750px"
	 height="500px" viewBox="0 0 750 500" enable-background="new 0 0 750 500" xml:space="preserve">
<g id="BACKGROUND">
	<rect fill="#F8F9FA" width="750" height="500"/>
</g>
<g id="OBJECTS">
	<g>
		<path fill="none" stroke="#7992D9" stroke-miterlimit="10" stroke-dasharray="5,3" d="M306.05,86.51
			c7.175-18.934,29.224-27.862,47.596-29.008c46.498-2.9,72.826,30.831,98.898,64.157c12.799,16.36,31.434,28.655,55.939,28.655
			c36.211,0,100.862-15.42,135.708,20.51c25.646,26.442,35.809,68.192,18.122,107.046c-18.997,41.732-58.21,51.306-99.438,58.918
			c-49.262,9.096-86.639,22.705-116.44,54.269"/>
		<g>
			<path fill="#FF9189" d="M224.261,99.911h26.448l-4.838-4.092V82.66c0-1.43-1.159-2.59-2.59-2.59h-19.021
				c-1.43,0-2.59,1.16-2.59,2.59v14.661C221.671,98.751,222.831,99.911,224.261,99.911z"/>
			<path fill="#FFFFFF" d="M234.183,84.232l1.328,3.468l3.708,0.191c0.74,0.038,1.042,0.969,0.466,1.435l-2.888,2.334l0.964,3.586
				c0.192,0.716-0.6,1.292-1.221,0.887l-3.112-2.025l-3.113,2.025c-0.621,0.404-1.413-0.171-1.221-0.887l0.964-3.586l-2.888-2.334
				c-0.576-0.466-0.274-1.397,0.466-1.435l3.708-0.191l1.328-3.468C232.938,83.54,233.917,83.54,234.183,84.232z"/>
		</g>
		<g>
			<g>
				<path fill="#FF9189" d="M522.372,72.282h-31.52l5.765-4.877V51.723c0-1.705,1.382-3.086,3.087-3.086h22.668
					c1.704,0,3.086,1.382,3.086,3.086v17.472C525.458,70.899,524.076,72.282,522.372,72.282z"/>
			</g>
			<g>
				<path fill="#FFFFFF" d="M514.631,58.95c0.447,0,0.866-0.001,1.286,0c0.683,0.001,1.365,0,2.047,0.008
					c0.495,0.005,0.957,0.132,1.362,0.424c0.86,0.62,0.882,1.86,0.048,2.514c-0.026,0.02-0.052,0.041-0.087,0.068
					c0.411,0.337,0.626,0.755,0.564,1.285c-0.061,0.511-0.277,0.929-0.756,1.172c0.51,0.855,0.352,1.609-0.412,2.096
					c0.058,0.208,0.141,0.406,0.162,0.61c0.076,0.702-0.357,1.236-1.057,1.322c-0.155,0.019-0.313,0.03-0.469,0.03
					c-2.564,0.002-5.13-0.003-7.694,0.006c-0.469,0.001-0.802-0.227-1.109-0.532c-0.025-0.024-0.032-0.076-0.032-0.116
					c-0.001-2.518-0.004-5.036,0.003-7.554c0.001-0.263,0.167-0.468,0.354-0.639c0.4-0.365,0.808-0.724,1.215-1.082
					c0.704-0.619,1.396-1.25,2.047-1.925c0.896-0.93,1.441-2.05,1.828-3.262c0.028-0.089,0.057-0.178,0.087-0.266
					c0.209-0.614,0.702-0.76,1.22-0.672c0.424,0.072,0.744,0.314,0.963,0.685c0.327,0.557,0.383,1.159,0.288,1.783
					c-0.127,0.829-0.468,1.581-0.864,2.309c-0.29,0.532-0.602,1.052-0.902,1.577C514.697,58.833,514.673,58.877,514.631,58.95z"/>
				<path fill="#FFFFFF" d="M503.423,64.176c0-1.25,0-2.5,0-3.751c0-0.387,0.2-0.589,0.585-0.59c0.949,0,1.898,0,2.848,0
					c0.386,0,0.589,0.204,0.589,0.587c0,2.5,0,5.001,0,7.501c0,0.377-0.202,0.58-0.58,0.58c-0.953,0-1.907,0-2.86,0
					c-0.381,0-0.581-0.2-0.581-0.578C503.423,66.676,503.423,65.426,503.423,64.176z"/>
			</g>
		</g>
		<circle fill="none" stroke="#7992D9" stroke-miterlimit="10" cx="456.652" cy="60.459" r="2.093"/>
		<circle fill="none" stroke="#7992D9" stroke-miterlimit="10" cx="276.572" cy="60.459" r="2.093"/>
		<circle fill="none" stroke="#7992D9" stroke-miterlimit="10" cx="585.335" cy="163.76" r="2.093"/>
		<circle fill="none" stroke="#7992D9" stroke-miterlimit="10" cx="186.664" cy="359.992" r="2.093"/>
		<circle fill="none" stroke="#7992D9" stroke-miterlimit="10" cx="235.455" cy="254.947" r="2.093"/>
		<circle fill="none" stroke="#7992D9" stroke-miterlimit="10" cx="175.074" cy="102.851" r="2.093"/>
		<g>
			<line fill="none" stroke="#7992D9" stroke-miterlimit="10" x1="559.631" y1="97.513" x2="559.631" y2="102.309"/>
			<line fill="none" stroke="#7992D9" stroke-miterlimit="10" x1="562.029" y1="99.911" x2="557.233" y2="99.911"/>
		</g>
		<g>
			<line fill="none" stroke="#7992D9" stroke-miterlimit="10" x1="354.888" y1="39.458" x2="354.888" y2="44.253"/>
			<line fill="none" stroke="#7992D9" stroke-miterlimit="10" x1="357.286" y1="41.855" x2="352.49" y2="41.855"/>
		</g>
		<g>
			<line fill="none" stroke="#7992D9" stroke-miterlimit="10" x1="241.418" y1="124.913" x2="241.418" y2="129.708"/>
			<line fill="none" stroke="#7992D9" stroke-miterlimit="10" x1="243.816" y1="127.311" x2="239.021" y2="127.311"/>
		</g>
		<g>
			<line fill="none" stroke="#7992D9" stroke-miterlimit="10" x1="648.59" y1="210.775" x2="648.59" y2="215.571"/>
			<line fill="none" stroke="#7992D9" stroke-miterlimit="10" x1="650.987" y1="213.173" x2="646.191" y2="213.173"/>
		</g>
		<path fill="none" stroke="#7992D9" stroke-miterlimit="10" stroke-dasharray="5,3" d="M294.844,161.833
			c-0.773,16.152-37.545,14.976-48.652,17.583c-47.754,11.207-95.262,39.554-110.813,86.764
			c-15.994,48.556,21.832,101.612,62.277,113.283c38.578,11.133,80.042,1.942,117.171-13.698
			c5.055-2.129,10.781-5.306,11.516-10.968"/>
	</g>
	<g>
		<g>
			<path fill="#FFFFFF" d="M606.247,428.139c-21.902-5.665-44.014-10.524-66.276-14.553c-4.771-0.863-10.011-1.615-14.206,0.816
				c4.373-5.55,3.374-14.346-1.688-19.277c-5.061-4.932-13.325-5.877-19.714-2.858c1.22-9.3,2.43-18.847,0.266-27.973
				c-2.164-9.127-8.471-17.885-17.563-20.187c-11.971-3.03-23.482,5.56-32.857,13.596c-6.467,5.544-13.363,11.837-14.597,20.265
				l-5.037,50.171H606.247z"/>
			<g>
				<path fill="#EDF2F7" d="M606.381,427.656c-14.287-3.687-28.657-7.046-43.104-10.049c-7.063-1.468-14.143-2.852-21.238-4.151
					c-5.492-1.006-11.34-2.24-16.527,0.515c0.229,0.229,0.456,0.456,0.685,0.685c4.267-5.742,3.546-14.185-1.288-19.395
					c-5.258-5.667-13.99-6.467-20.798-3.426c0.251,0.144,0.502,0.288,0.753,0.432c1.996-15.245,3.686-34.145-9.983-44.81
					c-13.488-10.524-29.258-0.075-40.08,9.088c-5.585,4.728-11.656,9.864-14.448,16.836c-1.021,2.552-1.283,5.015-1.552,7.686
					c-0.859,8.563-1.719,17.125-2.579,25.688c-0.715,7.129-1.431,14.257-2.146,21.385c-0.027,0.27,0.251,0.5,0.5,0.5
					c5.667,0,11.334,0,17,0c13.697,0,27.395,0,41.091,0c16.497,0,32.994,0,49.491,0c14.275,0,28.551,0,42.827,0
					c4.737,0,9.475,0,14.212,0c2.021,0,4.781,0.502,6.754,0c0.088-0.021,0.207,0,0.298,0c0.644,0,0.645-1,0-1
					c-12.669,0-25.338,0-38.007,0c-24.954,0-49.907,0-74.861,0c-18.318,0-36.637,0-54.955,0c-0.883,0-2.939-0.404-3.756,0
					c-0.275,0.137,0.317,0.604,0.412,0.442c0.132-0.226,0.081-0.812,0.106-1.061c0.166-1.649,0.331-3.3,0.497-4.949
					c1.175-11.707,2.351-23.415,3.525-35.122c0.299-2.977,0.484-5.992,0.899-8.956c1.456-10.401,11.875-18.156,19.599-24.165
					c8.699-6.769,20.469-13.393,31.412-7.625c10.215,5.382,14.024,17.442,14.195,28.267c0.094,5.963-0.679,11.897-1.451,17.797
					c-0.056,0.419,0.454,0.565,0.752,0.432c6.373-2.847,14.696-2.076,19.586,3.27c4.522,4.943,5.15,12.773,1.131,18.183
					c-0.318,0.43,0.282,0.897,0.685,0.684c5.984-3.178,13.386-0.867,19.626,0.304c6.767,1.271,13.52,2.617,20.257,4.039
					c13.475,2.846,26.881,6.003,40.215,9.444C606.738,428.782,607.004,427.817,606.381,427.656z"/>
			</g>
		</g>
		<g>
			<path fill="#FFFFFF" d="M130.92,428.139c5.146,0,13.328-5.444,18.704-6.745c6.521-1.579,12.712-1.239,19.487-1.128
				c1.806,0.029,3.714,0.033,5.278-0.871c2.763-1.597,3.34-5.227,4.275-8.278c2.162-7.055,7.878-12.92,14.875-15.263
				c6.997-2.344,15.093-1.103,21.067,3.228c-1.518-15.466,1.767-32.132,12.354-43.507c16.537-17.769,39.68-11.86,56,2.129
				c6.467,5.544,13.363,11.837,14.597,20.265l5.037,50.171C302.593,428.139,130.954,428.139,130.92,428.139z"/>
			<g>
				<path fill="#EDF2F7" d="M130.92,428.639c7.046-0.238,12.998-5.496,19.766-6.977c5.108-1.117,10.356-1.051,15.554-0.952
					c3.419,0.065,7.519,0.664,10.002-2.243c2.309-2.701,2.468-6.707,3.902-9.852c1.8-3.944,4.747-7.363,8.365-9.749
					c7.874-5.192,18.191-4.691,25.843,0.647c0.298,0.207,0.787-0.065,0.752-0.433c-1.929-20.783,5.672-47.563,28.686-53.144
					c9.713-2.356,19.88,0.216,28.475,4.934c4.625,2.539,8.763,5.742,12.699,9.237c4.003,3.555,8,7.452,10.351,12.339
					c1.88,3.908,1.995,8.052,2.418,12.275c0.613,6.11,1.227,12.221,1.84,18.33c0.607,6.052,1.215,12.103,1.822,18.153
					c0.186,1.854,0.372,3.709,0.559,5.563c0.026,0.267-0.038,0.956,0.118,1.176c0.225,0.316,0.429-0.313,0.45-0.307
					c-1.107-0.328-2.818,0-3.958,0c-3.098,0-6.196,0-9.294,0c-10,0-19.999,0-29.998,0c-26.238,0-52.476,0-78.714,0
					c-10.75,0-21.5,0-32.25,0c-5.532,0-11.101-0.188-16.629,0c-0.253,0.009-0.507,0-0.76,0
					C130.277,427.639,130.276,428.639,130.92,428.639c5.691,0,11.383,0,17.074,0c13.66,0,27.319,0,40.979,0
					c16.527,0,33.053,0,49.58,0c14.292,0,28.583,0,42.875,0c4.695,0,9.391,0,14.087,0c2.02,0,4.801,0.504,6.778,0
					c0.087-0.022,0.207,0,0.299,0c0.25,0,0.527-0.229,0.5-0.5c-1.621-16.143-3.241-32.286-4.862-48.429
					c-0.43-4.285-1.87-8.141-4.405-11.674c-4.666-6.503-11.486-12.159-18.25-16.386c-12.533-7.829-28.703-10.89-41.769-2.496
					c-16.419,10.548-21.402,31.594-19.701,49.927c0.251-0.144,0.501-0.287,0.752-0.432c-10.376-7.239-24.75-5.331-32.621,4.657
					c-1.652,2.098-2.954,4.451-3.828,6.976c-1.16,3.35-1.526,8.061-5.568,9.203c-1.786,0.506-3.821,0.279-5.652,0.244
					c-2.179-0.042-4.36-0.095-6.54-0.063c-3.587,0.051-7.192,0.325-10.694,1.139c-6.503,1.512-12.255,6.604-19.035,6.834
					C130.278,427.66,130.275,428.661,130.92,428.639z"/>
			</g>
		</g>
		<g>
			<g>
				<path fill="#E3EDF9" d="M446.735,418.16c11.995-25.952,26.004-51.79,45.17-72.001c9.426-9.94,19.38-19.888,31.362-26.738
					c10.53-6.021,37.351-15.819,40.767,3.434c0.813,4.586-0.505,9.347-2.755,13.425c-6.541,11.853-18.021,18.24-28.33,26.285
					c-8.568,6.687-52.955,33.333-80.821,59.77"/>
			</g>
			<path fill="none" stroke="#FFFFFF" stroke-miterlimit="10" d="M548.582,327.298c-54.551,26.074-79.169,67.283-101.689,99.79"/>
		</g>
		<g>
			<g>
				<path fill="#E3EDF9" d="M437.089,365.241c-2.649-52.96-1.891-107.466,12.185-157.172c9.277-32.762,20.818-67.893,45.334-92.777
					c9.681-9.826,25.807-15.588,40.147-10.348c17.115,6.253,21.026,25.741,21.034,41.443c0.014,26.798-10.598,51.74-24.195,74.353
					c-25.75,42.824-70.771,82.329-79.365,133.453c-0.147,0.892-0.282,1.785-0.405,2.681"/>
			</g>
			<path fill="none" stroke="#FFFFFF" stroke-miterlimit="10" d="M520.398,127.311c-60.651,92.245-60.23,179.892-64.746,251.956"/>
		</g>
		<g>
			<g>
				<path fill="#C4D5F2" d="M275.007,333.932c2.109-40.083,0.301-86.341-7.383-124.902c-12.597-63.212-65.136-91.646-83.236-69.918
					c-4.312,5.176-5.883,11.954-5.723,18.491c0.813,33.274,19.122,62.552,35.708,91.009c17.522,30.063,36.721,60.438,47.498,93.289
					c2.571,7.837,4.941,15.73,7.145,23.662"/>
			</g>
			<path fill="none" stroke="#FFFFFF" stroke-miterlimit="10" d="M197.923,150.314c22.426,22.205,72.823,135.524,75.991,198.256"/>
			<path fill="none" stroke="#FFFFFF" stroke-miterlimit="10" d="M239.986,226.616c0,0,13.534-42.391,8.813-62.855"/>
			<path fill="none" stroke="#FFFFFF" stroke-miterlimit="10" d="M244.198,236.875c0,0-29.643-3.612-42.203-7.963"/>
			<path fill="none" stroke="#FFFFFF" stroke-miterlimit="10" d="M218,179.665c0,0-26.94-6.4-38.375-10.713"/>
			<path fill="none" stroke="#FFFFFF" stroke-miterlimit="10" d="M230.722,205.695c0,0,9.542-39.929,6.835-55.38"/>
			<path fill="none" stroke="#FFFFFF" stroke-miterlimit="10" d="M252.037,257.479c0,0-21.537-2.532-37.663-8.868"/>
		</g>
		<g>
			<g>
				<g>
					<path fill="#7992D9" d="M309.595,412.881c-12.105-35.604-25.234-71.703-45.516-103.59
						c-17.615-27.693-42.587-51.386-73.632-63.153c-10.967-4.157-23.158-7.06-34.946-5.614c-8.233,1.009-16.507,4.622-20.518,12.285
						c-7.994,15.271,3.021,32.617,13.565,43.428c6.146,6.301,13.13,11.7,19.997,17.178c8.004,6.386,15.705,13.139,23.644,19.605
						c16.623,13.542,33.928,26.213,50.417,39.922c16.025,13.323,31.43,27.409,45.776,42.534c3.53,3.723,7.003,7.501,10.429,11.319
						c0.26,0.29,0.676-0.134,0.425-0.426c-26.319-30.608-57.751-55.716-89.479-80.402c-15.655-12.181-30.695-25.097-46.153-37.518
						c-13.241-10.641-29.43-24.572-30.422-42.908c-0.616-11.379,6.124-20.135,16.852-23.137c10.674-2.986,22.423-1.099,32.842,1.999
						c30.673,9.122,56.752,31.125,74.98,56.934c21.264,30.11,34.741,65.094,47.172,99.545c1.45,4.02,2.904,8.038,4.343,12.062
						C309.419,413.084,309.644,413.025,309.595,412.881L309.595,412.881z"/>
				</g>
			</g>
			<path fill="none" stroke="#7992D9" stroke-miterlimit="10" d="M152.824,261.523c32.668,12.663,64.449,43.534,89.049,72.026
				c24.6,28.491,45.054,60.943,65.376,93.214"/>
			<path fill="none" stroke="#7992D9" stroke-miterlimit="10" d="M207.247,297.251c0,0-4.191-35.312-7.053-46.482"/>
			<path fill="none" stroke="#7992D9" stroke-miterlimit="10" d="M216.884,306.756c0,0-1.736-39.955-4.245-49.125"/>
			<path fill="none" stroke="#7992D9" stroke-miterlimit="10" d="M155.258,302.008c0,0,24.895-8.95,46.292-9.393"/>
			<path fill="none" stroke="#7992D9" stroke-miterlimit="10" d="M191.993,332.343c0,0,28.139-5.511,45.979-3.257"/>
			<path fill="none" stroke="#7992D9" stroke-miterlimit="10" d="M179.645,322.411c0,0,29.85-5.814,47.263-5.438"/>
		</g>
		<g>
			<g>
				<g>
					<path fill="#7992D9" d="M451.703,420.873c1.172-37.047,3.95-74.576,15.856-109.938c9.469-28.124,22.02-59.477,48.394-75.887
						c4.873-3.031,10.546-5.64,16.411-5.457c6.648,0.208,11.937,4.685,14.89,10.429c5.674,11.035,1.758,24.465-3.19,35.026
						c-4.539,9.685-10.678,18.559-16.998,27.149c-7.276,9.893-14.947,19.488-22.286,29.333
						c-16.586,22.248-31.504,46.043-39.439,72.852c-1.079,3.646-1.997,7.331-2.789,11.05c-0.08,0.376,0.49,0.538,0.58,0.16
						c7.004-29.328,21.591-55.287,39.256-79.462c7.7-10.538,15.853-20.733,23.652-31.196c6.66-8.934,13.188-18.121,18.089-28.163
						c4.655-9.54,8.488-20.996,5.863-31.646c-1.486-6.03-5.345-12.055-11.101-14.787c-4.634-2.199-9.888-1.806-14.638-0.203
						c-11.143,3.759-20.691,12.721-28.138,21.542c-10.729,12.713-17.722,28.275-23.664,43.67
						c-6.852,17.751-12.063,35.816-15.242,54.591c-3.167,18.706-4.73,37.671-5.408,56.621c-0.171,4.771-0.27,9.542-0.332,14.315
						C451.467,421.024,451.698,421.023,451.703,420.873L451.703,420.873z"/>
				</g>
			</g>
			<path fill="none" stroke="#7992D9" stroke-miterlimit="10" d="M529.439,251.664c-54.021,62.368-62.344,127.344-72.788,180.291"/>
			<path fill="none" stroke="#7992D9" stroke-miterlimit="10" d="M506.573,282.127c0,0,0.632-23.533-1.431-39.251"/>
			<path fill="none" stroke="#7992D9" stroke-miterlimit="10" d="M493.781,304.306c0,0-4.651-28.069-6.998-38.6"/>
			<path fill="none" stroke="#7992D9" stroke-miterlimit="10" d="M497.955,296.506c0,0,22.796-8.838,39.763-9.115"/>
			<path fill="none" stroke="#7992D9" stroke-miterlimit="10" d="M502.815,288.151c0,0,19.763-8.195,39.526-8.77"/>
			<path fill="none" stroke="#7992D9" stroke-miterlimit="10" d="M487.447,317.517c0,0,18.456-8.081,36.076-8.979"/>
			<path fill="none" stroke="#7992D9" stroke-miterlimit="10" d="M477.656,342.509c0,0,10.646-5.269,25.803-7.422"/>
		</g>
	</g>
	<g>
		<path fill="#7992D9" d="M458.701,434.821H291.299c-12.571,0-22.762-10.19-22.762-22.762V101.039
			c0-12.571,10.191-22.762,22.762-22.762h167.402c12.571,0,22.763,10.191,22.763,22.762V412.06
			C481.464,424.631,471.272,434.821,458.701,434.821z"/>
		<rect x="278.761" y="102.851" fill="#DFEAF7" width="192.477" height="307.396"/>
		<g>
			<path fill="#C9DAF0" d="M392.21,92.794h-34.42c-0.917,0-1.659-0.743-1.659-1.659s0.742-1.659,1.659-1.659h34.42
				c0.917,0,1.659,0.743,1.659,1.659S393.127,92.794,392.21,92.794z"/>
		</g>
		<g>
			<g>
				<g>
					<circle fill="#C9DAF0" cx="375" cy="423.258" r="7.018"/>
				</g>
			</g>
		</g>
		<path fill="none" stroke="#FFFFFF" stroke-width="2" stroke-miterlimit="10" d="M278.761,116.611H457.85
			c3.167,0,5.733,2.566,5.733,5.732v89.84c0,3.166-2.566,5.732-5.733,5.732H278.761"/>
		<g>
			<g>
				<path fill="#FFFFFF" d="M531.879,209.019h-183.53l20.897-17.677v-62.244c0-3.195,2.59-5.786,5.786-5.786h156.848
					c3.195,0,5.786,2.59,5.786,5.786v74.136C537.665,206.429,535.074,209.019,531.879,209.019z"/>
				<g opacity="0.55">
					<rect x="383.415" y="155.428" fill="#E3EDF9" width="144.746" height="3.396"/>
					<rect x="383.415" y="162.085" fill="#E3EDF9" width="144.746" height="3.396"/>
					<rect x="383.415" y="168.742" fill="#E3EDF9" width="144.746" height="3.396"/>
				</g>
				<path fill="#E3EDF9" d="M488.386,148.692H385.758c-1.294,0-2.343-1.049-2.343-2.343v-9.81c0-1.294,1.049-2.343,2.343-2.343
					h102.628c1.294,0,2.343,1.049,2.343,2.343v9.81C490.729,147.643,489.68,148.692,488.386,148.692z"/>
				<g>
					<path fill="#FF9189" d="M395.214,178.345l2.143,5.596l5.983,0.308c1.193,0.062,1.682,1.564,0.752,2.315l-4.659,3.767
						l1.556,5.786c0.311,1.155-0.968,2.083-1.97,1.432l-5.022-3.268l-5.021,3.268c-1.003,0.652-2.28-0.276-1.97-1.432l1.556-5.786
						l-4.66-3.767c-0.93-0.751-0.441-2.254,0.753-2.315l5.983-0.308l2.143-5.596C393.206,177.228,394.786,177.228,395.214,178.345z"
						/>
					<path fill="#FF9189" d="M426.109,178.345l2.143,5.596l5.983,0.308c1.194,0.062,1.683,1.564,0.752,2.315l-4.659,3.767
						l1.556,5.786c0.311,1.155-0.968,2.083-1.97,1.432l-5.021-3.268l-5.022,3.268c-1.002,0.652-2.28-0.276-1.97-1.432l1.556-5.786
						l-4.659-3.767c-0.93-0.751-0.441-2.254,0.752-2.315l5.983-0.308l2.143-5.596C424.103,177.228,425.682,177.228,426.109,178.345z
						"/>
					<path fill="#FF9189" d="M457.006,178.345l2.142,5.596l5.983,0.308c1.194,0.062,1.683,1.564,0.753,2.315l-4.66,3.767
						l1.557,5.786c0.311,1.155-0.968,2.083-1.971,1.432l-5.021-3.268l-5.021,3.268c-1.003,0.652-2.281-0.276-1.971-1.432
						l1.556-5.786l-4.659-3.767c-0.93-0.751-0.441-2.254,0.753-2.315l5.983-0.308l2.142-5.596
						C454.998,177.228,456.578,177.228,457.006,178.345z"/>
					<g>
						<g>
							<path fill="#FF9189" d="M486.684,178.507c0.096,0,0.222,0.034,0.283,0.195l2.143,5.596l0.232,0.607l0.65,0.034l5.983,0.308
								c0.173,0.009,0.244,0.119,0.273,0.209c0.029,0.091,0.036,0.222-0.099,0.33l-4.659,3.766l-0.506,0.409l0.169,0.628
								l1.556,5.786c0.017,0.063,0.031,0.158-0.044,0.256c-0.062,0.08-0.16,0.131-0.251,0.131c-0.055,0-0.108-0.018-0.164-0.054
								l-5.021-3.268l-0.546-0.355l-0.545,0.355l-5.022,3.268c-0.056,0.036-0.108,0.054-0.163,0.054
								c-0.092,0-0.189-0.051-0.251-0.131c-0.075-0.098-0.062-0.193-0.045-0.256l1.557-5.786l0.169-0.628l-0.506-0.409l-4.66-3.766
								c-0.134-0.108-0.127-0.239-0.098-0.33c0.029-0.09,0.101-0.201,0.273-0.209l5.983-0.308l0.649-0.034l0.232-0.607l2.143-5.595
								C486.462,178.541,486.589,178.507,486.684,178.507 M486.684,177.507c-0.502,0-1.004,0.279-1.217,0.837l-2.143,5.596
								l-5.983,0.308c-1.194,0.062-1.683,1.564-0.753,2.315l4.66,3.767l-1.556,5.786c-0.239,0.891,0.466,1.647,1.261,1.647
								c0.236,0,0.479-0.066,0.709-0.215l5.021-3.268l5.022,3.268c0.229,0.149,0.473,0.215,0.709,0.215
								c0.795,0,1.5-0.756,1.261-1.647l-1.556-5.786l4.659-3.767c0.93-0.751,0.441-2.254-0.752-2.315l-5.983-0.308l-2.143-5.596
								C487.688,177.787,487.186,177.507,486.684,177.507L486.684,177.507z"/>
						</g>
					</g>
					<g>
						<g>
							<path fill="#FF9189" d="M517.58,178.507c0.095,0,0.222,0.034,0.283,0.195l2.143,5.595l0.232,0.607l0.649,0.034l5.983,0.308
								c0.173,0.009,0.244,0.119,0.273,0.209c0.029,0.091,0.036,0.222-0.098,0.33l-4.66,3.766l-0.506,0.409l0.169,0.628l1.556,5.786
								c0.018,0.063,0.031,0.158-0.044,0.256c-0.062,0.08-0.159,0.131-0.251,0.131c-0.055,0-0.107-0.018-0.163-0.054l-5.022-3.268
								l-0.545-0.355l-0.546,0.355l-5.021,3.268c-0.056,0.036-0.109,0.054-0.163,0.054c-0.092,0-0.19-0.051-0.252-0.131
								c-0.075-0.098-0.061-0.193-0.044-0.256l1.556-5.786l0.169-0.628l-0.506-0.409l-4.659-3.766
								c-0.135-0.108-0.128-0.239-0.099-0.33c0.03-0.09,0.102-0.201,0.273-0.209l5.983-0.308l0.65-0.034l0.232-0.607l2.142-5.595
								C517.357,178.541,517.484,178.507,517.58,178.507 M517.58,177.507c-0.502,0-1.004,0.279-1.218,0.837l-2.143,5.596
								l-5.983,0.308c-1.193,0.062-1.682,1.564-0.752,2.315l4.659,3.767l-1.556,5.786c-0.239,0.891,0.466,1.647,1.262,1.647
								c0.235,0,0.479-0.066,0.708-0.215l5.022-3.268l5.021,3.268c0.229,0.149,0.473,0.215,0.709,0.215
								c0.795,0,1.501-0.756,1.261-1.647l-1.556-5.786l4.66-3.767c0.93-0.751,0.441-2.254-0.753-2.315l-5.983-0.308l-2.143-5.596
								C518.583,177.787,518.082,177.507,517.58,177.507L517.58,177.507z"/>
						</g>
					</g>
					<g>
						<path fill="#FF9189" d="M486.684,177.507c-0.502,0-1.004,0.279-1.217,0.837l-2.143,5.596l-5.983,0.308
							c-1.194,0.062-1.683,1.564-0.753,2.315l4.66,3.767l-1.556,5.786c-0.311,1.155,0.968,2.083,1.97,1.431l5.021-3.268v0V177.507z"
							/>
					</g>
				</g>
			</g>
			<g>
				<circle fill="#FFFFFF" cx="322.246" cy="170.419" r="35.276"/>
				<circle fill="#C9DAF0" cx="322.246" cy="170.419" r="33"/>
				<g>
					<defs>
						<circle id="SVGID_1_" cx="322.246" cy="170.419" r="33"/>
					</defs>
					<clipPath id="SVGID_2_">
						<use xlink:href="#SVGID_1_"  overflow="visible"/>
					</clipPath>
					<g clip-path="url(#SVGID_2_)">
						<path fill="none" stroke="#FFFFFF" stroke-miterlimit="10" d="M301.182,182.327c6.734-7.707,16.774-7.54,16.774-7.54
							l9.913-0.167c0,0,8.826,1.162,14.132,5.508c15.884,13.01,13.246,35.861,13.246,35.861s-64.419-13.945-64.51-14.399
							S296.685,187.474,301.182,182.327z"/>
						<path fill="#FEE5E6" d="M329.008,155.807c2.005,8.089-1.64,14.13-4.763,14.6c-4.469,0.672-6.966-1.525-8.283-5.51
							c-0.582-1.761-1.443-8.426,0.415-10.383C319.462,151.263,327.301,148.918,329.008,155.807z"/>
						<path fill="#FEE5E6" d="M318.47,166.637l-0.454,7.438c0,0-1.042,3.377,5.074,3.377s4.642-3.377,4.642-3.377l-0.999-8.241"/>
					</g>
					<path clip-path="url(#SVGID_2_)" fill="none" stroke="#F2B6AA" stroke-width="0.5" stroke-miterlimit="10" d="M318.173,168.967
						c0,0,1.17,2.08,4.354,2.08s4.679-2.47,4.679-2.47"/>
					<g clip-path="url(#SVGID_2_)">
						<path fill="#7992D9" d="M314.896,150.867c4.068-3.514,11.638-4.437,15.743-0.224c4.867,4.995,7.169,12.368,6.01,19.246
							c-0.053,0.314-0.119,0.641-0.32,0.888c-0.286,0.35-0.77,0.454-1.216,0.525c-1.326,0.249-2.705,0.334-4.051,0.358
							c-1.201,0.022-2.317-0.187-3.513-0.126c-0.073,0.003-0.147,0.007-0.215-0.021c-0.166-0.066-0.211-0.275-0.233-0.452
							c-0.064-0.509-0.128-1.018-0.192-1.526c-0.026-0.206-0.052-0.417-0.013-0.621c0.044-0.233,0.167-0.441,0.282-0.648
							c0.825-1.498,1.46-3.278,1.463-4.987c0.004-1.881-0.478-3.72-0.952-5.526c-0.642-2.445-2.033-1.82-3.82-1.155
							c-1.381,0.514-2.96,0.488-4.313-0.096c-0.705-0.304-1.375-0.759-2.142-0.801c-3.034-0.165-1.795,6.085-1.49,7.625
							c0.326,1.646,0.581,3.264,1.757,4.546c0.19,0.207,0.396,0.403,0.542,0.643c0.217,0.355,0.286,0.779,0.335,1.192
							c0.073,0.62,0.112,1.243,0.115,1.867c-1.329,0.003-2.627,0.123-3.947,0.121c-1.436-0.002-2.873-0.159-4.305-0.159
							c-0.386-0.028-0.808-0.075-1.079-0.352c-0.329-0.334-0.311-0.865-0.27-1.332C309.653,163.133,309.661,155.389,314.896,150.867
							z"/>
					</g>
					<g clip-path="url(#SVGID_2_)">
						<path fill="#FEE5E6" d="M316.27,161.913c-0.376-0.419-1.198-0.494-1.674-0.152c-0.415,0.297-0.521,0.792-0.548,1.246
							c-0.026,0.437-0.002,0.883,0.174,1.295c0.176,0.412,0.521,0.789,1.001,0.968c0.48,0.179,1.099,0.126,1.465-0.188"/>
					</g>
					<g clip-path="url(#SVGID_2_)">
						<path fill="#FEE5E6" d="M328.745,161.913c0.376-0.419,1.198-0.494,1.674-0.152c0.415,0.297,0.521,0.792,0.548,1.246
							c0.026,0.437,0.002,0.883-0.174,1.295c-0.176,0.412-0.521,0.789-1.001,0.968c-0.48,0.179-1.099,0.126-1.465-0.188"/>
					</g>
				</g>
			</g>
		</g>
		<g>
			<g>
				<g>
					<circle fill="#FFFFFF" cx="316.973" cy="270.654" r="22.928"/>
					<circle fill="#C9DAF0" cx="316.973" cy="270.654" r="21.449"/>
					<g>
						<defs>
							<circle id="SVGID_3_" cx="316.973" cy="270.654" r="21.449"/>
						</defs>
						<clipPath id="SVGID_4_">
							<use xlink:href="#SVGID_3_"  overflow="visible"/>
						</clipPath>
						<g clip-path="url(#SVGID_4_)">
							<path fill="none" stroke="#FFFFFF" stroke-miterlimit="10" d="M331.793,278.812c-3.794-4.478-11.504-4.446-11.504-4.446
								l-5.684-0.096c0,0-7.394,0.105-10.743,3.669c-7.162,7.622-5.717,18.798-5.717,18.798s37.7,0.228,37.752-0.032
								C335.95,296.443,335.711,283.438,331.793,278.812z"/>
							<path fill="#EFC5C8" d="M313.952,263.481c-1.15,4.638,0.94,8.103,2.731,8.371c2.563,0.386,3.994-0.874,4.75-3.159
								c0.334-1.01,0.828-4.831-0.238-5.954C319.425,260.876,314.931,259.531,313.952,263.481z"/>
							<g>
								<path fill="#E3EDF9" d="M317.921,262.605c-0.304-0.042-0.614-0.023-0.916-0.077c-0.401-0.072-0.766-0.285-1.053-0.586
									c-0.643-0.674-1.902,2.146-1.902,2.146c-0.239,1.445-0.392,2.776-0.062,4.359c-0.888-0.573-1.709-1.285-2.25-2.192
									c-0.541-0.908-0.777-2.031-0.475-3.044c0.331-1.11,1.236-1.942,1.826-2.939c0.318-0.537,0.551-1.134,0.976-1.591
									c0.457-0.492,1.095-0.776,1.735-0.979c1.174-0.373,2.438-0.516,3.646-0.275s2.355,0.884,3.087,1.874
									c0.801,1.085,1.051,2.479,1.143,3.824c0.102,1.502-0.018,3.155-1.034,4.267c-0.273,0.299-0.782,0.535-1.046,0.229
									c-0.156-0.183-0.122-0.454-0.088-0.691c0.132-0.954,0.049-2.034-0.636-2.711c-0.404-0.4-0.942-0.581-1.438-0.834
									C318.905,263.114,318.522,262.688,317.921,262.605z"/>
							</g>
							<path fill="#EFC5C8" d="M319.994,269.691l0.26,4.266c0,0,0.598,1.936-2.91,1.936s-2.662-1.936-2.662-1.936l0.573-4.726"/>
						</g>
						<path clip-path="url(#SVGID_4_)" fill="none" stroke="#E09DA5" stroke-width="0.5" stroke-miterlimit="10" d="
							M319.983,271.016c0,0-0.647,1.369-2.41,1.369c-1.762,0-2.589-1.626-2.589-1.626"/>
					</g>
				</g>
			</g>
			<g>
				<path opacity="0.65" fill="#FFFFFF" d="M354.792,294.302h96.396c2.083,0,3.771-1.688,3.771-3.771v-39.752
					c0-2.083-1.688-3.772-3.771-3.772h-96.396c-2.083,0-3.772,1.689-3.772,3.772v39.752
					C351.021,292.613,352.709,294.302,354.792,294.302z"/>
				<g opacity="0.55">
					<rect x="356.265" y="265.281" fill="#E3EDF9" width="90.877" height="3.33"/>
					<rect x="356.265" y="271.81" fill="#E3EDF9" width="90.877" height="3.33"/>
					<rect x="356.265" y="278.338" fill="#E3EDF9" width="90.877" height="3.33"/>
					<rect x="356.265" y="284.866" fill="#E3EDF9" width="29.243" height="3.331"/>
				</g>
				<g opacity="0.55">
					<path fill="#E3EDF9" d="M422.697,286.063c0,0.284-0.058,0.555-0.16,0.8l0.555,1.103l-1.204-0.27
						c-0.318,0.237-0.71,0.377-1.133,0.377c-1.072,0-1.942-0.9-1.942-2.01c0-1.11,0.87-2.01,1.942-2.01
						S422.697,284.952,422.697,286.063z"/>
					<path fill="#E3EDF9" d="M435.562,285.335c0-0.626-0.49-1.133-1.096-1.133c-0.604,0-1.095,0.507-1.095,1.133
						c0-0.626-0.491-1.133-1.096-1.133c-0.605,0-1.096,0.507-1.096,1.133c0,0.313,0.122,0.597,0.32,0.802l0,0l1.871,1.936
						l1.87-1.936C435.439,285.932,435.562,285.648,435.562,285.335z"/>
					<g>
						<rect x="441.761" y="284.202" fill="#E3EDF9" width="5.381" height="0.82"/>
						<rect x="441.761" y="285.896" fill="#E3EDF9" width="5.381" height="0.821"/>
						<rect x="441.761" y="287.592" fill="#E3EDF9" width="5.381" height="0.82"/>
					</g>
				</g>
				<path fill="#E3EDF9" d="M415.361,261.012h-57.917c-0.652,0-1.18-0.528-1.18-1.18v-5.641c0-0.651,0.528-1.18,1.18-1.18h57.917
					c0.651,0,1.179,0.528,1.179,1.18v5.641C416.54,260.483,416.013,261.012,415.361,261.012z"/>
			</g>
			<path fill="none" stroke="#FFFFFF" stroke-miterlimit="10" d="M457.85,304.675h-165.7c-3.166,0-5.733-2.566-5.733-5.733v-56.575
				c0-3.166,2.567-5.733,5.733-5.733h165.7c3.167,0,5.733,2.567,5.733,5.733v56.575C463.583,302.108,461.017,304.675,457.85,304.675
				z"/>
		</g>
		<g>
			<circle fill="#FFFFFF" cx="316.973" cy="358.038" r="22.928"/>
			<circle fill="#C9DAF0" cx="316.973" cy="358.038" r="21.449"/>
			<g>
				<path opacity="0.65" fill="#FFFFFF" d="M354.792,381.687h96.396c2.083,0,3.771-1.689,3.771-3.772v-39.752
					c0-2.083-1.688-3.772-3.771-3.772h-96.396c-2.083,0-3.772,1.689-3.772,3.772v39.752
					C351.021,379.997,352.709,381.687,354.792,381.687z"/>
				<g opacity="0.55">
					<rect x="356.265" y="352.665" fill="#E3EDF9" width="90.877" height="3.33"/>
					<rect x="356.265" y="359.193" fill="#E3EDF9" width="90.877" height="3.33"/>
					<rect x="356.265" y="365.722" fill="#E3EDF9" width="90.877" height="3.331"/>
					<rect x="356.265" y="372.25" fill="#E3EDF9" width="29.243" height="3.331"/>
				</g>
				<g opacity="0.55">
					<path fill="#E3EDF9" d="M422.697,373.446c0,0.284-0.058,0.555-0.16,0.8l0.555,1.103l-1.204-0.27
						c-0.318,0.237-0.71,0.377-1.133,0.377c-1.072,0-1.942-0.899-1.942-2.01c0-1.109,0.87-2.01,1.942-2.01
						S422.697,372.337,422.697,373.446z"/>
					<path fill="#E3EDF9" d="M435.562,372.72c0-0.626-0.49-1.134-1.096-1.134c-0.604,0-1.095,0.508-1.095,1.134
						c0-0.626-0.491-1.134-1.096-1.134c-0.605,0-1.096,0.508-1.096,1.134c0,0.313,0.122,0.596,0.32,0.801l0,0l1.871,1.936
						l1.87-1.936C435.439,373.315,435.562,373.032,435.562,372.72z"/>
					<g>
						<rect x="441.761" y="371.586" fill="#E3EDF9" width="5.381" height="0.82"/>
						<rect x="441.761" y="373.28" fill="#E3EDF9" width="5.381" height="0.821"/>
						<rect x="441.761" y="374.976" fill="#E3EDF9" width="5.381" height="0.821"/>
					</g>
				</g>
				<path fill="#E3EDF9" d="M415.361,348.396h-57.917c-0.652,0-1.18-0.528-1.18-1.18v-5.641c0-0.651,0.528-1.179,1.18-1.179h57.917
					c0.651,0,1.179,0.527,1.179,1.179v5.641C416.54,347.867,416.013,348.396,415.361,348.396z"/>
			</g>
			<path fill="none" stroke="#FFFFFF" stroke-miterlimit="10" d="M457.85,392.059h-165.7c-3.166,0-5.733-2.566-5.733-5.732V329.75
				c0-3.166,2.567-5.732,5.733-5.732h165.7c3.167,0,5.733,2.566,5.733,5.732v56.576C463.583,389.492,461.017,392.059,457.85,392.059
				z"/>
		</g>
	</g>
	<g>
		<g>
			<path fill="#FFDFD9" d="M508.155,210.5c-0.374-1.038-0.748-2.075-1.122-3.113c-0.192-0.534-0.39-1.077-0.727-1.535
				s-0.839-0.827-1.405-0.867c-0.543-0.039-0.719-0.277-1.042-0.668c-0.507-0.612-1.111-1.142-1.762-1.597
				c-0.565-0.396-1.38-1.023-2.094-1.052c-0.409-0.017-0.281,0.402-0.132,0.644c0.715,1.156,1.869,1.766,2.744,2.939
				c-0.701,0.144-1.232,0.96-1.295,1.065c-0.2,0.336-0.396,0.752-0.448,1.146c-0.063,0.466,0.057,0.938,0.052,1.408
				c-0.003,0.305-0.059,0.614,0.004,0.914c0.045,0.215,0.149,0.413,0.274,0.594c0.456,0.657,1.267,1.059,2.056,1.14
				c0.238,0.024,0.532-0.017,0.625-0.237c0.082,0.387,0.387,0.695,0.733,0.886c0.346,0.191,0.736,0.285,1.116,0.394
				c0.088,0.025,0.178,0.053,0.249,0.11c0.08,0.065,0.127,0.16,0.175,0.251c0.246,0.473,0.561,0.91,0.932,1.292"/>
		</g>
		<g>
			<path id="XMLID_228_" fill="#223554" d="M566.914,433.587c0,0,2.139,4.211,0.657,5.277c-1.128,0.813-17.264,1.249-17.683-0.865
				c-0.242-1.222,12.96-4.746,12.96-4.746l4.808-3.906L566.914,433.587z"/>
			<path id="XMLID_227_" fill="#FFDFD9" d="M559.092,312.721c0,0-4.284,27.19-4.284,49.853c0,32.712,7.583,68.365,8.041,70.68
				c1.813,1.188,4.065,0.334,4.065,0.334s9.677-28.549,10.718-36.996c1.592-12.91-2.871-27.434-2.871-27.434
				s7.669-23.429,10.53-40.201C586.574,321.434,559.092,312.721,559.092,312.721z"/>
			<path id="XMLID_120_" fill="#223554" d="M611.87,433.587c0,0,2.14,4.211,0.657,5.277c-1.128,0.813-17.264,1.249-17.683-0.865
				c-0.241-1.222,12.96-4.746,12.96-4.746l4.809-3.906L611.87,433.587z"/>
			<path id="XMLID_115_" fill="#FFDFD9" d="M594.799,312.721c0,0,0.232,29.431,0,49.853c-0.384,33.684,12.548,68.365,13.006,70.68
				c1.813,1.188,4.065,0.334,4.065,0.334s5.446-22.905,6.184-36.996c0.678-12.961-2.871-27.434-2.871-27.434
				s3.15-25.17,6.012-41.942C622.478,319.692,594.799,312.721,594.799,312.721z"/>
		</g>
		<path id="XMLID_226_" fill="#F7471E" d="M557.435,293.834c0,0-4.229,12.128-5.163,44.582c-0.251,8.713-0.212,11.577,0.819,21.821
			c34.01,8.584,66.771,1.094,66.771,1.094s8.528-41.423-0.288-58.242c-7.811-14.9-15.633-23.598-15.633-23.598"/>
		<path fill="#FF9189" d="M614.768,231.857c0,0,4.155,43.333,4.191,47.514c0.141,16.158,6.309,26.154,4.809,27.654
			c-2.667,2.666-61.667,6.333-68,0c0-8.334,1.986-34.269,2.333-39.334c1.667-24.333,9.431-47.91,9.431-47.91
			s-1.123-6.98,23.187-6.291C602.01,213.491,611.305,217.074,614.768,231.857z"/>
		<path fill="#1473E6" d="M576.075,214.267c0,0-12.995,0-25.493,7.421c-11.323,6.724-17.147,13.67-23.147,13.67
			s-19.817-26.283-19.817-26.283l-2.333,3.711c0,0,4.313,38.907,20.15,43.535c21.187,6.19,44-10.726,44-10.726"/>
		<g id="XMLID_370_">
			<path id="XMLID_30_" fill="#1473E6" d="M591.787,213.491c0,0-3.044,13.621-3.044,44.009c0,14.688,1.467,60.523,1.467,60.523
				s21.232,2.114,34.567-5.989c-1.376-14.055,0.912-57.461-4.693-75.173c-3.503-11.07-2.609-17.625-8.734-20.601
				C601.2,213.65,597.96,213.726,591.787,213.491z"/>
			<path id="XMLID_5_" fill="#1473E6" d="M576.075,214.267c0,0-3.067,25.071-4.401,47.827c-1.333,22.756,0,54.917,0,54.917
				s-15.129-2.174-19.531-7.262c1.141-15.283,3.351-57.735,6.827-71.445C563.435,220.692,576.075,214.267,576.075,214.267z"/>
			
				<line id="XMLID_371_" fill="none" stroke="#061186" stroke-width="0.75" stroke-miterlimit="10" x1="556.733" y1="252.725" x2="558.866" y2="233.637"/>
			<path id="XMLID_392_" fill="none" stroke="#061186" stroke-width="2" stroke-miterlimit="10" d="M615.279,297.22
				c0,0-6.508,2.73-13.574,2.73"/>
			<path id="XMLID_393_" fill="none" stroke="#061186" stroke-width="2" stroke-miterlimit="10" d="M567.531,299.693
				c0,0-3.76,0.204-10.506-2.474"/>
			<path id="XMLID_175_" fill="none" stroke="#061186" stroke-width="0.75" stroke-linejoin="round" stroke-miterlimit="10" d="
				M600.607,214.051c0,0,1.499,21.4-0.272,22.743c-1.12,0.848-5.015,2.757-5.015,2.757l4.457,2.946
				c-0.238,11.715-10.501,38.076-10.501,38.076"/>
			<path id="XMLID_412_" fill="none" stroke="#061186" stroke-width="0.75" stroke-linejoin="round" stroke-miterlimit="10" d="
				M573.605,214.404c0,0-5.772,13.043-5.393,17.976c0,1.535,3.791,3.95,3.791,3.95l-4.279,2.131c0,0-2.991,17.458,2.379,39.238"/>
		</g>
		<path fill="#FFDFD9" d="M580.221,186.695c0,0-11.129,14.986-7.108,19.007c4.021,4.021,11.837,1.851,14.743-1.055
			C591.956,200.546,597.035,180.847,580.221,186.695z"/>
		<path id="XMLID_77_" fill="none" stroke="#F2B6AA" stroke-width="0.5" stroke-miterlimit="10" d="M578.44,196.485
			c0,0-3.5,2.276-3.361,3.135c0.138,0.859,1.159,0.836,1.159,0.836"/>
		<g id="XMLID_74_">
			<path id="XMLID_75_" fill="#223554" d="M581.753,197.957c0.002,0.057,0,0.114-0.004,0.169c-0.035,0.405-0.25,0.681-0.449,1.019
				c-0.317,0.538-1.177-0.058-0.797-0.577c0.233-0.318,0.497-0.652,0.82-0.883C581.643,197.457,581.742,197.693,581.753,197.957z"/>
		</g>
		<g id="XMLID_71_">
			<path id="XMLID_72_" fill="#223554" d="M577.013,194.156c0.002,0.056,0,0.114-0.005,0.169c-0.034,0.405-0.249,0.68-0.448,1.019
				c-0.317,0.538-1.178-0.058-0.797-0.577c0.233-0.318,0.497-0.652,0.82-0.883C576.902,193.656,577.002,193.892,577.013,194.156z"/>
		</g>
		<path id="XMLID_69_" fill="#223554" d="M583.993,198.674c0,0,0.131-0.26,0.158-0.724c0.024-0.448-0.114-1.059-0.443-1.576
			c-0.332-0.514-0.853-0.906-1.312-1.021c-0.226-0.067-0.429-0.049-0.558-0.04c-0.134,0.026-0.201,0.053-0.201,0.053
			s0.07,0.041,0.178,0.091c0.109,0.053,0.242,0.16,0.388,0.28c0.291,0.249,0.607,0.625,0.875,1.044
			c0.27,0.417,0.494,0.87,0.65,1.241c0.067,0.18,0.156,0.34,0.187,0.464C583.958,198.605,583.993,198.674,583.993,198.674z"/>
		<path id="XMLID_67_" fill="#223554" d="M579.174,193.731c0,0,0.017-0.058,0.029-0.152c0.007-0.083,0.01-0.259-0.051-0.42
			c-0.102-0.345-0.449-0.718-0.875-0.899c-0.428-0.184-0.908-0.182-1.229-0.064c-0.325,0.118-0.479,0.297-0.479,0.297
			s0.059,0.02,0.149,0.038c0.089,0.011,0.216,0.058,0.352,0.095c0.275,0.078,0.604,0.187,0.91,0.322
			c0.309,0.13,0.599,0.284,0.814,0.448C579.015,193.54,579.169,193.74,579.174,193.731z"/>
		<path fill="#FFDFD9" d="M579.66,202.358l-2.465,11.693c0,0,2.516,3.852,3.958,3.852c2.094,0,8.979-4.412,8.979-4.412
			l-2.511-13.746"/>
		<path fill="#FFFFFF" d="M574.262,201.833l3.112,1.495C575.075,205.976,573.172,203.437,574.262,201.833z"/>
		<path fill="none" stroke="#F2B6AA" stroke-width="0.5" stroke-miterlimit="10" d="M578.44,207.905c0,0,4.961,0.526,7.628-1.916"/>
		<polygon fill="#FFFFFF" points="589.885,211.625 581.153,217.903 584.706,222.722 590.983,213.492 		"/>
		<polygon fill="#FFFFFF" points="581.153,217.903 577.533,212.448 576.747,214.199 577.54,221.898 		"/>
		<g>
			<g>
				<path fill="#FFDFD9" d="M618.538,297.148c-0.781,0.889-1.567,1.783-2.176,2.798c-1.246,2.077-1.685,4.549-1.745,6.97
					c-0.002,0.068,0.004,0.15,0.063,0.186c0.042,0.025,0.095,0.016,0.141,0.002c0.478-0.142,0.736-0.657,0.857-1.141
					c0.098-0.388,0.113-1.129,0.473-1.351c0.188,0.318,0.174,0.736,0.173,1.097c-0.002,1.65-0.005,3.301-0.007,4.95
					c-0.001,0.104,0.001,0.212,0.051,0.303c0.051,0.09,0.169,0.151,0.261,0.104c0.054-0.027,0.086-0.085,0.112-0.14
					c0.145-0.306,0.208-0.642,0.265-0.975c0.213-1.262,0.33-2.536,0.373-3.814c0.068,1.479-0.065,3.006-0.27,4.475
					c-0.028,0.206-0.124,0.842,0.131,0.954c0.309,0.135,0.645-1.153,0.728-1.408c0.418-1.282,0.649-2.616,0.879-3.942
					c-0.076,1.885-0.375,4.307-0.28,4.439c0.445,0.623,0.972-2.134,1.013-2.47c0.094-0.769,0.176-1.538,0.249-2.309
					c0.018,1.246-0.405,3.738-0.012,3.738s0.517-0.571,0.611-0.952c0.577-2.336,0.712-4.766,0.567-7.167
					c-0.015-0.237-0.031-0.479,0.032-0.708c0.067-0.244,0.221-0.454,0.371-0.657c0.474-0.645,0.947-1.289,1.421-1.934"/>
			</g>
			<path fill="#1473E6" d="M601.2,214.267c0,0,11.529-0.022,24.619,9.501c14.94,10.87,24.619,28.775,24.619,43.409
				c0,20-29.004,33.514-29.004,33.514l-3.281-2.666c0,0,12.947-29.274,12.947-31.941c0-2.666-22.666-29.059-22.666-29.059"/>
			
				<line fill="none" stroke="#061186" stroke-width="0.75" stroke-linejoin="round" stroke-miterlimit="10" x1="622.96" y1="254.501" x2="611.71" y2="240.875"/>
			
				<line fill="none" stroke="#061186" stroke-width="0.75" stroke-linejoin="round" stroke-miterlimit="10" x1="618.153" y1="298.025" x2="624.142" y2="284.201"/>
		</g>
		<g>
			<path fill="#F7471E" d="M581.52,182.803c0.384-0.193,0.793-0.347,1.23-0.454c3.225-0.792,6.87-0.273,9.879,1.07
				c3.054,1.364,5.804,4.432,6.751,7.652c1.024,3.478,1.203,7.62-0.162,11.037c-1.374,3.437-5.096,5.562-8.791,5.771
				c-0.825,0.047-1.694,0.001-2.407-0.417c-0.714-0.418-1.209-1.304-0.945-2.087c0.257-0.762,1.157-1.422,0.847-2.163
				c-0.509-1.21-3.397-0.343-2.764-2.5c0.182-0.617,0.983-1.038,1.404-1.499c0.758-0.829,1.405-1.803,2.01-2.747
				c0.197-0.31,0.396-0.685,0.262-1.026c-0.107-0.271-0.389-0.423-0.649-0.553c-1.273-0.634-2.548-1.269-3.821-1.903
				c-0.346-0.172-0.698-0.349-0.973-0.621c-0.962-0.953-0.593-2.557-0.157-3.839c-1.143,0.484-1.957,1.661-2.009,2.901
				c-1.283-0.097-2.543-0.487-3.657-1.132c-0.313-0.182-0.634-0.405-0.761-0.745c-0.163-0.437,0.043-0.917,0.245-1.337
				C578.063,186.104,579.402,183.866,581.52,182.803z"/>
		</g>
		<g>
			<path fill="#FFDFD9" d="M587.488,201.42c1.651-1.056,3.202-0.175,3.233,1.717c0.021,1.282-0.905,2.171-2.126,2.65
				c-1.673,0.655-4.273-1.557-2.661-2.659"/>
		</g>
		<g>
			<path fill="#F7471E" d="M596.335,185.763c0.474-1.648,1.75-3.044,3.349-3.666c1.599-0.621,3.482-0.452,4.945,0.444
				c0.384,0.235,0.742,0.519,1.156,0.699c1.039,0.453,2.239,0.187,3.329-0.127c2.143-0.617,4.247-1.396,6.443-1.783
				c4.977-0.877,10.407,0.459,14.074,3.936c3.086,2.926,5.169,8.429,4.678,12.677c-1.125,9.731-13.75,14.415-21.102,5.253
				c-0.987-1.229-2.215-2.188-3.738-2.59c-1.524-0.402-3.187-0.695-4.304-1.806c-1.409-1.399-1.489-3.604-2.098-5.494
				c-0.61-1.898-2.39-5.205-4.75-4.912c-0.647,0.081-1.258,0.362-1.905,0.44s-1.411-0.127-1.678-0.723"/>
		</g>
	</g>
	<g>
		<g id="XMLID_555_">
			<path id="XMLID_559_" fill="#394BBC" d="M225.567,451.068L225.567,451.068c-0.652,0-1.144-0.594-1.021-1.234l12.179-63.888h4.825
				l-14.97,64.318C226.47,450.735,226.051,451.068,225.567,451.068z"/>
			<path id="XMLID_558_" fill="#394BBC" d="M285.531,451.068L285.531,451.068c0.652,0,1.144-0.594,1.021-1.234l-12.179-63.888
				h-4.824l14.969,64.318C284.628,450.735,285.048,451.068,285.531,451.068z"/>
			<path id="XMLID_557_" fill="#394BBC" d="M260.93,451.068h0.042c0.592,0,1.064-0.493,1.039-1.084l-2.767-64.038h-4.825
				l5.475,64.171C259.939,450.655,260.39,451.068,260.93,451.068z"/>
			<path id="XMLID_556_" fill="#7992D9" d="M277.504,359.204c0,3.119-0.136,15.134,2.918,18.895
				c3.364,4.144,7.415,2.746,14.246,5.864c4.511,2.059,3.799,9.121-4.153,9.121c-16.755,0-30.555,0-54.467,0
				c-23.913,0-31.732-28.594-27.368-57.025c4.503-29.338,19.747-38.36,36.591-37.722
				C265.516,299.104,277.504,324.373,277.504,359.204z"/>
		</g>
		<g>
			<g>
				<path fill="#394BBC" d="M327.511,417.658c0,0,8.008,1.211,8.626,3.514c0.204,0.76-4.554,1.589-8.55,1.451
					c-0.646-0.021-1.933,0.122-2.36-1.469c-0.371-1.381,0.087-2.905,0.087-2.905"/>
				<path fill="#394BBC" d="M314.376,446.408c0,0,6.961,4.139,6.667,6.506c-0.097,0.78-4.816-0.245-8.467-1.879
					c-0.59-0.264-1.836-0.615-1.632-2.25c0.177-1.419,1.175-2.658,1.175-2.658"/>
				<path fill="#1473E6" d="M251.076,351.398c0,0,42.229,11.262,52.246,21.815c4.286,4.515,7.656,26.097,9.897,45.688
					c2.051,17.922,2.12,28.117,2.12,28.117l-3.922,0.11c0,0-17.99-29.868-20.234-36.45c-3.28-9.619-3.475-16.824-3.104-21.059
					c0.189-2.151-1.704-3.9-3.838-3.564c-11.606,1.825-42.169,5.713-55.909-1.395c-10.25-5.301-13.538-26.042-6.773-34.245"/>
				<path fill="none" stroke="#56647A" stroke-width="0.5" stroke-miterlimit="10" stroke-dasharray="2,1" d="M312.118,446.127
					c0,0-16.673-32.062-18.917-38.643c-3.279-9.62-3.475-16.825-3.103-21.06c0.188-2.151-1.705-3.9-3.838-3.564
					c-11.606,1.825-42.169,5.713-55.909-1.395"/>
			</g>
			<g>
				<path fill="#1473E6" d="M240.515,355.193c0,0,51.172-8.673,70.803,3.616c17.199,10.767,16.624,58.985,16.624,58.985
					s-0.972,1.663-2.838,1.977c-0.93-0.708-13.511-17.412-19.085-28.18c-4.205-8.124-2.696-18.378-2.696-18.378
					s-43.682,21.936-72.001,12.732c-19.851-6.451-12.055-31.297-12.055-31.297"/>
			</g>
			<path fill="none" stroke="#15243A" stroke-width="0.75" stroke-miterlimit="10" d="M310.169,398.773
				c-2.294-25.562-6.847-25.56-6.847-25.56s-26.895,13.626-51.812,15.073"/>
			<path fill="none" stroke="#56647A" stroke-width="0.5" stroke-miterlimit="10" stroke-dasharray="2,1" d="M224.31,356.038
				c0,0-2.458,19.229,9.642,23.741c25.435,9.486,68.074-11.431,70.637-10.254c10.751,4.938,3.742,25.591,21.077,48.982"/>
		</g>
		<path fill="#CCBEB6" d="M269.116,283.025c0,0,10.823,0.641,19.718,11.666c13.166,16.319,6.776,42.282,8.611,44
			c5.888,5.512,23.606,7.667,23.606,7.667v2.667c0,0-32.07,7.327-39.397,0s-10.616-44.495-10.616-44.495"/>
		<g>
			<path fill="#CCBEB6" d="M254.418,283.025c0,0-37.085,4.16-36.467,74.173c18.715,15.286,60.758,2.783,68.836-3.71
				c0-4.343-2.541-14.127-4.047-21.748c-0.628-3.176-0.003-6.473,1.789-9.167c2.301-3.459,5.009-8.749,4.136-13.548
				c-1.878-10.334-12.818-20.934-16.116-23.366S254.418,283.025,254.418,283.025z"/>
			<path fill="none" stroke="#9B8E89" stroke-width="0.75" stroke-miterlimit="10" d="M286.788,353.488
				c0-4.343-2.541-14.127-4.047-21.748c-0.628-3.176-0.003-6.473,1.789-9.167c2.301-3.459,5.009-8.749,4.136-13.548
				c-0.871-4.794-4.276-10.042-7.677-14.292"/>
		</g>
		<g>
			<path fill="#FDE5DF" d="M263.5,348.025l6.779,1.603c0,0,6.521-2.312,8.433-1.603c1.913,0.708,6.788,5.463,5.538,5.463
				s-22.134,0-22.134,0"/>
			<path fill="#CCBEB6" d="M264.548,282.606c0,0-29.254-4.637-40.238,16.752c-10.984,21.389-9.44,37.219,2.229,47.333
				c13.461,11.667,39.012,7.212,39.012,7.212l0.416-5.516c0,0-24.417-9.696-24.417-20.029S247,299.691,247,299.691"/>
			<path fill="none" stroke="#9B8E89" stroke-width="0.75" stroke-miterlimit="10" d="M265.967,348.388
				c0,0-24.417-9.696-24.417-20.029S247,299.691,247,299.691"/>
			<path fill="none" stroke="#9B8E89" stroke-width="0.75" stroke-miterlimit="10" d="M219,336.509
				c9.75,24.975,46.551,17.395,46.551,17.395"/>
		</g>
		<g id="XMLID_103_">
			<g>
				<path fill="#223554" d="M280.614,261.278c0.79,1.52,3.938,8.169,1.355,20.571c-0.506,0.507-5.963,0.438-9.418-0.696
					c-0.674-0.221-2.048-1.721-2.376-2.351"/>
			</g>
			<path id="XMLID_100_" fill="#FFDFD9" d="M279.203,264.555c1.58,2.748,2.312,16.828-6.63,16.828c-2.23,0-3.974-1.294-5.326-2.646
				c-2.404-2.404-2.75-5.465-1.893-11.021c0.777-5.04,3.37-7.354,6.175-7.636C275.277,259.703,277.623,261.808,279.203,264.555z"/>
			<path id="XMLID_99_" fill="#FFDFD9" d="M271.098,273.382l-0.06,10.222c0,0,0.548,2.639-2.784,2.639
				c-4.307,0-5.727-2.433-5.727-2.433l2.138-10.188"/>
			<path id="XMLID_97_" fill="none" stroke="#F2B6AA" stroke-width="0.5" stroke-miterlimit="10" d="M276.026,270.701
				c0,0,1.501,3.895,0.886,4.51c-0.616,0.616-1.43-0.002-1.43-0.002"/>
			<g id="XMLID_95_">
				<path id="XMLID_96_" fill="#223554" d="M272.479,269.952c-0.035,0.044-0.067,0.093-0.096,0.14
					c-0.209,0.348-0.196,0.697-0.233,1.088c-0.059,0.622,0.988,0.643,0.983,0c-0.002-0.395-0.021-0.819-0.147-1.196
					C272.862,269.611,272.643,269.744,272.479,269.952z"/>
			</g>
			<g id="XMLID_93_">
				<path id="XMLID_94_" fill="#223554" d="M278.548,269.65c-0.035,0.045-0.067,0.093-0.096,0.14
					c-0.209,0.349-0.197,0.697-0.233,1.089c-0.059,0.622,0.988,0.643,0.984,0c-0.003-0.396-0.021-0.82-0.147-1.197
					C278.93,269.31,278.711,269.443,278.548,269.65z"/>
			</g>
			<path id="XMLID_92_" fill="#223554" d="M270.244,269.22c0,0,0.046-0.287,0.296-0.68c0.242-0.377,0.713-0.79,1.283-1.017
				c0.57-0.222,1.222-0.234,1.661-0.06c0.222,0.078,0.376,0.212,0.475,0.295c0.093,0.1,0.131,0.161,0.131,0.161
				s-0.081-0.008-0.197-0.03c-0.119-0.021-0.29-0.013-0.479,0c-0.381,0.031-0.858,0.15-1.321,0.333
				c-0.462,0.18-0.91,0.415-1.254,0.624c-0.16,0.106-0.326,0.184-0.423,0.267C270.312,269.186,270.244,269.22,270.244,269.22z"/>
			<path id="XMLID_91_" fill="#223554" d="M277.046,268.04c0,0,0.02-0.057,0.065-0.141c0.043-0.071,0.144-0.216,0.287-0.311
				c0.284-0.22,0.785-0.318,1.236-0.216c0.454,0.102,0.841,0.385,1.033,0.668c0.195,0.287,0.214,0.522,0.214,0.522
				s-0.059-0.02-0.143-0.058c-0.079-0.043-0.209-0.079-0.341-0.129c-0.269-0.099-0.598-0.203-0.926-0.272
				c-0.326-0.075-0.651-0.12-0.922-0.114C277.287,267.979,277.044,268.051,277.046,268.04z"/>
			<path id="XMLID_90_" fill="none" stroke="#F2B6AA" stroke-width="0.5" stroke-miterlimit="10" d="M272.88,276.87
				c0.186,2.074,3.082,1.97,3.397,0.612"/>
			<path id="XMLID_89_" fill="none" stroke="#F2B6AA" stroke-width="0.5" stroke-miterlimit="10" d="M265.554,276.127
				c0,0,1.116,4.381,5.499,5.07"/>
			<g id="XMLID_98_">
				<path fill="#223554" d="M281.639,263.169c0.055,0.622-0.024,1.308-0.458,1.757c-0.592,0.613-1.671,0.688-2.47,0.74
					c-3.391,0.218-7.494-1.851-9.85,1.406c-2.89,3.995-2.614,9.382-2.215,14.297c-2.641,0.186-9.106-0.78-11.175-5.74
					c0.13-4.979,1.479-9.923,3.898-14.277c2.212-3.981,6.585-6.695,11.3-6.379C275.041,255.266,281.203,258.226,281.639,263.169z"/>
			</g>
			<g id="XMLID_102_">
				<path fill="#FFDFD9" d="M268.254,271.236c-0.125-0.798-1.013-1.385-1.796-1.188c-0.541,0.136-0.966,0.579-1.194,1.087
					c-0.406,0.903-0.074,2.217,0.509,3.058c0.688,0.992,1.852,1.182,2.482,0.099"/>
			</g>
		</g>
		<g id="XMLID_594_">
			<path id="XMLID_599_" fill="#FFFFFF" d="M279.009,324.418l-6.047,31.62h47.939l6.116-32.055c0.104-0.654-0.4-1.246-1.063-1.246
				h-44.976C279.999,322.737,279.164,323.449,279.009,324.418z"/>
			<path id="XMLID_598_" fill="#FFFFFF" d="M287.343,356.038h-30.027v-0.755c0-0.991,0.804-1.795,1.795-1.795h28.231V356.038z"/>
			<path id="XMLID_597_" fill="#FEE5E6" d="M305.403,339.805c-0.291,2.069-2.204,3.746-4.273,3.746c-2.069,0-3.51-1.677-3.219-3.746
				c0.291-2.069,2.204-3.746,4.272-3.746S305.693,337.735,305.403,339.805z"/>
		</g>
		<g>
			<path fill="#FFFFFF" stroke="#FF9189" stroke-miterlimit="10" d="M403.039,309.136h-96.769l5.785-4.946v-13.094
				c0-3.205,2.598-5.803,5.802-5.803h85.182c3.205,0,5.803,2.598,5.803,5.803v12.238
				C408.842,306.538,406.244,309.136,403.039,309.136z"/>
			<g>
				<g>
					<path fill="#FF9189" d="M328.618,292.333l1.125,2.939l3.145,0.162c0.627,0.032,0.884,0.822,0.395,1.217l-2.448,1.979
						l0.817,3.04c0.163,0.607-0.508,1.095-1.035,0.753l-2.639-1.718l-2.639,1.718c-0.527,0.342-1.198-0.146-1.035-0.753l0.817-3.04
						l-2.448-1.979c-0.489-0.395-0.232-1.185,0.395-1.217l3.145-0.162l1.125-2.939C327.563,291.746,328.393,291.746,328.618,292.333
						z"/>
					<path fill="#FF9189" d="M344.853,292.333l1.125,2.939l3.144,0.162c0.628,0.032,0.884,0.822,0.396,1.217l-2.448,1.979
						l0.817,3.04c0.163,0.607-0.508,1.095-1.035,0.753l-2.639-1.718l-2.639,1.718c-0.527,0.342-1.198-0.146-1.035-0.753l0.817-3.04
						l-2.448-1.979c-0.489-0.395-0.232-1.185,0.395-1.217l3.145-0.162l1.125-2.939C343.798,291.746,344.628,291.746,344.853,292.333
						z"/>
					<path fill="#FF9189" d="M361.088,292.333l1.125,2.939l3.144,0.162c0.627,0.032,0.884,0.822,0.396,1.217l-2.449,1.979
						l0.818,3.04c0.163,0.607-0.508,1.095-1.035,0.753l-2.639-1.718l-2.639,1.718c-0.527,0.342-1.198-0.146-1.035-0.753l0.817-3.04
						l-2.449-1.979c-0.488-0.395-0.232-1.185,0.396-1.217l3.145-0.162l1.125-2.939C360.033,291.746,360.863,291.746,361.088,292.333
						z"/>
					<g>
						<path fill="#FF9189" d="M377.323,292.333l1.126,2.939l3.145,0.162c0.627,0.032,0.884,0.822,0.395,1.217l-2.448,1.979
							l0.817,3.04c0.163,0.607-0.508,1.095-1.035,0.753l-2.639-1.718l-2.639,1.718c-0.527,0.342-1.198-0.146-1.035-0.753l0.817-3.04
							l-2.449-1.979c-0.488-0.395-0.232-1.185,0.396-1.217l3.145-0.162l1.125-2.939
							C376.269,291.746,377.099,291.746,377.323,292.333z"/>
					</g>
					<g>
						<g>
							<path fill="#FF9189" d="M392.919,293.459l0.832,2.172l0.232,0.607l0.649,0.033l2.323,0.12l-1.81,1.462l-0.506,0.408
								l0.169,0.629l0.604,2.246l-1.949-1.269l-0.546-0.354l-0.545,0.354l-1.95,1.269l0.604-2.246l0.169-0.629l-0.506-0.408
								l-1.809-1.462l2.322-0.12l0.649-0.033l0.233-0.607L392.919,293.459 M392.919,291.893c-0.264,0-0.527,0.146-0.64,0.44
								l-1.126,2.939l-3.144,0.162c-0.628,0.032-0.885,0.822-0.396,1.217l2.448,1.979l-0.817,3.04
								c-0.126,0.469,0.245,0.866,0.662,0.866c0.124,0,0.253-0.035,0.373-0.113l2.639-1.718l2.639,1.718
								c0.121,0.078,0.249,0.113,0.373,0.113c0.418,0,0.788-0.397,0.662-0.866l-0.817-3.04l2.448-1.979
								c0.489-0.395,0.232-1.185-0.395-1.217l-3.145-0.162l-1.126-2.939C393.446,292.039,393.183,291.893,392.919,291.893
								L392.919,291.893z"/>
						</g>
					</g>
				</g>
			</g>
		</g>
	</g>
	<g>
		<g>
			<path fill="#FFDFD9" d="M205.067,210.119c1.748-2.641,1.917-6.247,0.424-9.04c-0.106-0.198-0.24-0.409-0.457-0.468
				c-0.163-0.044-0.336,0.009-0.493,0.072c-1.374,0.556-2.299,1.862-2.938,3.199c-0.64,1.337-1.079,2.778-1.887,4.021
				c-0.398,0.612-0.88,1.167-1.272,1.782c-1.131,1.776-1.45,4.048-0.85,6.066"/>
		</g>
		<path fill="#223554" d="M197.833,210.38l5.284,0.772c0.49,0.072,1.044-0.253,1.238-0.726l4.299-10.476
			c0.194-0.472-0.046-0.913-0.536-0.984l-5.284-0.772c-0.49-0.071-1.044,0.253-1.238,0.726l-4.299,10.476
			C197.103,209.868,197.343,210.308,197.833,210.38z"/>
		<g>
			<path fill="#FFDFD9" d="M199.167,217.683c1.636-2.689,4.984-4.06,6.38-6.881c0.525-1.062,0.729-2.252,0.836-3.432
				c0.098-1.07,0.121-2.147,0.071-3.22c-0.69-0.244-1.359,0.496-1.506,1.212c-0.146,0.717-0.015,1.485-0.27,2.171
				c-0.054,0.146-0.126,0.288-0.234,0.4c-0.205,0.216-0.508,0.302-0.793,0.391c-1.634,0.508-3.166,1.429-4.233,2.767
				c-1.258,1.576-1.801,3.701-1.454,5.688"/>
		</g>
		<path id="XMLID_239_" fill="#1473E6" d="M120.217,201.403c-29.724-0.882-47.222,45.601-47.222,57.646
			c0,22.112,28.265,40.292,28.265,40.292l1.797-4.619l-13.408-29.151c0,0,26.26-29.884,26.326-38.888
			C116.063,214.638,124.134,201.403,120.217,201.403z"/>
		<g>
			<g id="XMLID_37_">
				<path id="XMLID_41_" fill="#223554" d="M111.164,444.288c-2.198,3.19-1.886,8.434-1.131,8.434c0.754,0,20.506,1.32,20.506-0.519
					c0-2.734-14.334-7.256-14.334-7.256"/>
				<path id="XMLID_39_" fill="#FFDFD9" d="M120.004,422.318l-2.938,22.91c0,0-0.595,1.526-3.03,1.526s-3.5-1.358-3.5-1.358
					l-1.834-26.202"/>
			</g>
			<path fill="#C9DAF0" d="M133.045,284.506c0,0,3.255,26.354,0.062,79.416c-1.57,26.093-14.803,75.735-14.803,75.735h-8.539
				c0,0-5.401-41.888-5.401-53.135c0-11.248,1.535-21.724,1.535-21.724c-2.795-17.453-6.275-39.694-6.275-39.694
				s-10.552-21.454,7.078-41.398"/>
			<path fill="none" stroke="#82A1C4" stroke-width="0.75" stroke-miterlimit="10" d="M128.688,284.506
				c0,0,3.256,26.354,0.063,79.416c-1.57,26.093-11.507,75.735-11.507,75.735"/>
			<g id="XMLID_292_">
				<path id="XMLID_294_" fill="#223554" d="M150.265,444.288c-2.197,3.19-1.885,8.434-1.131,8.434
					c0.754,0,20.507,1.32,20.507-0.519c0-2.734-14.335-7.256-14.335-7.256"/>
				<path id="XMLID_293_" fill="#FFDFD9" d="M159.105,422.318l-2.938,22.91c0,0-0.596,1.526-3.03,1.526
					c-2.435,0-3.5-1.358-3.5-1.358l-1.834-26.202"/>
			</g>
			<path fill="#C9DAF0" d="M159.405,284.506c0,0,7,29.051,5.436,84.215c-0.741,26.13-7.436,70.937-7.436,70.937h-8.539
				c0,0-9.554-45.635-9.554-56.882c0-11.248-18.089-57.671-18.089-57.671s-17.151-11.548-5.151-44.777"/>
			<path fill="none" stroke="#82A1C4" stroke-width="0.75" stroke-miterlimit="10" d="M155.454,439.657
				c0,0,6.387-51.056,5.806-87.115c-0.338-20.986-5.953-56.32-5.953-56.32"/>
			<path fill="none" stroke="#82A1C4" stroke-width="0.75" stroke-miterlimit="10" d="M132.915,357.524
				c-5.205-15.772-11.691-32.42-11.691-32.42s-11.686-11.873-9.837-28.175"/>
			<path fill="none" stroke="#82A1C4" stroke-width="0.75" stroke-miterlimit="10" d="M161.26,294.723
				c0,0-32.478,10.128-61.13-1.174"/>
			<path fill="none" stroke="#82A1C4" stroke-width="0.75" stroke-miterlimit="10" d="M143.768,298.128c0,0,0-3.757-0.888-5.777"/>
			<path fill="none" stroke="#82A1C4" stroke-width="0.75" stroke-miterlimit="10" d="M117.25,297.975c0,0-0.122-2.93,0.707-5.624"
				/>
			<polygon fill="#82A1C4" points="148.57,440.194 157.751,440.194 158.303,436.448 148.098,436.448 			"/>
			<polygon fill="#82A1C4" points="109.568,440.194 118.896,440.194 119.456,436.448 109.088,436.448 			"/>
		</g>
		<path id="XMLID_236_" fill="#1473E6" d="M120.217,201.403c0,0-17.077,4.914-21.457,12.214c-2.049,3.415-0.996,24.155,0.562,40.324
			c2.57,26.665,0.778,31.779,2.406,35.326c1.461,3.184,14.408,5.455,24.993,5.455c10.586,0,36.691-0.522,34.621-5.591
			c-1.667-4.08-3.056-16.918,0.103-56.386C163.614,230.576,157.814,201.403,120.217,201.403z"/>
		<path id="XMLID_213_" fill="#1473E6" d="M126.382,200.962c0,0,20.488-3.839,35.459,11.131c7.904,7.904,10.987,15.865,15.81,23.234
			c8.423-11.591,18.984-21.547,18.984-21.547l4.341,2.92c0,0-15.097,56.102-32.108,46.906
			c-11.415-6.171-28.079-30.687-28.079-30.687"/>
		<g id="XMLID_416_">
			<g id="XMLID_178_">
				<path fill="#FFDFD9" d="M140.709,179.665c1.293,1.491,2.395,3.148,3.269,4.917c0.135,0.272,0.266,0.554,0.298,0.856
					c0.033,0.302-0.051,0.632-0.283,0.828c-0.132,0.111-0.3,0.169-0.465,0.219c-1.323,0.401-2.767,0.396-4.087-0.014"/>
			</g>
			<path id="XMLID_225_" fill="#FFDFD9" d="M139.982,173.251c0,0,4.354,17.954-0.192,20.385c-2.813,1.504-4.868,0.058-4.868,0.058
				l0.999,7.28c-1.445,2.786-14.281,2.775-15.703,0.429l1.587-14.458c0,0,2.317-14.04,5.475-15.953
				C130.437,169.079,137.307,168.837,139.982,173.251z"/>
			<g id="XMLID_177_">
				<path fill="#F7471E" d="M131.309,166.444c0.573-0.034,1.146-0.036,1.718,0.016c1.523,0.137,2.989,0.647,4.398,1.244
					c0.92,0.391,1.835,0.827,2.6,1.47c0.765,0.644,1.375,1.52,1.521,2.508c0.1,0.676-0.02,1.37-0.247,2.015
					c-0.215,0.609-0.579,1.232-1.188,1.449c-0.425,0.152-0.893,0.078-1.341,0.017c-1.121-0.151-2.338-0.197-3.402,0.25
					c-0.875,0.369-2.01,0.589-2.405,1.574c-0.582,1.448,0.988,3.044,0.577,4.55c-0.166,0.606-0.632,1.083-1.126,1.472
					c-0.104,0.082-0.223,0.166-0.355,0.159c-0.139-0.007-0.251-0.111-0.351-0.209c-0.648-0.64-1.012-1.764-2.09-1.479
					c-1.354,0.358-1.66,2.419-1.499,3.556c0.097,0.68,0.405,1.481,0.894,1.983c0.48,0.494,1.288,0.208,1.701,0.643
					c0.174,0.183,0.175,0.467,0.152,0.719c-0.071,0.768-0.266,1.523-0.576,2.229c-0.337,0.77-0.836,1.504-1.567,1.918
					c-1.105,0.627-2.484,0.407-3.712,0.08c-1.327-0.354-2.65-0.825-3.741-1.658c-1.685-1.286-2.652-3.304-3.266-5.332
					c-0.93-3.073-1.184-6.35-0.737-9.529c0.238-1.698,0.843-3.155,2.061-4.385c0.941-0.951,2.002-1.785,3.147-2.477
					c1.097-0.663,1.952-1.48,3.214-1.884c1.002-0.321,2.049-0.469,3.091-0.616C129.619,166.611,130.463,166.493,131.309,166.444z"/>
			</g>
			<g id="XMLID_414_">
				<g>
					<path id="XMLID_107_" fill="#223554" d="M138.294,180.042c0.033,0.072,0.061,0.147,0.083,0.221
						c0.167,0.541,0.035,1.01-0.045,1.551c-0.128,0.862-1.552,0.542-1.333-0.327c0.135-0.534,0.3-1.104,0.597-1.572
						C137.889,179.454,138.142,179.707,138.294,180.042z"/>
				</g>
			</g>
			<path id="XMLID_413_" fill="none" stroke="#223554" stroke-miterlimit="10" d="M139.641,177.285
				c-1.759-0.619-4.246-0.551-5.329,0.758"/>
			<path id="XMLID_31_" fill="none" stroke="#D8889B" stroke-width="0.5" stroke-miterlimit="10" d="M140.101,188.635
				c-0.855,0.845-2.453,0.707-4.181,0.137"/>
		</g>
		
			<line fill="none" stroke="#061186" stroke-width="0.75" stroke-linejoin="round" stroke-miterlimit="10" x1="159.144" y1="255.677" x2="144.925" y2="241.469"/>
		<path fill="none" stroke="#061186" stroke-width="0.75" stroke-linejoin="round" stroke-miterlimit="10" d="M99.322,253.941
			c0,0-0.628-19.309-4.744-23.425"/>
		<g>
			<path fill="#FFFFFF" stroke="#FF9189" stroke-miterlimit="10" d="M250.727,182.746h-97.419l6.435-4.271v-13.771
				c0-3.204,2.598-5.802,5.802-5.802h85.182c3.205,0,5.802,2.598,5.802,5.802v12.239
				C256.529,180.147,253.931,182.746,250.727,182.746z"/>
			<g>
				<g>
					<path fill="#FF9189" d="M176.305,165.942l1.125,2.94l3.144,0.162c0.628,0.032,0.884,0.822,0.396,1.217l-2.448,1.979
						l0.817,3.041c0.163,0.607-0.509,1.095-1.035,0.752l-2.639-1.717l-2.639,1.717c-0.527,0.343-1.198-0.145-1.035-0.752
						l0.817-3.041l-2.448-1.979c-0.489-0.395-0.232-1.185,0.395-1.217l3.145-0.162l1.125-2.94
						C175.25,165.355,176.08,165.355,176.305,165.942z"/>
					<path fill="#FF9189" d="M192.54,165.942l1.126,2.94l3.144,0.162c0.628,0.032,0.884,0.822,0.396,1.217l-2.448,1.979l0.817,3.041
						c0.163,0.607-0.508,1.095-1.035,0.752l-2.639-1.717l-2.639,1.717c-0.527,0.343-1.198-0.145-1.035-0.752l0.817-3.041
						l-2.449-1.979c-0.488-0.395-0.232-1.185,0.396-1.217l3.144-0.162l1.126-2.94C191.485,165.355,192.315,165.355,192.54,165.942z"
						/>
					<path fill="#FF9189" d="M208.775,165.942l1.126,2.94l3.144,0.162c0.627,0.032,0.884,0.822,0.396,1.217l-2.449,1.979
						l0.818,3.041c0.163,0.607-0.509,1.095-1.035,0.752l-2.639-1.717l-2.639,1.717c-0.527,0.343-1.198-0.145-1.035-0.752
						l0.817-3.041l-2.449-1.979c-0.488-0.395-0.232-1.185,0.396-1.217l3.145-0.162l1.125-2.94
						C207.721,165.355,208.551,165.355,208.775,165.942z"/>
					<g>
						<path fill="#FF9189" d="M225.011,165.942l1.126,2.94l3.144,0.162c0.627,0.032,0.884,0.822,0.396,1.217l-2.448,1.979
							l0.817,3.041c0.163,0.607-0.509,1.095-1.035,0.752l-2.639-1.717l-2.639,1.717c-0.527,0.343-1.198-0.145-1.036-0.752
							l0.818-3.041l-2.449-1.979c-0.488-0.395-0.232-1.185,0.396-1.217l3.145-0.162l1.125-2.94
							C223.956,165.355,224.786,165.355,225.011,165.942z"/>
					</g>
					<g>
						<g>
							<path fill="#FF9189" d="M240.606,167.068l0.832,2.172l0.233,0.608l0.649,0.033l2.323,0.12l-1.809,1.462l-0.506,0.409
								l0.169,0.628l0.604,2.246l-1.949-1.269l-0.545-0.355l-0.545,0.355l-1.949,1.269l0.604-2.246l0.169-0.628l-0.506-0.409
								L236.57,170l2.323-0.12l0.65-0.033l0.232-0.608L240.606,167.068 M240.606,165.502c-0.264,0-0.527,0.146-0.64,0.44
								l-1.126,2.94l-3.144,0.162c-0.627,0.032-0.884,0.822-0.396,1.217l2.449,1.979l-0.817,3.041
								c-0.126,0.468,0.245,0.865,0.663,0.865c0.124,0,0.252-0.035,0.372-0.113l2.639-1.717l2.639,1.717
								c0.12,0.079,0.249,0.113,0.372,0.113c0.418,0,0.789-0.397,0.663-0.865l-0.818-3.041l2.449-1.979
								c0.489-0.395,0.232-1.185-0.396-1.217l-3.144-0.162l-1.126-2.94C241.134,165.648,240.87,165.502,240.606,165.502
								L240.606,165.502z"/>
						</g>
					</g>
				</g>
			</g>
		</g>
	</g>
</g>
<g id="DESIGNED_BY_FREEPIK">
</g>
</svg>
